<svg width="685" height="525" viewBox="0 0 685 525" fill="none" xmlns="http://www.w3.org/2000/svg">
<path d="M60.2756 516V489.818H70.6051C72.5909 489.818 74.2827 490.197 75.6804 490.956C77.0781 491.706 78.1435 492.75 78.8764 494.088C79.6179 495.418 79.9886 496.952 79.9886 498.69C79.9886 500.429 79.6136 501.963 78.8636 503.293C78.1136 504.622 77.027 505.658 75.6037 506.399C74.1889 507.141 72.4759 507.511 70.4645 507.511H63.8807V503.075H69.5696C70.6349 503.075 71.5128 502.892 72.2031 502.526C72.902 502.151 73.4219 501.635 73.7628 500.979C74.1122 500.314 74.2869 499.551 74.2869 498.69C74.2869 497.821 74.1122 497.062 73.7628 496.415C73.4219 495.759 72.902 495.251 72.2031 494.893C71.5043 494.527 70.6179 494.344 69.544 494.344H65.8111V516H60.2756ZM88.9279 489.818V516H83.4819V489.818H88.9279ZM98.8899 516.371C97.6371 516.371 96.5206 516.153 95.5405 515.719C94.5604 515.276 93.7848 514.624 93.2138 513.763C92.6513 512.893 92.37 511.811 92.37 510.516C92.37 509.425 92.5703 508.509 92.9709 507.767C93.3714 507.026 93.9169 506.429 94.6072 505.977C95.2976 505.526 96.0817 505.185 96.9595 504.955C97.8459 504.724 98.7749 504.562 99.7464 504.469C100.888 504.349 101.809 504.239 102.508 504.136C103.207 504.026 103.714 503.864 104.029 503.651C104.344 503.437 104.502 503.122 104.502 502.705V502.628C104.502 501.818 104.246 501.192 103.735 500.749C103.232 500.305 102.516 500.084 101.587 500.084C100.607 500.084 99.8274 500.301 99.2479 500.736C98.6683 501.162 98.2848 501.699 98.0973 502.347L93.0604 501.938C93.3161 500.744 93.8189 499.713 94.5689 498.844C95.3189 497.966 96.2862 497.293 97.4709 496.824C98.6641 496.347 100.045 496.108 101.613 496.108C102.704 496.108 103.748 496.236 104.745 496.491C105.751 496.747 106.641 497.143 107.417 497.68C108.201 498.217 108.819 498.908 109.271 499.751C109.722 500.587 109.948 501.588 109.948 502.756V516H104.783V513.277H104.63C104.315 513.891 103.893 514.432 103.364 514.901C102.836 515.361 102.201 515.723 101.46 515.987C100.718 516.243 99.8615 516.371 98.8899 516.371ZM100.45 512.612C101.251 512.612 101.958 512.455 102.572 512.139C103.185 511.815 103.667 511.381 104.016 510.835C104.366 510.29 104.54 509.672 104.54 508.982V506.898C104.37 507.009 104.136 507.111 103.837 507.205C103.548 507.29 103.219 507.371 102.853 507.447C102.487 507.516 102.12 507.58 101.754 507.639C101.387 507.69 101.055 507.737 100.756 507.78C100.117 507.874 99.5589 508.023 99.0817 508.227C98.6044 508.432 98.2337 508.709 97.9695 509.058C97.7053 509.399 97.5732 509.825 97.5732 510.337C97.5732 511.078 97.8416 511.645 98.3786 512.037C98.924 512.42 99.6143 512.612 100.45 512.612ZM124.618 496.364V500.455H112.793V496.364H124.618ZM115.477 491.659H120.923V509.966C120.923 510.469 121 510.861 121.153 511.142C121.307 511.415 121.52 511.607 121.793 511.717C122.074 511.828 122.398 511.884 122.764 511.884C123.02 511.884 123.276 511.862 123.531 511.82C123.787 511.768 123.983 511.73 124.119 511.705L124.976 515.757C124.703 515.842 124.32 515.94 123.825 516.051C123.331 516.17 122.73 516.243 122.023 516.268C120.71 516.32 119.56 516.145 118.571 515.744C117.591 515.344 116.828 514.722 116.283 513.878C115.737 513.034 115.469 511.969 115.477 510.682V491.659ZM133.765 516.371C132.512 516.371 131.396 516.153 130.415 515.719C129.435 515.276 128.66 514.624 128.089 513.763C127.526 512.893 127.245 511.811 127.245 510.516C127.245 509.425 127.445 508.509 127.846 507.767C128.246 507.026 128.792 506.429 129.482 505.977C130.173 505.526 130.957 505.185 131.835 504.955C132.721 504.724 133.65 504.562 134.621 504.469C135.763 504.349 136.684 504.239 137.383 504.136C138.082 504.026 138.589 503.864 138.904 503.651C139.219 503.437 139.377 503.122 139.377 502.705V502.628C139.377 501.818 139.121 501.192 138.61 500.749C138.107 500.305 137.391 500.084 136.462 500.084C135.482 500.084 134.702 500.301 134.123 500.736C133.543 501.162 133.16 501.699 132.972 502.347L127.935 501.938C128.191 500.744 128.694 499.713 129.444 498.844C130.194 497.966 131.161 497.293 132.346 496.824C133.539 496.347 134.92 496.108 136.488 496.108C137.579 496.108 138.623 496.236 139.62 496.491C140.626 496.747 141.516 497.143 142.292 497.68C143.076 498.217 143.694 498.908 144.146 499.751C144.597 500.587 144.823 501.588 144.823 502.756V516H139.658V513.277H139.505C139.19 513.891 138.768 514.432 138.239 514.901C137.711 515.361 137.076 515.723 136.335 515.987C135.593 516.243 134.737 516.371 133.765 516.371ZM135.325 512.612C136.126 512.612 136.833 512.455 137.447 512.139C138.06 511.815 138.542 511.381 138.891 510.835C139.241 510.29 139.415 509.672 139.415 508.982V506.898C139.245 507.009 139.011 507.111 138.712 507.205C138.423 507.29 138.094 507.371 137.728 507.447C137.362 507.516 136.995 507.58 136.629 507.639C136.262 507.69 135.93 507.737 135.631 507.78C134.992 507.874 134.434 508.023 133.957 508.227C133.479 508.432 133.109 508.709 132.844 509.058C132.58 509.399 132.448 509.825 132.448 510.337C132.448 511.078 132.717 511.645 133.254 512.037C133.799 512.42 134.489 512.612 135.325 512.612ZM159.608 496.364V500.455H147.489V496.364H159.608ZM150.263 516V494.945C150.263 493.521 150.54 492.341 151.094 491.403C151.656 490.466 152.423 489.763 153.395 489.294C154.366 488.825 155.47 488.591 156.706 488.591C157.541 488.591 158.304 488.655 158.994 488.783C159.693 488.911 160.213 489.026 160.554 489.128L159.582 493.219C159.369 493.151 159.105 493.087 158.79 493.027C158.483 492.967 158.168 492.938 157.844 492.938C157.043 492.938 156.484 493.125 156.169 493.5C155.854 493.866 155.696 494.382 155.696 495.047V516H150.263ZM171.104 516.384C169.118 516.384 167.401 515.962 165.952 515.118C164.512 514.266 163.4 513.081 162.615 511.564C161.831 510.038 161.439 508.27 161.439 506.259C161.439 504.23 161.831 502.457 162.615 500.94C163.4 499.415 164.512 498.23 165.952 497.386C167.401 496.534 169.118 496.108 171.104 496.108C173.09 496.108 174.803 496.534 176.243 497.386C177.692 498.23 178.809 499.415 179.593 500.94C180.377 502.457 180.769 504.23 180.769 506.259C180.769 508.27 180.377 510.038 179.593 511.564C178.809 513.081 177.692 514.266 176.243 515.118C174.803 515.962 173.09 516.384 171.104 516.384ZM171.13 512.165C172.033 512.165 172.787 511.909 173.392 511.398C173.998 510.878 174.453 510.17 174.76 509.276C175.076 508.381 175.233 507.362 175.233 506.22C175.233 505.078 175.076 504.06 174.76 503.165C174.453 502.27 173.998 501.562 173.392 501.043C172.787 500.523 172.033 500.263 171.13 500.263C170.218 500.263 169.451 500.523 168.828 501.043C168.215 501.562 167.75 502.27 167.435 503.165C167.128 504.06 166.975 505.078 166.975 506.22C166.975 507.362 167.128 508.381 167.435 509.276C167.75 510.17 168.215 510.878 168.828 511.398C169.451 511.909 170.218 512.165 171.13 512.165ZM184.31 516V496.364H189.59V499.79H189.794C190.152 498.571 190.753 497.651 191.597 497.028C192.441 496.398 193.412 496.082 194.512 496.082C194.784 496.082 195.078 496.099 195.394 496.134C195.709 496.168 195.986 496.214 196.225 496.274V501.107C195.969 501.03 195.615 500.962 195.164 500.902C194.712 500.842 194.299 500.812 193.924 500.812C193.123 500.812 192.407 500.987 191.776 501.337C191.154 501.678 190.659 502.155 190.293 502.768C189.935 503.382 189.756 504.089 189.756 504.891V516H184.31ZM199.04 516V496.364H204.231V499.828H204.461C204.87 498.678 205.552 497.77 206.506 497.105C207.461 496.44 208.603 496.108 209.933 496.108C211.279 496.108 212.425 496.445 213.371 497.118C214.317 497.783 214.948 498.686 215.263 499.828H215.468C215.869 498.703 216.593 497.804 217.641 497.131C218.698 496.449 219.947 496.108 221.387 496.108C223.219 496.108 224.707 496.692 225.849 497.859C226.999 499.018 227.575 500.663 227.575 502.794V516H222.141V503.868C222.141 502.777 221.852 501.959 221.272 501.413C220.692 500.868 219.968 500.595 219.099 500.595C218.11 500.595 217.339 500.911 216.785 501.541C216.231 502.163 215.954 502.986 215.954 504.009V516H210.674V503.753C210.674 502.79 210.397 502.023 209.843 501.452C209.298 500.881 208.577 500.595 207.683 500.595C207.077 500.595 206.532 500.749 206.046 501.055C205.569 501.354 205.19 501.776 204.908 502.321C204.627 502.858 204.487 503.489 204.487 504.213V516H199.04ZM237.476 516.371C236.223 516.371 235.107 516.153 234.126 515.719C233.146 515.276 232.371 514.624 231.8 513.763C231.237 512.893 230.956 511.811 230.956 510.516C230.956 509.425 231.156 508.509 231.557 507.767C231.957 507.026 232.503 506.429 233.193 505.977C233.884 505.526 234.668 505.185 235.545 504.955C236.432 504.724 237.361 504.562 238.332 504.469C239.474 504.349 240.395 504.239 241.094 504.136C241.793 504.026 242.3 503.864 242.615 503.651C242.93 503.437 243.088 503.122 243.088 502.705V502.628C243.088 501.818 242.832 501.192 242.321 500.749C241.818 500.305 241.102 500.084 240.173 500.084C239.193 500.084 238.413 500.301 237.834 500.736C237.254 501.162 236.871 501.699 236.683 502.347L231.646 501.938C231.902 500.744 232.405 499.713 233.155 498.844C233.905 497.966 234.872 497.293 236.057 496.824C237.25 496.347 238.631 496.108 240.199 496.108C241.29 496.108 242.334 496.236 243.331 496.491C244.337 496.747 245.227 497.143 246.003 497.68C246.787 498.217 247.405 498.908 247.857 499.751C248.308 500.587 248.534 501.588 248.534 502.756V516H243.369V513.277H243.216C242.901 513.891 242.479 514.432 241.95 514.901C241.422 515.361 240.787 515.723 240.045 515.987C239.304 516.243 238.447 516.371 237.476 516.371ZM239.036 512.612C239.837 512.612 240.544 512.455 241.158 512.139C241.771 511.815 242.253 511.381 242.602 510.835C242.952 510.29 243.126 509.672 243.126 508.982V506.898C242.956 507.009 242.722 507.111 242.423 507.205C242.134 507.29 241.805 507.371 241.439 507.447C241.072 507.516 240.706 507.58 240.339 507.639C239.973 507.69 239.641 507.737 239.342 507.78C238.703 507.874 238.145 508.023 237.668 508.227C237.19 508.432 236.82 508.709 236.555 509.058C236.291 509.399 236.159 509.825 236.159 510.337C236.159 511.078 236.428 511.645 236.964 512.037C237.51 512.42 238.2 512.612 239.036 512.612ZM268.327 516.32C266.836 516.32 265.485 515.936 264.275 515.169C263.073 514.393 262.118 513.256 261.411 511.756C260.712 510.247 260.363 508.398 260.363 506.207C260.363 503.957 260.725 502.087 261.449 500.595C262.174 499.095 263.137 497.974 264.338 497.233C265.549 496.483 266.874 496.108 268.314 496.108C269.414 496.108 270.33 496.295 271.063 496.67C271.804 497.037 272.401 497.497 272.853 498.051C273.313 498.597 273.662 499.134 273.901 499.662H274.067V489.818H279.5V516H274.131V512.855H273.901C273.645 513.401 273.283 513.942 272.814 514.479C272.354 515.007 271.753 515.446 271.012 515.795C270.279 516.145 269.384 516.32 268.327 516.32ZM270.053 511.986C270.931 511.986 271.672 511.747 272.277 511.27C272.891 510.784 273.36 510.107 273.684 509.237C274.016 508.368 274.182 507.349 274.182 506.182C274.182 505.014 274.02 504 273.696 503.139C273.373 502.278 272.904 501.614 272.29 501.145C271.676 500.676 270.931 500.442 270.053 500.442C269.158 500.442 268.404 500.685 267.79 501.17C267.176 501.656 266.712 502.33 266.397 503.19C266.081 504.051 265.924 505.048 265.924 506.182C265.924 507.324 266.081 508.334 266.397 509.212C266.721 510.081 267.185 510.763 267.79 511.257C268.404 511.743 269.158 511.986 270.053 511.986ZM292.927 516.384C290.907 516.384 289.168 515.974 287.711 515.156C286.262 514.33 285.146 513.162 284.362 511.653C283.577 510.136 283.185 508.342 283.185 506.271C283.185 504.251 283.577 502.479 284.362 500.953C285.146 499.428 286.249 498.239 287.673 497.386C289.104 496.534 290.783 496.108 292.71 496.108C294.005 496.108 295.211 496.317 296.327 496.734C297.452 497.143 298.433 497.761 299.268 498.588C300.112 499.415 300.768 500.455 301.237 501.707C301.705 502.952 301.94 504.409 301.94 506.08V507.575H285.359V504.2H296.813C296.813 503.416 296.643 502.722 296.302 502.116C295.961 501.511 295.488 501.038 294.883 500.697C294.286 500.348 293.592 500.173 292.799 500.173C291.972 500.173 291.239 500.365 290.6 500.749C289.969 501.124 289.475 501.631 289.117 502.27C288.759 502.901 288.576 503.604 288.567 504.379V507.588C288.567 508.56 288.746 509.399 289.104 510.107C289.471 510.814 289.987 511.359 290.651 511.743C291.316 512.126 292.104 512.318 293.016 512.318C293.621 512.318 294.175 512.233 294.678 512.062C295.181 511.892 295.612 511.636 295.969 511.295C296.327 510.955 296.6 510.537 296.788 510.043L301.825 510.375C301.569 511.585 301.045 512.642 300.252 513.545C299.468 514.44 298.454 515.139 297.21 515.642C295.974 516.136 294.546 516.384 292.927 516.384ZM322.672 523.773C320.908 523.773 319.395 523.53 318.134 523.044C316.881 522.567 315.884 521.915 315.142 521.088C314.401 520.261 313.919 519.332 313.698 518.301L318.735 517.624C318.888 518.016 319.131 518.382 319.463 518.723C319.796 519.064 320.235 519.337 320.78 519.541C321.334 519.754 322.007 519.861 322.8 519.861C323.985 519.861 324.961 519.571 325.728 518.991C326.503 518.42 326.891 517.462 326.891 516.115V512.523H326.661C326.422 513.068 326.064 513.584 325.587 514.07C325.11 514.555 324.496 514.952 323.746 515.259C322.996 515.565 322.101 515.719 321.061 515.719C319.587 515.719 318.245 515.378 317.034 514.696C315.833 514.006 314.874 512.953 314.158 511.538C313.451 510.115 313.097 508.317 313.097 506.143C313.097 503.919 313.459 502.061 314.184 500.57C314.908 499.078 315.871 497.962 317.073 497.22C318.283 496.479 319.608 496.108 321.049 496.108C322.148 496.108 323.069 496.295 323.81 496.67C324.551 497.037 325.148 497.497 325.6 498.051C326.06 498.597 326.414 499.134 326.661 499.662H326.865V496.364H332.273V516.192C332.273 517.862 331.864 519.26 331.046 520.385C330.228 521.51 329.094 522.354 327.645 522.916C326.205 523.487 324.547 523.773 322.672 523.773ZM322.787 511.628C323.665 511.628 324.407 511.411 325.012 510.976C325.625 510.533 326.094 509.902 326.418 509.084C326.75 508.257 326.917 507.268 326.917 506.118C326.917 504.967 326.755 503.97 326.431 503.126C326.107 502.274 325.638 501.614 325.025 501.145C324.411 500.676 323.665 500.442 322.787 500.442C321.892 500.442 321.138 500.685 320.525 501.17C319.911 501.648 319.446 502.312 319.131 503.165C318.816 504.017 318.658 505.001 318.658 506.118C318.658 507.251 318.816 508.232 319.131 509.058C319.455 509.876 319.919 510.511 320.525 510.963C321.138 511.406 321.892 511.628 322.787 511.628ZM345.556 516.384C343.536 516.384 341.797 515.974 340.34 515.156C338.891 514.33 337.775 513.162 336.99 511.653C336.206 510.136 335.814 508.342 335.814 506.271C335.814 504.251 336.206 502.479 336.99 500.953C337.775 499.428 338.878 498.239 340.301 497.386C341.733 496.534 343.412 496.108 345.338 496.108C346.634 496.108 347.84 496.317 348.956 496.734C350.081 497.143 351.061 497.761 351.897 498.588C352.74 499.415 353.397 500.455 353.865 501.707C354.334 502.952 354.569 504.409 354.569 506.08V507.575H337.988V504.2H349.442C349.442 503.416 349.272 502.722 348.931 502.116C348.59 501.511 348.117 501.038 347.512 500.697C346.915 500.348 346.221 500.173 345.428 500.173C344.601 500.173 343.868 500.365 343.229 500.749C342.598 501.124 342.104 501.631 341.746 502.27C341.388 502.901 341.205 503.604 341.196 504.379V507.588C341.196 508.56 341.375 509.399 341.733 510.107C342.1 510.814 342.615 511.359 343.28 511.743C343.945 512.126 344.733 512.318 345.645 512.318C346.25 512.318 346.804 512.233 347.307 512.062C347.81 511.892 348.24 511.636 348.598 511.295C348.956 510.955 349.229 510.537 349.417 510.043L354.453 510.375C354.198 511.585 353.674 512.642 352.881 513.545C352.097 514.44 351.083 515.139 349.838 515.642C348.603 516.136 347.175 516.384 345.556 516.384ZM374.461 501.963L369.475 502.27C369.39 501.844 369.206 501.46 368.925 501.119C368.644 500.77 368.273 500.493 367.813 500.288C367.361 500.075 366.82 499.969 366.189 499.969C365.346 499.969 364.634 500.148 364.054 500.506C363.475 500.855 363.185 501.324 363.185 501.912C363.185 502.381 363.373 502.777 363.748 503.101C364.123 503.425 364.766 503.685 365.678 503.881L369.232 504.597C371.141 504.989 372.564 505.619 373.502 506.489C374.439 507.358 374.908 508.5 374.908 509.915C374.908 511.202 374.529 512.331 373.77 513.303C373.02 514.274 371.989 515.033 370.676 515.578C369.373 516.115 367.868 516.384 366.164 516.384C363.564 516.384 361.493 515.842 359.951 514.76C358.417 513.669 357.517 512.186 357.253 510.311L362.61 510.03C362.772 510.822 363.164 511.428 363.786 511.845C364.408 512.254 365.205 512.459 366.176 512.459C367.131 512.459 367.898 512.276 368.478 511.909C369.066 511.534 369.364 511.053 369.373 510.464C369.364 509.97 369.155 509.565 368.746 509.25C368.337 508.926 367.706 508.679 366.854 508.509L363.453 507.831C361.536 507.447 360.108 506.783 359.171 505.837C358.242 504.891 357.777 503.685 357.777 502.219C357.777 500.957 358.118 499.871 358.8 498.959C359.49 498.047 360.458 497.344 361.702 496.849C362.955 496.355 364.421 496.108 366.1 496.108C368.58 496.108 370.532 496.632 371.955 497.68C373.387 498.729 374.222 500.156 374.461 501.963ZM388.782 496.364V500.455H376.957V496.364H388.782ZM379.641 491.659H385.087V509.966C385.087 510.469 385.164 510.861 385.317 511.142C385.471 511.415 385.684 511.607 385.957 511.717C386.238 511.828 386.562 511.884 386.928 511.884C387.184 511.884 387.44 511.862 387.695 511.82C387.951 511.768 388.147 511.73 388.283 511.705L389.14 515.757C388.867 515.842 388.484 515.94 387.989 516.051C387.495 516.17 386.894 516.243 386.187 516.268C384.874 516.32 383.724 516.145 382.735 515.744C381.755 515.344 380.992 514.722 380.447 513.878C379.901 513.034 379.633 511.969 379.641 510.682V491.659ZM392.33 516V496.364H397.776V516H392.33ZM395.065 493.832C394.256 493.832 393.561 493.564 392.982 493.027C392.411 492.482 392.125 491.83 392.125 491.071C392.125 490.321 392.411 489.678 392.982 489.141C393.561 488.595 394.256 488.322 395.065 488.322C395.875 488.322 396.565 488.595 397.136 489.141C397.716 489.678 398.006 490.321 398.006 491.071C398.006 491.83 397.716 492.482 397.136 493.027C396.565 493.564 395.875 493.832 395.065 493.832ZM411.01 516.384C409.025 516.384 407.307 515.962 405.858 515.118C404.418 514.266 403.306 513.081 402.522 511.564C401.738 510.038 401.346 508.27 401.346 506.259C401.346 504.23 401.738 502.457 402.522 500.94C403.306 499.415 404.418 498.23 405.858 497.386C407.307 496.534 409.025 496.108 411.01 496.108C412.996 496.108 414.709 496.534 416.15 497.386C417.598 498.23 418.715 499.415 419.499 500.94C420.283 502.457 420.675 504.23 420.675 506.259C420.675 508.27 420.283 510.038 419.499 511.564C418.715 513.081 417.598 514.266 416.15 515.118C414.709 515.962 412.996 516.384 411.01 516.384ZM411.036 512.165C411.939 512.165 412.694 511.909 413.299 511.398C413.904 510.878 414.36 510.17 414.667 509.276C414.982 508.381 415.14 507.362 415.14 506.22C415.14 505.078 414.982 504.06 414.667 503.165C414.36 502.27 413.904 501.562 413.299 501.043C412.694 500.523 411.939 500.263 411.036 500.263C410.124 500.263 409.357 500.523 408.735 501.043C408.121 501.562 407.657 502.27 407.341 503.165C407.034 504.06 406.881 505.078 406.881 506.22C406.881 507.362 407.034 508.381 407.341 509.276C407.657 510.17 408.121 510.878 408.735 511.398C409.357 511.909 410.124 512.165 411.036 512.165ZM409.054 493.832L411.765 488.016H416.801L412.902 493.832H409.054ZM429.662 504.648V516H424.216V496.364H429.407V499.828H429.637C430.071 498.686 430.8 497.783 431.823 497.118C432.846 496.445 434.086 496.108 435.543 496.108C436.907 496.108 438.096 496.406 439.11 497.003C440.124 497.599 440.912 498.452 441.475 499.56C442.037 500.659 442.319 501.972 442.319 503.497V516H436.873V504.469C436.881 503.267 436.574 502.33 435.952 501.656C435.33 500.974 434.473 500.634 433.382 500.634C432.65 500.634 432.002 500.791 431.439 501.107C430.885 501.422 430.451 501.882 430.135 502.487C429.828 503.084 429.671 503.804 429.662 504.648ZM463.892 516.384C461.872 516.384 460.133 515.974 458.676 515.156C457.227 514.33 456.11 513.162 455.326 511.653C454.542 510.136 454.15 508.342 454.15 506.271C454.15 504.251 454.542 502.479 455.326 500.953C456.11 499.428 457.214 498.239 458.637 497.386C460.069 496.534 461.748 496.108 463.674 496.108C464.97 496.108 466.176 496.317 467.292 496.734C468.417 497.143 469.397 497.761 470.233 498.588C471.076 499.415 471.733 500.455 472.201 501.707C472.67 502.952 472.904 504.409 472.904 506.08V507.575H456.324V504.2H467.778C467.778 503.416 467.608 502.722 467.267 502.116C466.926 501.511 466.453 501.038 465.848 500.697C465.251 500.348 464.556 500.173 463.764 500.173C462.937 500.173 462.204 500.365 461.565 500.749C460.934 501.124 460.44 501.631 460.082 502.27C459.724 502.901 459.541 503.604 459.532 504.379V507.588C459.532 508.56 459.711 509.399 460.069 510.107C460.436 510.814 460.951 511.359 461.616 511.743C462.281 512.126 463.069 512.318 463.981 512.318C464.586 512.318 465.14 512.233 465.643 512.062C466.146 511.892 466.576 511.636 466.934 511.295C467.292 510.955 467.565 510.537 467.752 510.043L472.789 510.375C472.534 511.585 472.01 512.642 471.217 513.545C470.433 514.44 469.419 515.139 468.174 515.642C466.939 516.136 465.511 516.384 463.892 516.384ZM483.694 516.32C482.203 516.32 480.852 515.936 479.642 515.169C478.44 514.393 477.485 513.256 476.778 511.756C476.079 510.247 475.73 508.398 475.73 506.207C475.73 503.957 476.092 502.087 476.816 500.595C477.541 499.095 478.504 497.974 479.706 497.233C480.916 496.483 482.241 496.108 483.681 496.108C484.781 496.108 485.697 496.295 486.43 496.67C487.172 497.037 487.768 497.497 488.22 498.051C488.68 498.597 489.029 499.134 489.268 499.662H489.434V489.818H494.868V516H489.498V512.855H489.268C489.012 513.401 488.65 513.942 488.181 514.479C487.721 515.007 487.12 515.446 486.379 515.795C485.646 516.145 484.751 516.32 483.694 516.32ZM485.42 511.986C486.298 511.986 487.039 511.747 487.645 511.27C488.258 510.784 488.727 510.107 489.051 509.237C489.383 508.368 489.549 507.349 489.549 506.182C489.549 505.014 489.387 504 489.064 503.139C488.74 502.278 488.271 501.614 487.657 501.145C487.044 500.676 486.298 500.442 485.42 500.442C484.525 500.442 483.771 500.685 483.157 501.17C482.544 501.656 482.079 502.33 481.764 503.19C481.449 504.051 481.291 505.048 481.291 506.182C481.291 507.324 481.449 508.334 481.764 509.212C482.088 510.081 482.552 510.763 483.157 511.257C483.771 511.743 484.525 511.986 485.42 511.986ZM511.938 507.639V496.364H517.384V516H512.155V512.433H511.95C511.507 513.584 510.77 514.509 509.739 515.207C508.716 515.906 507.467 516.256 505.993 516.256C504.68 516.256 503.526 515.957 502.528 515.361C501.531 514.764 500.751 513.916 500.189 512.817C499.635 511.717 499.354 510.401 499.345 508.866V496.364H504.791V507.895C504.8 509.054 505.111 509.97 505.724 510.643C506.338 511.317 507.161 511.653 508.192 511.653C508.848 511.653 509.462 511.504 510.033 511.206C510.604 510.899 511.064 510.447 511.413 509.851C511.771 509.254 511.946 508.517 511.938 507.639ZM527.339 516.371C526.086 516.371 524.97 516.153 523.99 515.719C523.01 515.276 522.234 514.624 521.663 513.763C521.1 512.893 520.819 511.811 520.819 510.516C520.819 509.425 521.02 508.509 521.42 507.767C521.821 507.026 522.366 506.429 523.056 505.977C523.747 505.526 524.531 505.185 525.409 504.955C526.295 504.724 527.224 504.562 528.196 504.469C529.338 504.349 530.258 504.239 530.957 504.136C531.656 504.026 532.163 503.864 532.478 503.651C532.794 503.437 532.951 503.122 532.951 502.705V502.628C532.951 501.818 532.696 501.192 532.184 500.749C531.681 500.305 530.966 500.084 530.037 500.084C529.056 500.084 528.277 500.301 527.697 500.736C527.118 501.162 526.734 501.699 526.547 502.347L521.51 501.938C521.765 500.744 522.268 499.713 523.018 498.844C523.768 497.966 524.735 497.293 525.92 496.824C527.113 496.347 528.494 496.108 530.062 496.108C531.153 496.108 532.197 496.236 533.194 496.491C534.2 496.747 535.091 497.143 535.866 497.68C536.65 498.217 537.268 498.908 537.72 499.751C538.172 500.587 538.397 501.588 538.397 502.756V516H533.233V513.277H533.079C532.764 513.891 532.342 514.432 531.814 514.901C531.285 515.361 530.65 515.723 529.909 515.987C529.167 516.243 528.311 516.371 527.339 516.371ZM528.899 512.612C529.7 512.612 530.407 512.455 531.021 512.139C531.635 511.815 532.116 511.381 532.466 510.835C532.815 510.29 532.99 509.672 532.99 508.982V506.898C532.819 507.009 532.585 507.111 532.287 507.205C531.997 507.29 531.669 507.371 531.302 507.447C530.936 507.516 530.569 507.58 530.203 507.639C529.836 507.69 529.504 507.737 529.206 507.78C528.566 507.874 528.008 508.023 527.531 508.227C527.054 508.432 526.683 508.709 526.419 509.058C526.154 509.399 526.022 509.825 526.022 510.337C526.022 511.078 526.291 511.645 526.828 512.037C527.373 512.42 528.064 512.612 528.899 512.612ZM551.495 516.384C549.483 516.384 547.753 515.957 546.304 515.105C544.864 514.244 543.756 513.051 542.98 511.526C542.213 510 541.83 508.244 541.83 506.259C541.83 504.247 542.218 502.483 542.993 500.966C543.777 499.44 544.89 498.251 546.33 497.399C547.77 496.538 549.483 496.108 551.469 496.108C553.182 496.108 554.682 496.419 555.969 497.041C557.256 497.663 558.275 498.537 559.025 499.662C559.775 500.787 560.188 502.108 560.265 503.625H555.125C554.98 502.645 554.597 501.857 553.975 501.26C553.361 500.655 552.556 500.352 551.559 500.352C550.715 500.352 549.978 500.582 549.347 501.043C548.725 501.494 548.239 502.155 547.89 503.024C547.54 503.893 547.365 504.946 547.365 506.182C547.365 507.435 547.536 508.5 547.877 509.378C548.226 510.256 548.716 510.925 549.347 511.385C549.978 511.845 550.715 512.075 551.559 512.075C552.181 512.075 552.739 511.947 553.233 511.692C553.736 511.436 554.15 511.065 554.473 510.58C554.806 510.085 555.023 509.493 555.125 508.803H560.265C560.179 510.303 559.77 511.624 559.037 512.766C558.313 513.899 557.311 514.786 556.033 515.425C554.755 516.064 553.242 516.384 551.495 516.384ZM574.196 496.364V500.455H562.371V496.364H574.196ZM565.055 491.659H570.501V509.966C570.501 510.469 570.578 510.861 570.732 511.142C570.885 511.415 571.098 511.607 571.371 511.717C571.652 511.828 571.976 511.884 572.342 511.884C572.598 511.884 572.854 511.862 573.109 511.82C573.365 511.768 573.561 511.73 573.697 511.705L574.554 515.757C574.281 515.842 573.898 515.94 573.403 516.051C572.909 516.17 572.308 516.243 571.601 516.268C570.288 516.32 569.138 516.145 568.149 515.744C567.169 515.344 566.406 514.722 565.861 513.878C565.315 513.034 565.047 511.969 565.055 510.682V491.659ZM577.744 516V496.364H583.19V516H577.744ZM580.479 493.832C579.67 493.832 578.975 493.564 578.396 493.027C577.825 492.482 577.539 491.83 577.539 491.071C577.539 490.321 577.825 489.678 578.396 489.141C578.975 488.595 579.67 488.322 580.479 488.322C581.289 488.322 581.979 488.595 582.55 489.141C583.13 489.678 583.42 490.321 583.42 491.071C583.42 491.83 583.13 492.482 582.55 493.027C581.979 493.564 581.289 493.832 580.479 493.832ZM605.859 496.364L598.994 516H592.858L585.993 496.364H591.745L595.824 510.413H596.028L600.093 496.364H605.859ZM613.718 516.371C612.465 516.371 611.349 516.153 610.369 515.719C609.388 515.276 608.613 514.624 608.042 513.763C607.479 512.893 607.198 511.811 607.198 510.516C607.198 509.425 607.398 508.509 607.799 507.767C608.2 507.026 608.745 506.429 609.435 505.977C610.126 505.526 610.91 505.185 611.788 504.955C612.674 504.724 613.603 504.562 614.575 504.469C615.717 504.349 616.637 504.239 617.336 504.136C618.035 504.026 618.542 503.864 618.857 503.651C619.173 503.437 619.33 503.122 619.33 502.705V502.628C619.33 501.818 619.075 501.192 618.563 500.749C618.06 500.305 617.344 500.084 616.415 500.084C615.435 500.084 614.656 500.301 614.076 500.736C613.496 501.162 613.113 501.699 612.925 502.347L607.888 501.938C608.144 500.744 608.647 499.713 609.397 498.844C610.147 497.966 611.114 497.293 612.299 496.824C613.492 496.347 614.873 496.108 616.441 496.108C617.532 496.108 618.576 496.236 619.573 496.491C620.579 496.747 621.469 497.143 622.245 497.68C623.029 498.217 623.647 498.908 624.099 499.751C624.55 500.587 624.776 501.588 624.776 502.756V516H619.612V513.277H619.458C619.143 513.891 618.721 514.432 618.192 514.901C617.664 515.361 617.029 515.723 616.288 515.987C615.546 516.243 614.69 516.371 613.718 516.371ZM615.278 512.612C616.079 512.612 616.786 512.455 617.4 512.139C618.013 511.815 618.495 511.381 618.844 510.835C619.194 510.29 619.369 509.672 619.369 508.982V506.898C619.198 507.009 618.964 507.111 618.665 507.205C618.376 507.29 618.048 507.371 617.681 507.447C617.315 507.516 616.948 507.58 616.582 507.639C616.215 507.69 615.883 507.737 615.585 507.78C614.945 507.874 614.387 508.023 613.91 508.227C613.433 508.432 613.062 508.709 612.798 509.058C612.533 509.399 612.401 509.825 612.401 510.337C612.401 511.078 612.67 511.645 613.207 512.037C613.752 512.42 614.442 512.612 615.278 512.612Z" fill="#F5F5F5"/>
<path d="M42.1364 410C41.9545 407.727 41.1023 405.955 39.5795 404.682C38.0795 403.409 35.7955 402.773 32.7273 402.773C30.7727 402.773 29.1705 403.011 27.9205 403.489C26.6932 403.943 25.7841 404.568 25.1932 405.364C24.6023 406.159 24.2955 407.068 24.2727 408.091C24.2273 408.932 24.375 409.693 24.7159 410.375C25.0795 411.034 25.6477 411.636 26.4205 412.182C27.1932 412.705 28.1818 413.182 29.3864 413.614C30.5909 414.045 32.0227 414.432 33.6818 414.773L39.4091 416C43.2727 416.818 46.5795 417.898 49.3295 419.239C52.0795 420.58 54.3295 422.159 56.0795 423.977C57.8295 425.773 59.1136 427.795 59.9318 430.045C60.7727 432.295 61.2045 434.75 61.2273 437.409C61.2045 442 60.0568 445.886 57.7841 449.068C55.5114 452.25 52.2614 454.67 48.0341 456.33C43.8295 457.989 38.7727 458.818 32.8636 458.818C26.7955 458.818 21.5 457.92 16.9773 456.125C12.4773 454.33 8.97727 451.568 6.47727 447.841C4 444.091 2.75 439.295 2.72727 433.455H20.7273C20.8409 435.591 21.375 437.386 22.3295 438.841C23.2841 440.295 24.625 441.398 26.3523 442.148C28.1023 442.898 30.1818 443.273 32.5909 443.273C34.6136 443.273 36.3068 443.023 37.6705 442.523C39.0341 442.023 40.0682 441.33 40.7727 440.443C41.4773 439.557 41.8409 438.545 41.8636 437.409C41.8409 436.341 41.4886 435.409 40.8068 434.614C40.1477 433.795 39.0568 433.068 37.5341 432.432C36.0114 431.773 33.9545 431.159 31.3636 430.591L24.4091 429.091C18.2273 427.75 13.3523 425.511 9.78409 422.375C6.23864 419.216 4.47727 414.909 4.5 409.455C4.47727 405.023 5.65909 401.148 8.04545 397.83C10.4545 394.489 13.7841 391.886 18.0341 390.023C22.3068 388.159 27.2045 387.227 32.7273 387.227C38.3636 387.227 43.2386 388.17 47.3523 390.057C51.4659 391.943 54.6364 394.602 56.8636 398.034C59.1136 401.443 60.25 405.432 60.2727 410H42.1364ZM68.4375 388.182H92.0284L108.256 427.727H109.074L125.301 388.182H148.892V458H130.347V417.636H129.801L114.256 457.455H103.074L87.5284 417.364H86.983V458H68.4375V388.182ZM176.011 458H155.557L178.602 388.182H204.511L227.557 458H207.102L191.83 407.409H191.284L176.011 458ZM172.193 430.455H210.648V444.636H172.193V430.455ZM234.281 458V388.182H264.418C269.599 388.182 274.134 389.125 278.02 391.011C281.906 392.898 284.929 395.614 287.088 399.159C289.247 402.705 290.327 406.955 290.327 411.909C290.327 416.909 289.213 421.125 286.986 424.557C284.781 427.989 281.679 430.58 277.679 432.33C273.702 434.08 269.054 434.955 263.736 434.955H245.736V420.227H259.918C262.145 420.227 264.043 419.955 265.611 419.409C267.202 418.841 268.418 417.943 269.259 416.716C270.122 415.489 270.554 413.886 270.554 411.909C270.554 409.909 270.122 408.284 269.259 407.034C268.418 405.761 267.202 404.83 265.611 404.239C264.043 403.625 262.145 403.318 259.918 403.318H253.236V458H234.281ZM275.19 425.955L292.645 458H272.054L255.009 425.955H275.19ZM296.497 403.455V388.182H357.179V403.455H336.179V458H317.497V403.455H296.497ZM364.312 458V388.182H383.267V442.727H411.494V458H364.312ZM419.156 458V388.182H469.474V403.455H438.111V415.455H466.884V430.727H438.111V442.727H469.338V458H419.156ZM497.011 458H476.557L499.602 388.182H525.511L548.557 458H528.102L512.83 407.409H512.284L497.011 458ZM493.193 430.455H531.648V444.636H493.193V430.455ZM555.281 458V388.182H585.418C590.599 388.182 595.134 389.125 599.02 391.011C602.906 392.898 605.929 395.614 608.088 399.159C610.247 402.705 611.327 406.955 611.327 411.909C611.327 416.909 610.213 421.125 607.986 424.557C605.781 427.989 602.679 430.58 598.679 432.33C594.702 434.08 590.054 434.955 584.736 434.955H566.736V420.227H580.918C583.145 420.227 585.043 419.955 586.611 419.409C588.202 418.841 589.418 417.943 590.259 416.716C591.122 415.489 591.554 413.886 591.554 411.909C591.554 409.909 591.122 408.284 590.259 407.034C589.418 405.761 588.202 404.83 586.611 404.239C585.043 403.625 583.145 403.318 580.918 403.318H574.236V458H555.281ZM596.19 425.955L613.645 458H593.054L576.009 425.955H596.19ZM679.815 388.182V458H663.997L638.77 421.318H638.361V458H619.406V388.182H635.497L660.315 424.727H660.861V388.182H679.815Z" fill="white"/>
<path d="M102.347 234.145L313.425 357.245C322.327 362.441 332.45 365.179 342.758 365.179C353.066 365.179 363.189 362.441 372.091 357.245L583.039 234.145C586.789 231.943 589.899 228.798 592.059 225.024C594.22 221.25 595.356 216.976 595.356 212.627C595.356 208.278 594.22 204.005 592.059 200.231C589.899 196.456 586.789 193.312 583.039 191.11L371.961 67.9666C363.059 62.7704 352.936 60.0322 342.628 60.0322C332.32 60.0322 322.197 62.7704 313.295 67.9666L102.282 191.088C98.5355 193.299 95.4316 196.45 93.2774 200.229C91.1232 204.009 89.9935 208.285 90 212.635C90.0066 216.985 91.1492 221.258 93.3148 225.031C95.4804 228.804 98.5939 231.945 102.347 234.145Z" fill="#112B46"/>
<path d="M102.345 174.091L313.423 297.213C322.326 302.409 332.448 305.147 342.756 305.147C353.064 305.147 363.187 302.409 372.09 297.213L583.103 174.091C586.853 171.889 589.962 168.745 592.123 164.97C594.283 161.196 595.42 156.922 595.42 152.574C595.42 148.225 594.283 143.951 592.123 140.177C589.962 136.402 586.853 133.258 583.103 131.056L371.96 7.93437C363.057 2.73816 352.934 0 342.626 0C332.318 0 322.195 2.73816 313.293 7.93437L102.28 131.056C98.5387 133.268 95.4394 136.419 93.2887 140.196C91.1379 143.973 90.0101 148.246 90.0166 152.592C90.0232 156.939 91.164 161.208 93.3261 164.979C95.4883 168.749 98.5971 171.89 102.345 174.091Z" fill="url(#paint0_linear_75_3)"/>
<mask id="mask0_75_3" style="mask-type:luminance" maskUnits="userSpaceOnUse" x="90" y="0" width="506" height="306">
<path d="M102.345 174.091L313.423 297.213C322.326 302.409 332.448 305.147 342.756 305.147C353.064 305.147 363.187 302.409 372.09 297.213L583.103 174.091C586.853 171.889 589.962 168.745 592.123 164.97C594.283 161.196 595.42 156.922 595.42 152.574C595.42 148.225 594.283 143.951 592.123 140.177C589.962 136.402 586.853 133.258 583.103 131.056L371.96 7.93437C363.057 2.73816 352.934 0 342.626 0C332.318 0 322.195 2.73816 313.293 7.93437L102.28 131.056C98.5387 133.268 95.4394 136.419 93.2887 140.196C91.1379 143.973 90.0101 148.246 90.0166 152.592C90.0232 156.939 91.164 161.208 93.3261 164.979C95.4883 168.749 98.5971 171.89 102.345 174.091Z" fill="white"/>
</mask>
<g mask="url(#mask0_75_3)">
<path d="M101.975 181.202C101.328 181.197 100.693 181.022 100.133 180.694C99.5742 180.367 99.1105 179.899 98.7885 179.337C98.3034 178.481 98.1725 177.468 98.4236 176.516C98.6748 175.564 99.2881 174.748 100.133 174.242L197.693 117.375C198.113 117.132 198.576 116.974 199.057 116.911C199.537 116.848 200.026 116.881 200.494 117.008C200.961 117.135 201.399 117.354 201.782 117.651C202.165 117.949 202.485 118.319 202.723 118.741C203.208 119.598 203.339 120.61 203.088 121.562C202.837 122.514 202.224 123.33 201.379 123.836L103.818 180.703C103.257 181.024 102.622 181.195 101.975 181.202Z" fill="#F9FBFC"/>
<path d="M143.798 202.794C143.188 202.795 142.589 202.632 142.064 202.323C141.538 202.014 141.104 201.571 140.806 201.038C140.347 200.238 140.222 199.288 140.457 198.396C140.692 197.503 141.269 196.739 142.064 196.269L298.616 104.93C299.009 104.699 299.445 104.548 299.897 104.488C300.349 104.427 300.808 104.457 301.248 104.576C301.689 104.695 302.101 104.901 302.46 105.181C302.82 105.462 303.12 105.811 303.343 106.209C303.802 107.01 303.927 107.959 303.692 108.852C303.457 109.745 302.879 110.509 302.085 110.979L145.533 202.318C145.007 202.628 144.409 202.793 143.798 202.794Z" fill="#F9FBFC"/>
<path d="M293.044 300.573C292.279 300.567 291.538 300.31 290.933 299.842C290.329 299.374 289.895 298.72 289.698 297.982C289.501 297.243 289.552 296.46 289.843 295.753C290.134 295.046 290.649 294.454 291.309 294.069L449.575 201.798C449.966 201.566 450.401 201.414 450.852 201.352C451.303 201.289 451.762 201.317 452.202 201.434C452.642 201.552 453.054 201.755 453.415 202.034C453.775 202.312 454.076 202.659 454.301 203.055C454.761 203.859 454.887 204.812 454.652 205.708C454.417 206.604 453.839 207.372 453.043 207.847L294.778 300.117C294.253 300.427 293.653 300.584 293.044 300.573Z" fill="#F9FBFC"/>
<path d="M254.149 277.049C253.539 277.047 252.941 276.884 252.416 276.575C251.89 276.267 251.456 275.824 251.157 275.293C250.698 274.493 250.572 273.543 250.807 272.651C251.043 271.758 251.62 270.994 252.414 270.524L383.731 193.928V149.722C383.728 149.111 383.884 148.509 384.184 147.977C384.485 147.445 384.919 147 385.444 146.687L449.487 109.332C449.881 109.103 450.316 108.955 450.767 108.896C451.219 108.837 451.677 108.867 452.117 108.986C452.556 109.105 452.968 109.31 453.328 109.589C453.687 109.868 453.988 110.215 454.213 110.611C454.673 111.412 454.798 112.361 454.563 113.254C454.327 114.146 453.75 114.91 452.956 115.381L390.647 151.76V195.966C390.647 196.576 390.486 197.175 390.182 197.704C389.877 198.232 389.44 198.672 388.913 198.979L255.883 276.594C255.357 276.899 254.757 277.056 254.149 277.049Z" fill="#F9FBFC"/>
<path d="M175.668 230.415C175.059 230.415 174.46 230.253 173.934 229.944C173.408 229.635 172.974 229.192 172.676 228.659C172.211 227.86 172.083 226.908 172.318 226.014C172.554 225.12 173.135 224.356 173.934 223.889L352.709 119.586V75.7272C352.671 75.2501 352.732 74.7703 352.889 74.318C353.045 73.8658 353.294 73.4508 353.619 73.0992C353.943 72.7477 354.337 72.4672 354.776 72.2753C355.214 72.0834 355.688 71.9844 356.167 71.9844C356.645 71.9844 357.119 72.0834 357.557 72.2753C357.996 72.4672 358.39 72.7477 358.714 73.0992C359.039 73.4508 359.288 73.8658 359.444 74.318C359.601 74.7703 359.662 75.2501 359.624 75.7272V121.602C359.628 122.214 359.472 122.815 359.171 123.347C358.871 123.88 358.437 124.325 357.912 124.638L177.403 229.938C176.877 230.249 176.279 230.414 175.668 230.415Z" fill="#F9FBFC"/>
<path d="M213.694 254.394C213.083 254.398 212.482 254.239 211.953 253.934C211.423 253.63 210.984 253.19 210.681 252.659C210.451 252.262 210.303 251.824 210.243 251.369C210.183 250.915 210.213 250.453 210.332 250.01C210.451 249.567 210.656 249.151 210.935 248.788C211.214 248.424 211.563 248.119 211.96 247.89L321.77 183.803C322.163 183.572 322.598 183.422 323.05 183.361C323.502 183.3 323.962 183.33 324.402 183.449C324.842 183.568 325.254 183.774 325.614 184.054C325.973 184.335 326.273 184.684 326.496 185.082C326.955 185.883 327.081 186.833 326.846 187.725C326.61 188.618 326.033 189.382 325.239 189.852L215.407 253.939C214.885 254.235 214.295 254.392 213.694 254.394Z" fill="#F9FBFC"/>
<path d="M460.978 210.642C456.969 210.704 453.012 209.733 449.487 207.824C447.797 207.091 446.357 205.879 445.346 204.338C444.335 202.798 443.796 200.995 443.796 199.152C443.796 197.309 444.335 195.506 445.346 193.965C446.357 192.425 447.797 191.213 449.487 190.48C453.018 188.637 456.941 187.675 460.924 187.675C464.906 187.675 468.829 188.637 472.36 190.48C474.001 191.288 475.399 192.516 476.412 194.039C477.425 195.562 478.016 197.326 478.127 199.152C478.034 200.977 477.454 202.743 476.448 204.268C475.441 205.793 474.045 207.021 472.403 207.824C468.907 209.747 464.967 210.719 460.978 210.642ZM460.804 194.621C458.048 194.557 455.322 195.207 452.891 196.507C451.504 197.309 450.723 198.306 450.723 199.109C450.723 199.911 451.612 200.93 453.043 201.775C455.516 203.015 458.244 203.661 461.01 203.661C463.777 203.661 466.505 203.015 468.978 201.775C470.365 200.973 471.146 199.976 471.146 199.174C471.146 198.371 470.257 197.352 468.826 196.507C466.368 195.217 463.623 194.568 460.848 194.621H460.804Z" fill="#F9FBFC"/>
<path d="M333.326 192.692C329.315 192.754 325.356 191.775 321.836 189.852C320.137 189.126 318.689 187.917 317.672 186.375C316.654 184.834 316.111 183.027 316.111 181.18C316.111 179.332 316.654 177.526 317.672 175.984C318.689 174.442 320.137 173.234 321.836 172.508C325.362 170.665 329.282 169.703 333.261 169.703C337.24 169.703 341.16 170.665 344.687 172.508C346.385 173.234 347.833 174.442 348.851 175.984C349.869 177.526 350.411 179.332 350.411 181.18C350.411 183.027 349.869 184.834 348.851 186.375C347.833 187.917 346.385 189.126 344.687 189.852C341.209 191.765 337.295 192.744 333.326 192.692ZM333.153 176.67C330.4 176.613 327.677 177.254 325.24 178.535C323.852 179.359 323.072 180.356 323.072 181.136C323.072 181.917 323.961 182.979 325.391 183.803C327.863 185.048 330.592 185.696 333.359 185.696C336.126 185.696 338.855 185.048 341.326 183.803C342.714 182.979 343.494 181.982 343.494 181.201C343.494 180.421 342.606 179.38 341.175 178.535C338.706 177.232 335.943 176.59 333.153 176.67Z" fill="#F9FBFC"/>
<path d="M209.208 126.459C205.199 126.518 201.243 125.548 197.717 123.641C196.079 122.829 194.683 121.601 193.671 120.078C192.658 118.556 192.065 116.793 191.95 114.969C192.043 113.144 192.623 111.377 193.629 109.852C194.636 108.327 196.032 107.1 197.674 106.297C201.199 104.449 205.119 103.483 209.099 103.483C213.079 103.483 217 104.449 220.525 106.297C222.223 107.023 223.671 108.232 224.689 109.773C225.707 111.315 226.249 113.122 226.249 114.969C226.249 116.816 225.707 118.623 224.689 120.164C223.671 121.706 222.223 122.915 220.525 123.641C217.058 125.54 213.16 126.511 209.208 126.459ZM209.034 110.438C206.278 110.377 203.553 111.027 201.121 112.324C199.733 113.126 198.953 114.123 198.953 114.925C198.953 115.728 199.842 116.747 201.273 117.57C203.744 118.815 206.473 119.464 209.24 119.464C212.007 119.464 214.736 118.815 217.208 117.57C218.617 116.768 219.376 115.771 219.376 114.969C219.376 114.167 218.487 113.148 217.056 112.302C214.584 111.01 211.823 110.368 209.034 110.438Z" fill="#F9FBFC"/>
<path d="M310.106 113.819C306.094 113.884 302.135 112.905 298.615 110.979C296.917 110.253 295.469 109.044 294.451 107.503C293.433 105.961 292.891 104.154 292.891 102.307C292.891 100.46 293.433 98.6532 294.451 97.1116C295.469 95.5699 296.917 94.361 298.615 93.6351C302.142 91.7924 306.062 90.8301 310.041 90.8301C314.02 90.8301 317.94 91.7924 321.466 93.6351C323.165 94.361 324.613 95.5699 325.63 97.1116C326.648 98.6532 327.191 100.46 327.191 102.307C327.191 104.154 326.648 105.961 325.63 107.503C324.613 109.044 323.165 110.253 321.466 110.979C317.99 112.897 314.075 113.875 310.106 113.819ZM309.932 97.7976C307.179 97.7352 304.455 98.377 302.019 99.6621C300.61 100.486 299.743 101.483 299.743 102.264C299.743 103.044 300.653 104.107 302.062 104.93C304.539 106.17 307.271 106.816 310.041 106.816C312.81 106.816 315.542 106.17 318.019 104.93C319.406 104.107 320.187 103.109 320.187 102.329C320.187 101.548 319.298 100.508 317.867 99.6621C315.422 98.3797 312.692 97.7382 309.932 97.7976Z" fill="#F9FBFC"/>
<path d="M460.979 118.221C456.967 118.286 453.008 117.307 449.488 115.381C447.79 114.655 446.342 113.446 445.324 111.905C444.306 110.363 443.764 108.556 443.764 106.709C443.764 104.862 444.306 103.055 445.324 101.514C446.342 99.9718 447.79 98.763 449.488 98.037C453.019 96.1943 456.942 95.2319 460.925 95.2319C464.907 95.2319 468.83 96.1943 472.361 98.037C474.059 98.763 475.508 99.9718 476.525 101.514C477.543 103.055 478.085 104.862 478.085 106.709C478.085 108.556 477.543 110.363 476.525 111.905C475.508 113.446 474.059 114.655 472.361 115.381C468.879 117.302 464.955 118.281 460.979 118.221ZM452.892 104.064C451.504 104.888 450.724 105.885 450.724 106.666C450.724 107.446 451.613 108.509 453.044 109.332C455.515 110.577 458.244 111.225 461.011 111.225C463.779 111.225 466.507 110.577 468.979 109.332C470.366 108.509 471.147 107.533 471.147 106.731C471.147 105.929 470.258 104.91 468.827 104.064C466.355 102.819 463.627 102.171 460.859 102.171C458.092 102.171 455.363 102.819 452.892 104.064Z" fill="#F9FBFC"/>
<path d="M365.933 81.5809C361.923 81.6533 357.964 80.6821 354.443 78.7625C352.804 77.951 351.409 76.7222 350.396 75.1998C349.384 73.6774 348.791 71.9151 348.676 70.0904C348.769 68.2684 349.346 66.5042 350.349 64.9798C351.351 63.4554 352.742 62.226 354.378 61.4184C357.908 59.5756 361.832 58.6133 365.814 58.6133C369.796 58.6133 373.72 59.5756 377.25 61.4184C378.889 62.2299 380.284 63.4587 381.297 64.9811C382.309 66.5035 382.902 68.2657 383.017 70.0904C382.924 71.9153 382.344 73.6819 381.338 75.2069C380.331 76.7319 378.935 77.9596 377.294 78.7625C373.816 80.6723 369.9 81.6437 365.933 81.5809ZM357.846 67.4454C356.437 68.2476 355.678 69.2449 355.678 70.0471C355.678 70.8492 356.567 71.8682 357.998 72.7137C360.471 73.9535 363.199 74.5991 365.966 74.5991C368.732 74.5991 371.46 73.9535 373.933 72.7137C375.321 71.9116 376.101 70.9143 376.101 70.1121C376.101 69.3099 375.212 68.291 373.781 67.4454C371.308 66.2057 368.58 65.5601 365.814 65.5601C363.048 65.5601 360.319 66.2057 357.846 67.4454Z" fill="#F9FBFC"/>
</g>
<defs>
<linearGradient id="paint0_linear_75_3" x1="342.691" y1="6.98044" x2="342.691" y2="274.991" gradientUnits="userSpaceOnUse">
<stop stop-color="#3887FE"/>
<stop offset="1" stop-color="#8338EA"/>
</linearGradient>
</defs>
</svg>
