<svg width="198" height="128" viewBox="0 0 198 128" fill="none" xmlns="http://www.w3.org/2000/svg">
<path d="M59.2302 48.0882C67.8002 42.1882 73.5502 32.7782 73.5502 22.9482C73.5502 8.14822 60.5102 -1.98178 44.4202 0.328216L20.1602 3.80822L15.2802 4.50822L10.8402 5.14822C6.56019 5.50822 3.2002 8.98822 3.2002 13.7682L10.4002 21.4582V97.2582C10.4002 102.458 15.0102 106.448 20.1502 105.708L49.2802 101.528C65.3702 99.2182 78.4102 85.3482 78.4102 70.5382C78.4102 58.9482 70.4102 50.2182 59.2102 48.0882H59.2302Z" fill="#366FCC"/>
<path d="M48.83 77.3482C57.4 75.2582 63.15 68.3982 63.15 58.5682C63.15 43.7682 50.11 27.8482 34.02 23.0182L9.76 15.7382L9.69 15.7182C3.71 13.9182 4.5 5.74817 10.76 5.16817C10.8 5.16817 10.85 5.16817 10.89 5.15817V5.12817H8.36C3.74 5.12817 0 8.56818 0 12.8182V107.768C0 111.888 2.7 115.518 6.65 116.708L9.76 117.638L38.89 126.388C54.98 131.218 68.02 123.138 68.02 108.328C68.02 96.7382 60.02 84.4582 48.82 77.3582L48.83 77.3482Z" fill="white"/>
<path d="M106.479 42.348C106.376 41.3168 105.938 40.5156 105.162 39.9446C104.386 39.3736 103.334 39.0881 102.004 39.0881C101.101 39.0881 100.338 39.2159 99.7159 39.4716C99.0938 39.7188 98.6165 40.0639 98.2841 40.5071C97.9602 40.9503 97.7983 41.4531 97.7983 42.0156C97.7813 42.4844 97.8793 42.8935 98.0923 43.2429C98.3139 43.5923 98.6165 43.8949 99 44.1506C99.3835 44.3977 99.8267 44.6151 100.33 44.8026C100.832 44.9815 101.369 45.1349 101.94 45.2628L104.293 45.8253C105.435 46.081 106.483 46.4219 107.438 46.848C108.392 47.2741 109.219 47.7983 109.918 48.4205C110.616 49.0426 111.158 49.7756 111.541 50.6193C111.933 51.4631 112.134 52.4304 112.142 53.5213C112.134 55.1236 111.724 56.5128 110.915 57.6889C110.114 58.8565 108.955 59.7642 107.438 60.4119C105.929 61.0511 104.109 61.3707 101.979 61.3707C99.8651 61.3707 98.0241 61.0469 96.456 60.3991C94.8963 59.7514 93.6776 58.7926 92.7997 57.5227C91.9304 56.2443 91.4744 54.6634 91.4318 52.7798H96.7884C96.848 53.6577 97.0994 54.3906 97.5426 54.9787C97.9943 55.5582 98.5952 55.9972 99.3452 56.2955C100.104 56.5852 100.96 56.7301 101.915 56.7301C102.852 56.7301 103.666 56.5937 104.357 56.321C105.055 56.0483 105.597 55.669 105.98 55.1832C106.364 54.6974 106.555 54.1392 106.555 53.5085C106.555 52.9205 106.381 52.4261 106.031 52.0256C105.69 51.625 105.188 51.2841 104.523 51.0028C103.866 50.7216 103.061 50.4659 102.107 50.2358L99.2557 49.5199C97.0483 48.983 95.3054 48.1435 94.027 47.0014C92.7486 45.8594 92.1136 44.321 92.1222 42.3864C92.1136 40.8011 92.5355 39.4162 93.3878 38.2315C94.2486 37.0469 95.429 36.1222 96.929 35.4574C98.429 34.7926 100.134 34.4602 102.043 34.4602C103.986 34.4602 105.682 34.7926 107.131 35.4574C108.588 36.1222 109.722 37.0469 110.531 38.2315C111.341 39.4162 111.759 40.7884 111.784 42.348H106.479ZM115.763 61V41.3636H120.953V44.8281H121.184C121.593 43.6776 122.275 42.7699 123.229 42.1051C124.184 41.4403 125.326 41.108 126.655 41.108C128.002 41.108 129.148 41.4446 130.094 42.1179C131.04 42.7827 131.671 43.6861 131.986 44.8281H132.191C132.591 43.7031 133.316 42.804 134.364 42.1307C135.421 41.4489 136.669 41.108 138.11 41.108C139.942 41.108 141.429 41.6918 142.571 42.8594C143.722 44.0185 144.297 45.6634 144.297 47.794V61H138.864V48.8679C138.864 47.777 138.574 46.9588 137.995 46.4134C137.415 45.8679 136.691 45.5952 135.821 45.5952C134.833 45.5952 134.061 45.9105 133.507 46.5412C132.953 47.1634 132.676 47.9858 132.676 49.0085V61H127.397V48.7528C127.397 47.7898 127.12 47.0227 126.566 46.4517C126.02 45.8807 125.3 45.5952 124.405 45.5952C123.8 45.5952 123.255 45.7486 122.769 46.0554C122.292 46.3537 121.912 46.7756 121.631 47.321C121.35 47.858 121.209 48.4886 121.209 49.2131V61H115.763ZM154.199 61.3707C152.946 61.3707 151.829 61.1534 150.849 60.7188C149.869 60.2756 149.093 59.6236 148.522 58.7628C147.96 57.8935 147.679 56.8111 147.679 55.5156C147.679 54.4247 147.879 53.5085 148.279 52.767C148.68 52.0256 149.225 51.429 149.916 50.9773C150.606 50.5256 151.39 50.1847 152.268 49.9545C153.154 49.7244 154.083 49.5625 155.055 49.4688C156.197 49.3494 157.118 49.2386 157.816 49.1364C158.515 49.0256 159.022 48.8636 159.338 48.6506C159.653 48.4375 159.811 48.1222 159.811 47.7045V47.6278C159.811 46.8182 159.555 46.1918 159.044 45.7486C158.541 45.3054 157.825 45.0838 156.896 45.0838C155.916 45.0838 155.136 45.3011 154.556 45.7358C153.977 46.1619 153.593 46.6989 153.406 47.3466L148.369 46.9375C148.625 45.7443 149.127 44.7131 149.877 43.8438C150.627 42.9659 151.595 42.2926 152.779 41.8239C153.973 41.3466 155.353 41.108 156.922 41.108C158.012 41.108 159.056 41.2358 160.054 41.4915C161.059 41.7472 161.95 42.1435 162.725 42.6804C163.51 43.2173 164.127 43.9077 164.579 44.7514C165.031 45.5866 165.257 46.5881 165.257 47.7557V61H160.092V58.277H159.939C159.623 58.8906 159.201 59.4318 158.673 59.9006C158.145 60.3608 157.51 60.723 156.768 60.9872C156.027 61.2429 155.17 61.3707 154.199 61.3707ZM155.758 57.6122C156.559 57.6122 157.267 57.4545 157.88 57.1392C158.494 56.8153 158.975 56.3807 159.325 55.8352C159.674 55.2898 159.849 54.6719 159.849 53.9815V51.8977C159.679 52.0085 159.444 52.1108 159.146 52.2045C158.856 52.2898 158.528 52.3707 158.162 52.4474C157.795 52.5156 157.429 52.5795 157.062 52.6392C156.696 52.6903 156.363 52.7372 156.065 52.7798C155.426 52.8736 154.868 53.0227 154.39 53.2273C153.913 53.4318 153.542 53.7088 153.278 54.0582C153.014 54.3991 152.882 54.8253 152.882 55.3366C152.882 56.0781 153.15 56.6449 153.687 57.0369C154.233 57.4205 154.923 57.6122 155.758 57.6122ZM169.482 61V41.3636H174.762V44.7898H174.966C175.324 43.571 175.925 42.6506 176.769 42.0284C177.613 41.3977 178.584 41.0824 179.684 41.0824C179.956 41.0824 180.25 41.0994 180.566 41.1335C180.881 41.1676 181.158 41.2145 181.397 41.2741V46.1065C181.141 46.0298 180.787 45.9616 180.336 45.902C179.884 45.8423 179.471 45.8125 179.096 45.8125C178.294 45.8125 177.578 45.9872 176.948 46.3366C176.326 46.6776 175.831 47.1548 175.465 47.7685C175.107 48.3821 174.928 49.0895 174.928 49.8906V61H169.482ZM195.641 41.3636V45.4545H183.816V41.3636H195.641ZM186.501 36.6591H191.947V54.9659C191.947 55.4687 192.023 55.8608 192.177 56.142C192.33 56.4148 192.543 56.6065 192.816 56.7173C193.097 56.8281 193.421 56.8835 193.788 56.8835C194.043 56.8835 194.299 56.8622 194.555 56.8196C194.81 56.7685 195.006 56.7301 195.143 56.7045L195.999 60.7571C195.727 60.8423 195.343 60.9403 194.849 61.0511C194.354 61.1705 193.754 61.2429 193.046 61.2685C191.734 61.3196 190.583 61.1449 189.594 60.7443C188.614 60.3437 187.852 59.7216 187.306 58.8778C186.761 58.0341 186.492 56.9687 186.501 55.6818V36.6591Z" fill="white"/>
<path d="M96.2756 96V69.8182H101.811V91.4361H113.036V96H96.2756ZM125.548 96.3835C123.528 96.3835 121.789 95.9744 120.332 95.1562C118.883 94.3295 117.767 93.1619 116.983 91.6534C116.199 90.1364 115.806 88.3423 115.806 86.2713C115.806 84.2514 116.199 82.4787 116.983 80.9531C117.767 79.4276 118.87 78.2386 120.294 77.3864C121.725 76.5341 123.404 76.108 125.331 76.108C126.626 76.108 127.832 76.3168 128.949 76.7344C130.074 77.1435 131.054 77.7614 131.889 78.5881C132.733 79.4148 133.389 80.4545 133.858 81.7074C134.326 82.9517 134.561 84.4091 134.561 86.0795V87.5753H117.98V84.2003H129.434C129.434 83.4162 129.264 82.7216 128.923 82.1165C128.582 81.5114 128.109 81.0384 127.504 80.6974C126.907 80.348 126.213 80.1733 125.42 80.1733C124.593 80.1733 123.86 80.3651 123.221 80.7486C122.591 81.1236 122.096 81.6307 121.738 82.2699C121.38 82.9006 121.197 83.6037 121.189 84.3793V87.5881C121.189 88.5597 121.368 89.3991 121.725 90.1065C122.092 90.8139 122.608 91.3594 123.272 91.7429C123.937 92.1264 124.725 92.3182 125.637 92.3182C126.243 92.3182 126.797 92.233 127.299 92.0625C127.802 91.892 128.233 91.6364 128.591 91.2955C128.949 90.9545 129.221 90.5369 129.409 90.0426L134.446 90.375C134.19 91.5852 133.666 92.642 132.873 93.5455C132.089 94.4403 131.075 95.1392 129.831 95.642C128.595 96.1364 127.167 96.3835 125.548 96.3835ZM143.714 96.3707C142.461 96.3707 141.345 96.1534 140.365 95.7188C139.385 95.2756 138.609 94.6236 138.038 93.7628C137.475 92.8935 137.194 91.8111 137.194 90.5156C137.194 89.4247 137.395 88.5085 137.795 87.767C138.196 87.0256 138.741 86.429 139.431 85.9773C140.122 85.5256 140.906 85.1847 141.784 84.9545C142.67 84.7244 143.599 84.5625 144.571 84.4688C145.713 84.3494 146.633 84.2386 147.332 84.1364C148.031 84.0256 148.538 83.8636 148.853 83.6506C149.169 83.4375 149.326 83.1222 149.326 82.7045V82.6278C149.326 81.8182 149.071 81.1918 148.559 80.7486C148.056 80.3054 147.341 80.0838 146.412 80.0838C145.431 80.0838 144.652 80.3011 144.072 80.7358C143.493 81.1619 143.109 81.6989 142.922 82.3466L137.885 81.9375C138.14 80.7443 138.643 79.7131 139.393 78.8438C140.143 77.9659 141.11 77.2926 142.295 76.8239C143.488 76.3466 144.869 76.108 146.437 76.108C147.528 76.108 148.572 76.2358 149.569 76.4915C150.575 76.7472 151.466 77.1435 152.241 77.6804C153.025 78.2173 153.643 78.9077 154.095 79.7514C154.547 80.5866 154.772 81.5881 154.772 82.7557V96H149.608V93.277H149.454C149.139 93.8906 148.717 94.4318 148.189 94.9006C147.66 95.3608 147.025 95.723 146.284 95.9872C145.542 96.2429 144.686 96.3707 143.714 96.3707ZM145.274 92.6122C146.075 92.6122 146.782 92.4545 147.396 92.1392C148.01 91.8153 148.491 91.3807 148.841 90.8352C149.19 90.2898 149.365 89.6719 149.365 88.9815V86.8977C149.194 87.0085 148.96 87.1108 148.662 87.2045C148.372 87.2898 148.044 87.3707 147.677 87.4474C147.311 87.5156 146.944 87.5795 146.578 87.6392C146.211 87.6903 145.879 87.7372 145.581 87.7798C144.941 87.8736 144.383 88.0227 143.906 88.2273C143.429 88.4318 143.058 88.7088 142.794 89.0582C142.529 89.3991 142.397 89.8253 142.397 90.3366C142.397 91.0781 142.666 91.6449 143.203 92.0369C143.748 92.4205 144.439 92.6122 145.274 92.6122ZM158.998 96V76.3636H164.277V79.7898H164.482C164.84 78.571 165.441 77.6506 166.284 77.0284C167.128 76.3977 168.1 76.0824 169.199 76.0824C169.472 76.0824 169.766 76.0994 170.081 76.1335C170.397 76.1676 170.674 76.2145 170.912 76.2741V81.1065C170.657 81.0298 170.303 80.9616 169.851 80.902C169.4 80.8423 168.986 80.8125 168.611 80.8125C167.81 80.8125 167.094 80.9872 166.463 81.3366C165.841 81.6776 165.347 82.1548 164.98 82.7685C164.623 83.3821 164.444 84.0895 164.444 84.8906V96H158.998ZM179.174 84.6477V96H173.728V76.3636H178.918V79.8281H179.148C179.583 78.6861 180.312 77.7827 181.335 77.1179C182.357 76.4446 183.597 76.108 185.055 76.108C186.418 76.108 187.607 76.4062 188.621 77.0028C189.636 77.5994 190.424 78.4517 190.987 79.5597C191.549 80.6591 191.83 81.9716 191.83 83.4972V96H186.384V84.4688C186.393 83.267 186.086 82.3295 185.464 81.6562C184.842 80.9744 183.985 80.6335 182.894 80.6335C182.161 80.6335 181.513 80.7912 180.951 81.1065C180.397 81.4219 179.962 81.8821 179.647 82.4872C179.34 83.0838 179.183 83.804 179.174 84.6477Z" fill="white"/>
</svg>
