<svg width="411" height="238" viewBox="0 0 411 238" fill="none" xmlns="http://www.w3.org/2000/svg">
<path d="M384.959 112.16C384.959 82.5599 361.839 58.3699 332.679 56.6299C330.549 46.7399 321.759 39.3299 311.229 39.3299C302.099 39.3299 294.279 44.8999 290.969 52.8299C283.539 48.6099 274.959 46.1999 265.809 46.1999C255.879 46.1999 246.619 49.0399 238.769 53.9499C232.189 45.5699 221.989 40.1699 210.509 40.1699C199.029 40.1699 188.319 45.8599 181.759 54.6099C175.749 52.1199 169.159 50.7399 162.239 50.7399C156.439 50.7399 150.879 51.7199 145.679 53.4999C139.979 41.1799 127.539 32.6199 113.079 32.6199C96.2491 32.6199 82.1591 44.2099 78.2491 59.8299C71.8191 56.9099 64.6791 55.2699 57.1591 55.2699C28.9491 55.2699 6.0791 78.1399 6.0791 106.35C6.0791 116.58 9.0991 126.09 14.2691 134.08C10.8491 140.94 8.9091 148.67 8.9091 156.85C8.9091 185.06 31.7791 207.93 59.9891 207.93C68.4391 207.93 76.3991 205.87 83.4191 202.24C90.0591 205.4 97.4991 207.18 105.349 207.18C121.379 207.18 135.679 199.79 145.049 188.23C152.849 193.05 162.029 195.84 171.869 195.84C182.879 195.84 193.059 192.35 201.399 186.43C210.769 197.81 224.959 205.06 240.849 205.06C258.839 205.06 274.649 195.75 283.749 181.7C293.119 192.94 307.219 200.1 322.999 200.1C351.209 200.1 374.079 177.23 374.079 149.02C374.079 147.8 374.019 146.59 373.939 145.4C380.849 136.13 384.939 124.63 384.939 112.18L384.959 112.16Z" fill="url(#paint0_radial_55_2616)"/>
<path d="M390.799 185.46L399.329 182.55C402.849 181.35 402.769 176.35 399.219 175.25L390.609 172.6C389.579 172.28 388.869 171.34 388.849 170.26L388.709 161.25C388.649 157.53 383.879 156.06 381.739 159.1L376.559 166.47C375.939 167.35 374.819 167.73 373.789 167.42L365.179 164.77C361.629 163.68 358.749 167.77 360.979 170.74L366.389 177.95C367.039 178.81 367.059 179.99 366.429 180.88L361.249 188.25C359.109 191.29 362.109 195.29 365.629 194.09L373.229 191.49C374.799 190.95 376.539 191.49 377.539 192.82L382.359 199.24C384.589 202.21 389.319 200.59 389.259 196.88L389.119 187.87C389.099 186.79 389.779 185.83 390.799 185.48V185.46Z" fill="url(#paint1_radial_55_2616)"/>
<path d="M31.1296 70.5198L39.6596 67.6098C43.1796 66.4098 43.0996 61.4098 39.5496 60.3098L30.9396 57.6598C29.9096 57.3398 29.1996 56.3998 29.1796 55.3198L29.0396 46.3098C28.9796 42.5898 24.2096 41.1198 22.0696 44.1598L16.8896 51.5298C16.2696 52.4098 15.1496 52.7898 14.1196 52.4798L5.50956 49.8298C1.95956 48.7398 -0.920437 52.8298 1.30956 55.7998L6.71956 63.0098C7.36956 63.8698 7.38956 65.0498 6.75956 65.9398L1.57956 73.3098C-0.560436 76.3498 2.43956 80.3498 5.95956 79.1498L13.5596 76.5498C15.1296 76.0098 16.8696 76.5498 17.8696 77.8798L22.6896 84.2998C24.9196 87.2698 29.6496 85.6598 29.5896 81.9398L29.4496 72.9298C29.4296 71.8498 30.1096 70.8898 31.1296 70.5398V70.5198Z" fill="url(#paint2_radial_55_2616)"/>
<g filter="url(#filter0_d_55_2616)">
<path d="M366.49 82.59C366.49 53.84 342.2 30.7701 313.02 32.7801C288.7 34.4601 268.87 53.9601 266.82 78.2501C265.62 92.4201 270.35 105.48 278.8 115.24C285.55 123.04 289.54 132.85 289.54 143.17V143.6C289.54 152.02 296.37 158.85 304.79 158.85H328.21C336.63 158.85 343.46 152.02 343.46 143.6V143.32C343.46 132.98 347.46 123.14 354.25 115.34C361.88 106.58 366.5 95.13 366.5 82.59H366.49Z" fill="url(#paint3_linear_55_2616)"/>
<path d="M333.121 121.423C354.55 112.274 364.505 87.4849 355.356 66.0555C346.206 44.626 321.417 34.6709 299.988 43.8202C278.559 52.9695 268.603 77.7585 277.753 99.188C286.902 120.617 311.691 130.572 333.121 121.423Z" fill="url(#paint4_linear_55_2616)"/>
<path d="M350.059 77.7099C350.059 87.6699 341.979 95.7499 332.019 95.7499C322.059 95.7499 313.979 87.6699 313.979 77.7099C313.979 67.7499 322.059 59.6699 332.019 59.6699C341.979 59.6699 350.059 67.7499 350.059 77.7099Z" fill="url(#paint5_linear_55_2616)"/>
<path d="M334.72 162C334.72 162 333.71 182.11 332.07 182.11H300.91C298.82 182.11 298.26 162 298.26 162H334.71H334.72Z" fill="url(#paint6_linear_55_2616)"/>
<path d="M336 165.39H296.99C294.75 165.39 292.93 163.57 292.93 161.33C292.93 159.09 294.75 157.27 296.99 157.27H336C338.24 157.27 340.06 159.09 340.06 161.33C340.06 163.58 338.24 165.39 336 165.39Z" fill="url(#paint7_linear_55_2616)"/>
<path d="M336 177.43H296.99C294.75 177.43 292.93 175.61 292.93 173.37C292.93 171.13 294.75 169.31 296.99 169.31H336C338.24 169.31 340.06 171.13 340.06 173.37C340.06 175.61 338.24 177.43 336 177.43Z" fill="url(#paint8_linear_55_2616)"/>
<path d="M332.069 182.1L328.089 186.73C327.359 187.58 326.299 188.06 325.189 188.06H308.069C306.949 188.06 305.889 187.57 305.169 186.73L301.189 182.1H332.069Z" fill="url(#paint9_linear_55_2616)"/>
</g>
<path d="M395.26 58.09L399.66 64.47C400.01 64.97 400.64 65.2 401.22 65.02L408.65 62.8C409.96 62.41 411 63.92 410.17 65.01L405.46 71.17C405.09 71.66 405.07 72.32 405.42 72.83L409.82 79.21C410.6 80.33 409.48 81.79 408.19 81.34L400.87 78.76C400.29 78.56 399.65 78.75 399.28 79.23L394.57 85.39C393.74 86.47 392.01 85.86 392.04 84.5L392.23 76.75C392.24 76.14 391.87 75.59 391.29 75.39L383.97 72.81C382.68 72.36 382.73 70.52 384.04 70.13L391.47 67.91C392.06 67.74 392.46 67.2 392.48 66.59L392.67 58.84C392.7 57.47 394.46 56.95 395.24 58.07L395.26 58.09Z" fill="url(#paint10_radial_55_2616)"/>
<path d="M59.5894 197.02L60.3594 204.74C60.4194 205.35 60.8694 205.85 61.4594 205.98L69.0394 207.63C70.3694 207.92 70.5594 209.75 69.3094 210.3L62.2094 213.42C61.6494 213.67 61.3094 214.24 61.3694 214.85L62.1394 222.57C62.2794 223.93 60.5894 224.67 59.6794 223.65L54.5194 217.86C54.1094 217.4 53.4594 217.26 52.8994 217.51L45.7994 220.63C44.5494 221.18 43.3294 219.81 44.0194 218.63L47.9294 211.93C48.2394 211.4 48.1694 210.74 47.7694 210.28L42.6094 204.49C41.6994 203.47 42.6294 201.88 43.9594 202.17L51.5394 203.82C52.1394 203.95 52.7494 203.68 53.0594 203.15L56.9694 196.45C57.6594 195.27 59.4494 195.66 59.5894 197.02Z" fill="url(#paint11_radial_55_2616)"/>
<path d="M163.24 210.7L169.3 215.54C169.78 215.92 170.45 215.95 170.96 215.62L177.44 211.36C178.58 210.61 180.02 211.76 179.53 213.04L176.79 220.3C176.57 220.87 176.75 221.52 177.23 221.9L183.29 226.74C184.36 227.59 183.71 229.31 182.34 229.25L174.59 228.89C173.98 228.86 173.42 229.23 173.21 229.8L170.47 237.06C169.99 238.34 168.15 238.25 167.79 236.94L165.74 229.46C165.58 228.87 165.06 228.45 164.45 228.42L156.7 228.06C155.34 228 154.85 226.22 155.99 225.47L162.47 221.21C162.98 220.87 163.22 220.25 163.05 219.66L161 212.18C160.64 210.86 162.17 209.85 163.24 210.71V210.7Z" fill="url(#paint12_radial_55_2616)"/>
<path d="M69.0795 15.9199L67.5495 23.5199C67.4295 24.1199 67.7095 24.7299 68.2395 25.0299L74.9995 28.8399C76.1895 29.5099 75.8295 31.3099 74.4695 31.4699L66.7695 32.3599C66.1595 32.4299 65.6695 32.8799 65.5495 33.4799L64.0195 41.0799C63.7495 42.4199 61.9195 42.6299 61.3595 41.3899L58.1295 34.3399C57.8795 33.7799 57.2895 33.4599 56.6895 33.5299L48.9895 34.4199C47.6295 34.5799 46.8695 32.9099 47.8695 31.9799L53.5795 26.7299C54.0295 26.3199 54.1595 25.6599 53.9095 25.1099L50.6795 18.0599C50.1095 16.8199 51.4595 15.5699 52.6495 16.2399L59.4095 20.0499C59.9395 20.3499 60.6095 20.2699 61.0595 19.8599L66.7695 14.6099C67.7795 13.6899 69.3795 14.5899 69.1095 15.9299L69.0795 15.9199Z" fill="url(#paint13_radial_55_2616)"/>
<path d="M286.69 218.61C286.69 221.68 284.2 224.18 281.12 224.18C278.04 224.18 275.55 221.69 275.55 218.61C275.55 215.53 278.04 213.04 281.12 213.04C284.2 213.04 286.69 215.53 286.69 218.61Z" fill="url(#paint14_linear_55_2616)"/>
<path d="M241.5 22.9199C241.5 26.9099 238.26 30.1499 234.27 30.1499C230.28 30.1499 227.04 26.9099 227.04 22.9199C227.04 18.9299 230.28 15.6899 234.27 15.6899C238.26 15.6899 241.5 18.9299 241.5 22.9199Z" fill="url(#paint15_linear_55_2616)"/>
<path d="M350.33 81.68C350.19 81.73 350.05 81.78 349.87 81.82C349.77 81.84 349.67 81.86 349.56 81.87C349.32 81.91 349.06 81.93 348.79 81.93C348.69 81.93 348.59 81.93 348.48 81.93C348.22 81.93 347.96 81.9 347.68 81.87C347.58 81.86 347.48 81.84 347.37 81.83C347.24 81.81 347.11 81.78 346.97 81.76C346.84 81.73 346.7 81.71 346.58 81.67C346.48 81.64 346.38 81.62 346.28 81.59C346.01 81.51 345.76 81.43 345.52 81.34C345.42 81.3 345.33 81.26 345.24 81.22C344.99 81.11 344.76 81 344.55 80.87C344.45 80.82 344.36 80.76 344.28 80.7C344.14 80.6 344.02 80.5 343.91 80.4L346.87 73.78L350.13 74.44L350.31 81.69L350.33 81.68Z" fill="url(#paint16_linear_55_2616)"/>
<g style="mix-blend-mode:multiply">
<path d="M347.92 73.9702L345.54 81.3302C345.44 81.2902 345.35 81.2502 345.26 81.2102L347.62 73.9102L347.92 73.9702Z" fill="#E89826"/>
<path d="M348.43 74.08L346.6 81.67C346.5 81.64 346.4 81.62 346.3 81.59L348.12 74.02L348.42 74.08H348.43Z" fill="#E89826"/>
<path d="M347.42 73.8701L344.57 80.8601C344.47 80.8101 344.38 80.7501 344.3 80.6901L347.11 73.8101L347.42 73.8701Z" fill="#E89826"/>
<path d="M347.69 81.8601C347.59 81.8501 347.49 81.8301 347.38 81.8201L348.63 74.1101L348.93 74.1701L347.69 81.8601Z" fill="#E89826"/>
<path d="M348.8 81.92C348.7 81.92 348.6 81.92 348.49 81.92L349.14 74.21L349.44 74.27L348.8 81.91V81.92Z" fill="#E89826"/>
<path d="M349.88 81.8101C349.78 81.8301 349.68 81.8501 349.57 81.8601L349.64 74.3201L349.95 74.3801L349.88 81.8101Z" fill="#E89826"/>
</g>
<path d="M286.96 12.9399L280.31 46.0199C279.2 51.5599 296.48 64.2599 320 68.9899C343.52 73.7199 364.37 68.6799 365.48 63.1399L372.13 30.0599L286.96 12.9399Z" fill="url(#paint17_linear_55_2616)"/>
<g style="mix-blend-mode:multiply">
<path d="M297.47 15.05L286.26 16.45L283.5 30.16L323.23 52.93L368.67 47.28L371.43 33.56L361.63 27.95L297.47 15.05Z" fill="#C0D0DA"/>
</g>
<path d="M333.78 0.429932L266.41 8.80994L325.31 42.5699L392.69 34.1899L333.78 0.429932Z" fill="url(#paint18_linear_55_2616)"/>
<path d="M392.2 36.6001L392.69 34.1901L325.31 42.5701L266.41 8.81006L265.92 11.2201L324.66 45.8001L392.2 36.6001Z" fill="url(#paint19_linear_55_2616)"/>
<path d="M351.129 69.5799L347.869 68.9199L346.899 73.7699C346.829 74.0999 347.509 74.5099 348.409 74.6899C349.309 74.8699 350.089 74.7499 350.159 74.4199L351.129 69.5699V69.5799Z" fill="url(#paint20_linear_55_2616)"/>
<path d="M351.13 69.58C351.06 69.91 350.28 70.03 349.38 69.85C348.48 69.67 347.8 69.26 347.87 68.93C347.94 68.6 348.72 68.48 349.62 68.66C350.52 68.84 351.2 69.25 351.13 69.58Z" fill="url(#paint21_linear_55_2616)"/>
<path d="M349.43 69.65C349.87 69.74 350.3 69.45 350.38 69.02L356.28 39.66C356.36 39.26 356.2 38.86 355.86 38.63L330 20.84C329.63 20.59 329.13 20.68 328.87 21.05C328.62 21.42 328.71 21.92 329.08 22.18L354.61 39.74L348.79 68.71C348.7 69.15 348.99 69.58 349.42 69.66L349.43 69.65Z" fill="url(#paint22_linear_55_2616)"/>
<path d="M335.1 22.6099C334.79 24.1699 332.05 24.9299 328.98 24.3099C325.92 23.6899 323.68 21.9299 324 20.3799C324.31 18.8199 327.05 18.0599 330.12 18.6799C333.18 19.2999 335.42 21.0599 335.1 22.6099Z" fill="url(#paint23_linear_55_2616)"/>
<path d="M57.368 155.632C58.088 155.632 58.68 155.72 59.144 155.896C59.608 156.072 59.984 156.304 60.272 156.592C60.56 156.864 60.776 157.168 60.92 157.504C61.08 157.84 61.2 158.168 61.28 158.488L59.264 159.424C59.2 159.28 59.128 159.112 59.048 158.92C58.968 158.728 58.864 158.544 58.736 158.368C58.608 158.176 58.432 158.024 58.208 157.912C58 157.784 57.72 157.72 57.368 157.72C57.048 157.72 56.744 157.776 56.456 157.888C56.184 157.984 55.944 158.12 55.736 158.296C55.528 158.472 55.36 158.68 55.232 158.92C55.12 159.16 55.064 159.424 55.064 159.712C55.064 160 55.096 160.256 55.16 160.48C55.24 160.704 55.344 160.904 55.472 161.08C55.616 161.256 55.776 161.416 55.952 161.56C56.128 161.704 56.328 161.856 56.552 162.016L58.472 163.432C59.048 163.864 59.544 164.392 59.96 165.016C60.376 165.64 60.584 166.424 60.584 167.368C60.584 168.184 60.408 168.904 60.056 169.528C59.72 170.136 59.272 170.656 58.712 171.088C58.152 171.504 57.512 171.816 56.792 172.024C56.088 172.232 55.36 172.336 54.608 172.336C54.016 172.336 53.472 172.288 52.976 172.192C52.48 172.096 52.024 171.984 51.608 171.856C51.208 171.712 50.84 171.56 50.504 171.4C50.184 171.24 49.896 171.088 49.64 170.944L50.84 168.832C51.384 169.152 51.96 169.464 52.568 169.768C53.192 170.072 53.84 170.224 54.512 170.224C55.408 170.224 56.128 170.024 56.672 169.624C57.232 169.208 57.512 168.568 57.512 167.704C57.512 167.144 57.384 166.688 57.128 166.336C56.872 165.984 56.496 165.624 56 165.256L54.2 163.912C53.496 163.4 52.944 162.864 52.544 162.304C52.16 161.744 51.968 160.992 51.968 160.048C51.968 159.344 52.104 158.72 52.376 158.176C52.648 157.632 53.024 157.176 53.504 156.808C54 156.424 54.576 156.136 55.232 155.944C55.888 155.736 56.6 155.632 57.368 155.632ZM68.9473 159.952C69.7153 159.952 70.3553 160.064 70.8673 160.288C71.3793 160.512 71.7873 160.816 72.0913 161.2C72.4113 161.568 72.6353 161.992 72.7633 162.472C72.8913 162.952 72.9553 163.448 72.9553 163.96C72.9553 165.112 72.8033 166.192 72.4993 167.2C72.2113 168.208 71.7873 169.088 71.2273 169.84C70.6673 170.592 69.9633 171.184 69.1153 171.616C68.2833 172.048 67.3313 172.264 66.2593 172.264C65.5073 172.264 64.8753 172.152 64.3633 171.928C63.8513 171.704 63.4353 171.408 63.1152 171.04C62.8113 170.656 62.5873 170.224 62.4433 169.744C62.3153 169.264 62.2513 168.768 62.2513 168.256C62.2513 167.12 62.3953 166.048 62.6833 165.04C62.9873 164.032 63.4193 163.152 63.9793 162.4C64.5553 161.648 65.2593 161.056 66.0913 160.624C66.9233 160.176 67.8753 159.952 68.9473 159.952ZM68.3953 161.8C67.8673 161.8 67.3953 162.024 66.9793 162.472C66.5793 162.904 66.2353 163.456 65.9473 164.128C65.6753 164.784 65.4673 165.496 65.3233 166.264C65.1793 167.032 65.1073 167.752 65.1073 168.424C65.1073 169.176 65.2593 169.696 65.5633 169.984C65.8673 170.272 66.2833 170.416 66.8113 170.416C67.3393 170.416 67.8033 170.2 68.2033 169.768C68.6193 169.32 68.9633 168.768 69.2353 168.112C69.5233 167.44 69.7393 166.72 69.8833 165.952C70.0273 165.168 70.0993 164.448 70.0993 163.792C70.0993 163.04 69.9473 162.52 69.6433 162.232C69.3393 161.944 68.9233 161.8 68.3953 161.8ZM82.0239 157.84C81.9439 157.536 81.8159 157.256 81.6399 157C81.4799 156.744 81.2079 156.616 80.8239 156.616C80.3279 156.616 79.9359 156.768 79.6479 157.072C79.3759 157.36 79.2399 157.8 79.2399 158.392C79.2399 158.616 79.2559 158.896 79.2879 159.232C79.3359 159.568 79.4079 159.904 79.5039 160.24H82.3119L81.9999 162.184H79.2879L77.4879 171.4C77.3119 172.28 77.0639 173.016 76.7439 173.608C76.4239 174.216 76.0399 174.736 75.5919 175.168C75.1439 175.616 74.6319 176.008 74.0559 176.344C73.4959 176.68 72.8799 177.016 72.2079 177.352L71.2719 175.528C71.7999 175.288 72.2639 175.048 72.6639 174.808C73.0479 174.568 73.3839 174.304 73.6719 174.016C73.9599 173.728 74.1999 173.392 74.3919 173.008C74.5839 172.64 74.7279 172.2 74.8239 171.688L76.6719 162.184H74.5839V160.24H77.2479C77.0399 159.936 76.8959 159.6 76.8159 159.232C76.7519 158.848 76.7199 158.496 76.7199 158.176C76.7199 157.6 76.8399 157.096 77.0799 156.664C77.3199 156.216 77.6399 155.848 78.0399 155.56C78.4399 155.256 78.9039 155.032 79.4319 154.888C79.9759 154.744 80.5439 154.672 81.1359 154.672C82.0159 154.672 82.6639 154.888 83.0799 155.32C83.5119 155.752 83.8239 156.304 84.0159 156.976L82.0239 157.84ZM81.8563 160.24H84.2563L85.3123 157.24L87.5923 156.736L86.8963 160.24H89.5843L89.2483 162.184H86.5123L85.1683 169.264C85.1523 169.344 85.1363 169.416 85.1203 169.48C85.1203 169.528 85.1203 169.576 85.1203 169.624C85.1203 169.848 85.1843 170.008 85.3123 170.104C85.4403 170.184 85.6803 170.224 86.0323 170.224C86.2563 170.224 86.4803 170.208 86.7043 170.176C86.9443 170.128 87.1683 170.08 87.3763 170.032C87.6163 169.968 87.8483 169.896 88.0723 169.816V171.616C87.8003 171.728 87.5043 171.824 87.1843 171.904C86.9123 171.984 86.5843 172.048 86.2003 172.096C85.8323 172.16 85.4403 172.192 85.0243 172.192C84.0643 172.192 83.3763 172.024 82.9603 171.688C82.5603 171.336 82.3603 170.832 82.3603 170.176C82.3603 169.968 82.3843 169.744 82.4323 169.504L83.8963 162.184H81.8563V160.24ZM106.445 160.072C106.605 160.424 106.717 160.824 106.781 161.272C106.845 161.704 106.877 162.112 106.877 162.496C106.877 163.264 106.797 164.048 106.637 164.848C106.477 165.632 106.253 166.392 105.965 167.128C105.677 167.848 105.317 168.52 104.885 169.144C104.469 169.768 103.997 170.304 103.469 170.752C102.861 171.264 102.237 171.632 101.597 171.856C100.957 172.08 100.189 172.192 99.2926 172.192C98.6526 172.192 98.1246 172.064 97.7086 171.808C97.3086 171.536 97.0046 171.208 96.7966 170.824C96.3486 171.192 95.8606 171.512 95.3326 171.784C94.8046 172.056 94.1566 172.192 93.3886 172.192C92.3806 172.192 91.5966 171.976 91.0366 171.544C90.4926 171.112 90.2206 170.416 90.2206 169.456C90.2206 169.344 90.2286 169.2 90.2446 169.024C90.2606 168.832 90.2766 168.64 90.2926 168.448C90.3246 168.256 90.3486 168.072 90.3646 167.896C90.3966 167.72 90.4206 167.576 90.4366 167.464L91.8286 160.24H94.4446L93.0766 167.392C93.0606 167.472 93.0446 167.584 93.0286 167.728C93.0126 167.856 92.9966 167.992 92.9806 168.136C92.9646 168.28 92.9486 168.416 92.9326 168.544C92.9166 168.672 92.9086 168.768 92.9086 168.832C92.9086 169.28 93.0206 169.64 93.2446 169.912C93.4686 170.184 93.7966 170.32 94.2286 170.32C94.7726 170.32 95.2686 170.056 95.7166 169.528C96.1646 169 96.5486 168.344 96.8686 167.56C97.1886 166.76 97.4286 165.896 97.5886 164.968C97.7646 164.024 97.8526 163.144 97.8526 162.328C97.8526 162.12 97.8366 161.832 97.8046 161.464C97.7886 161.096 97.7566 160.824 97.7086 160.648L100.013 160.072C100.189 160.424 100.309 160.824 100.373 161.272C100.437 161.704 100.469 162.112 100.469 162.496C100.469 163.632 100.309 164.752 99.9886 165.856C99.6846 166.944 99.2446 167.936 98.6686 168.832C98.6526 169.28 98.7566 169.64 98.9806 169.912C99.2206 170.184 99.5486 170.32 99.9646 170.32C100.509 170.32 101.037 170.056 101.549 169.528C102.077 169 102.541 168.344 102.941 167.56C103.357 166.76 103.685 165.896 103.925 164.968C104.165 164.024 104.285 163.144 104.285 162.328C104.285 162.12 104.269 161.832 104.237 161.464C104.221 161.096 104.189 160.824 104.141 160.648L106.445 160.072ZM112.292 170.224C112.692 170.224 113.092 170 113.492 169.552C113.892 169.104 114.26 168.56 114.596 167.92C114.932 167.264 115.22 166.568 115.46 165.832C115.716 165.08 115.908 164.4 116.036 163.792L116.372 162.136C116.18 162.04 115.956 161.976 115.7 161.944C115.46 161.912 115.228 161.896 115.004 161.896C114.284 161.896 113.668 162.104 113.156 162.52C112.66 162.92 112.252 163.44 111.932 164.08C111.628 164.704 111.404 165.4 111.26 166.168C111.132 166.92 111.068 167.64 111.068 168.328C111.068 169.032 111.164 169.528 111.356 169.816C111.564 170.088 111.876 170.224 112.292 170.224ZM111.404 172.192C110.828 172.192 110.34 172.08 109.94 171.856C109.54 171.632 109.212 171.336 108.956 170.968C108.7 170.584 108.508 170.16 108.38 169.696C108.268 169.216 108.212 168.728 108.212 168.232C108.212 167.096 108.356 166.032 108.644 165.04C108.948 164.048 109.388 163.184 109.964 162.448C110.54 161.696 111.244 161.112 112.076 160.696C112.908 160.264 113.868 160.048 114.956 160.048C115.228 160.048 115.612 160.08 116.108 160.144C116.604 160.192 117.172 160.352 117.812 160.624L119.324 160.72L118.244 166.312C118.084 167.16 118.004 167.904 118.004 168.544C118.004 169.328 118.1 169.936 118.292 170.368C118.5 170.784 118.692 171.12 118.868 171.376L116.708 172.24C116.468 171.968 116.268 171.632 116.108 171.232C115.964 170.832 115.892 170.376 115.892 169.864C115.892 169.656 115.908 169.392 115.94 169.072C115.972 168.736 116.012 168.36 116.06 167.944L115.652 168.904C115.38 169.528 115.084 170.056 114.764 170.488C114.444 170.904 114.1 171.24 113.732 171.496C113.38 171.752 113.004 171.928 112.604 172.024C112.22 172.136 111.82 172.192 111.404 172.192ZM128.458 163.24C128.25 163.016 128.034 162.832 127.81 162.688C127.586 162.544 127.29 162.472 126.922 162.472C126.698 162.472 126.474 162.576 126.25 162.784C126.042 162.992 125.834 163.272 125.626 163.624C125.434 163.96 125.25 164.352 125.074 164.8C124.898 165.232 124.746 165.672 124.618 166.12L123.465 172H120.778L122.002 165.952C122.098 165.488 122.162 165.056 122.194 164.656C122.242 164.256 122.266 163.896 122.266 163.576C122.266 162.696 122.186 162.056 122.026 161.656C121.866 161.256 121.746 160.992 121.666 160.864L123.85 160C124.026 160.224 124.17 160.496 124.282 160.816C124.41 161.136 124.474 161.544 124.474 162.04C124.474 162.376 124.442 162.752 124.378 163.168C124.33 163.568 124.29 163.952 124.258 164.32C124.594 162.864 125.034 161.784 125.578 161.08C126.122 160.376 126.842 160.024 127.738 160.024C128.282 160.024 128.722 160.12 129.058 160.312C129.394 160.488 129.658 160.72 129.85 161.008L128.458 163.24ZM129.001 168.256C129.001 167.12 129.145 166.048 129.433 165.04C129.737 164.032 130.169 163.152 130.729 162.4C131.305 161.648 132.009 161.056 132.841 160.624C133.673 160.176 134.625 159.952 135.697 159.952C136.945 159.952 137.833 160.184 138.361 160.648C138.889 161.112 139.153 161.744 139.153 162.544C139.153 163.248 138.969 163.888 138.601 164.464C138.249 165.04 137.745 165.544 137.089 165.976C136.449 166.408 135.681 166.76 134.785 167.032C133.889 167.288 132.905 167.44 131.833 167.488C131.817 167.632 131.809 167.776 131.809 167.92C131.809 168.064 131.809 168.2 131.809 168.328C131.809 169.08 131.969 169.6 132.289 169.888C132.609 170.176 133.033 170.32 133.561 170.32C133.881 170.32 134.241 170.272 134.641 170.176C135.057 170.08 135.457 169.968 135.841 169.84C136.273 169.696 136.729 169.528 137.209 169.336L137.761 171.064C137.281 171.288 136.777 171.488 136.249 171.664C135.801 171.824 135.289 171.96 134.713 172.072C134.153 172.2 133.585 172.264 133.009 172.264C132.257 172.264 131.625 172.152 131.113 171.928C130.601 171.704 130.185 171.408 129.865 171.04C129.561 170.656 129.337 170.224 129.193 169.744C129.065 169.264 129.001 168.768 129.001 168.256ZM135.145 161.8C134.777 161.8 134.433 161.912 134.113 162.136C133.793 162.344 133.505 162.632 133.249 163C133.009 163.368 132.793 163.792 132.601 164.272C132.409 164.752 132.249 165.248 132.121 165.76C132.841 165.712 133.465 165.6 133.993 165.424C134.537 165.232 134.985 165 135.337 164.728C135.705 164.456 135.977 164.168 136.153 163.864C136.345 163.56 136.441 163.264 136.441 162.976C136.441 162.608 136.337 162.32 136.129 162.112C135.937 161.904 135.609 161.8 135.145 161.8ZM148.027 155.944H157.267L156.859 157.96H150.403L149.515 162.568H154.723L154.291 164.56H149.131L148.075 169.984H154.723V172H144.907L148.027 155.944ZM166.479 166.288C166.399 166.736 166.335 167.152 166.287 167.536C166.255 167.904 166.239 168.24 166.239 168.544C166.239 169.328 166.335 169.936 166.527 170.368C166.735 170.784 166.927 171.12 167.103 171.376L164.943 172.24C164.703 171.968 164.503 171.632 164.343 171.232C164.199 170.832 164.127 170.376 164.127 169.864C164.127 169.656 164.143 169.392 164.175 169.072C164.207 168.736 164.247 168.36 164.295 167.944L163.887 168.904C163.615 169.528 163.319 170.056 162.999 170.488C162.679 170.904 162.335 171.24 161.967 171.496C161.615 171.752 161.239 171.928 160.839 172.024C160.455 172.136 160.055 172.192 159.639 172.192C159.063 172.192 158.575 172.08 158.175 171.856C157.775 171.632 157.447 171.336 157.191 170.968C156.935 170.584 156.743 170.16 156.615 169.696C156.503 169.216 156.447 168.728 156.447 168.232C156.447 167.096 156.591 166.032 156.879 165.04C157.183 164.048 157.623 163.184 158.199 162.448C158.775 161.696 159.479 161.112 160.311 160.696C161.143 160.264 162.103 160.048 163.191 160.048C163.399 160.048 163.647 160.064 163.935 160.096C164.239 160.112 164.599 160.168 165.015 160.264L166.023 155.08L168.735 154.6L166.479 166.288ZM160.527 170.224C160.927 170.224 161.327 170 161.727 169.552C162.127 169.104 162.495 168.56 162.831 167.92C163.167 167.264 163.455 166.568 163.695 165.832C163.951 165.08 164.143 164.4 164.271 163.792L164.607 162.136C164.415 162.04 164.191 161.976 163.935 161.944C163.695 161.912 163.463 161.896 163.239 161.896C162.519 161.896 161.903 162.104 161.391 162.52C160.895 162.92 160.487 163.44 160.167 164.08C159.863 164.704 159.639 165.4 159.495 166.168C159.367 166.92 159.303 167.64 159.303 168.328C159.303 169.032 159.399 169.528 159.591 169.816C159.799 170.088 160.111 170.224 160.527 170.224ZM170.526 162.328C170.526 162.008 170.51 161.696 170.478 161.392C170.462 161.072 170.43 160.824 170.382 160.648L172.662 160.072C172.838 160.424 172.958 160.824 173.022 161.272C173.086 161.704 173.118 162.112 173.118 162.496C173.118 163.056 173.038 163.592 172.878 164.104C172.734 164.616 172.574 165.128 172.398 165.64C172.222 166.136 172.054 166.632 171.894 167.128C171.75 167.624 171.678 168.136 171.678 168.664C171.678 169.048 171.766 169.376 171.942 169.648C172.134 169.904 172.478 170.032 172.974 170.032C173.406 170.032 173.83 169.848 174.246 169.48C174.662 169.096 175.046 168.616 175.398 168.04C175.766 167.448 176.078 166.8 176.334 166.096C176.606 165.392 176.806 164.712 176.934 164.056L177.678 160.24H180.366L179.094 166.288C178.998 166.752 178.926 167.16 178.878 167.512C178.846 167.864 178.83 168.2 178.83 168.52C178.83 169.304 178.934 169.912 179.142 170.344C179.35 170.776 179.542 171.12 179.718 171.376L177.534 172.24C177.294 171.968 177.094 171.632 176.934 171.232C176.79 170.832 176.718 170.376 176.718 169.864C176.718 169.64 176.734 169.368 176.766 169.048C176.798 168.728 176.838 168.36 176.886 167.944L176.478 168.904C175.998 170.008 175.366 170.832 174.582 171.376C173.814 171.92 172.95 172.192 171.99 172.192C170.934 172.192 170.158 171.928 169.662 171.4C169.182 170.872 168.942 170.16 168.942 169.264C168.942 168.64 169.022 168.032 169.182 167.44C169.358 166.848 169.542 166.272 169.734 165.712C169.926 165.136 170.102 164.568 170.262 164.008C170.438 163.448 170.526 162.888 170.526 162.328ZM189.795 171.4C189.411 171.56 189.011 171.704 188.595 171.832C188.227 171.944 187.811 172.04 187.347 172.12C186.899 172.216 186.427 172.264 185.931 172.264C185.179 172.264 184.547 172.152 184.035 171.928C183.523 171.704 183.107 171.408 182.787 171.04C182.483 170.656 182.259 170.224 182.115 169.744C181.987 169.264 181.923 168.768 181.923 168.256C181.923 167.136 182.067 166.072 182.355 165.064C182.659 164.056 183.091 163.176 183.651 162.424C184.227 161.656 184.931 161.056 185.763 160.624C186.595 160.176 187.547 159.952 188.619 159.952C189.067 159.952 189.451 160.024 189.771 160.168C190.107 160.296 190.379 160.472 190.587 160.696C190.811 160.904 190.987 161.144 191.115 161.416C191.243 161.688 191.347 161.968 191.427 162.256L189.435 163.12C189.371 162.976 189.307 162.832 189.243 162.688C189.179 162.528 189.099 162.392 189.003 162.28C188.907 162.168 188.787 162.08 188.643 162.016C188.499 161.936 188.307 161.896 188.067 161.896C187.539 161.896 187.067 162.112 186.651 162.544C186.251 162.96 185.907 163.488 185.619 164.128C185.347 164.752 185.139 165.44 184.995 166.192C184.851 166.944 184.779 167.656 184.779 168.328C184.779 169.08 184.931 169.6 185.235 169.888C185.539 170.176 185.955 170.32 186.483 170.32C186.691 170.32 186.947 170.288 187.251 170.224C187.571 170.16 187.875 170.088 188.163 170.008C188.467 169.912 188.723 169.832 188.931 169.768L189.219 169.672L189.795 171.4ZM195.425 170.224C195.825 170.224 196.225 170 196.625 169.552C197.025 169.104 197.393 168.56 197.729 167.92C198.065 167.264 198.353 166.568 198.593 165.832C198.849 165.08 199.041 164.4 199.169 163.792L199.505 162.136C199.313 162.04 199.089 161.976 198.833 161.944C198.593 161.912 198.361 161.896 198.137 161.896C197.417 161.896 196.801 162.104 196.289 162.52C195.793 162.92 195.385 163.44 195.065 164.08C194.761 164.704 194.537 165.4 194.393 166.168C194.265 166.92 194.201 167.64 194.201 168.328C194.201 169.032 194.297 169.528 194.489 169.816C194.697 170.088 195.009 170.224 195.425 170.224ZM194.537 172.192C193.961 172.192 193.473 172.08 193.073 171.856C192.673 171.632 192.345 171.336 192.089 170.968C191.833 170.584 191.641 170.16 191.513 169.696C191.401 169.216 191.345 168.728 191.345 168.232C191.345 167.096 191.489 166.032 191.777 165.04C192.081 164.048 192.521 163.184 193.097 162.448C193.673 161.696 194.377 161.112 195.209 160.696C196.041 160.264 197.001 160.048 198.089 160.048C198.361 160.048 198.745 160.08 199.241 160.144C199.737 160.192 200.305 160.352 200.945 160.624L202.457 160.72L201.377 166.312C201.217 167.16 201.137 167.904 201.137 168.544C201.137 169.328 201.233 169.936 201.425 170.368C201.633 170.784 201.825 171.12 202.001 171.376L199.841 172.24C199.601 171.968 199.401 171.632 199.241 171.232C199.097 170.832 199.025 170.376 199.025 169.864C199.025 169.656 199.041 169.392 199.073 169.072C199.105 168.736 199.145 168.36 199.193 167.944L198.785 168.904C198.513 169.528 198.217 170.056 197.897 170.488C197.577 170.904 197.233 171.24 196.865 171.496C196.513 171.752 196.137 171.928 195.737 172.024C195.353 172.136 194.953 172.192 194.537 172.192ZM204.27 160.24H206.67L207.726 157.24L210.006 156.736L209.31 160.24H211.998L211.662 162.184H208.926L207.582 169.264C207.566 169.344 207.55 169.416 207.534 169.48C207.534 169.528 207.534 169.576 207.534 169.624C207.534 169.848 207.598 170.008 207.726 170.104C207.854 170.184 208.094 170.224 208.446 170.224C208.67 170.224 208.894 170.208 209.118 170.176C209.358 170.128 209.582 170.08 209.79 170.032C210.03 169.968 210.262 169.896 210.486 169.816V171.616C210.214 171.728 209.918 171.824 209.598 171.904C209.326 171.984 208.998 172.048 208.614 172.096C208.246 172.16 207.854 172.192 207.438 172.192C206.478 172.192 205.79 172.024 205.374 171.688C204.974 171.336 204.774 170.832 204.774 170.176C204.774 169.968 204.798 169.744 204.846 169.504L206.31 162.184H204.27V160.24ZM216.613 154.696C217.125 154.696 217.501 154.84 217.741 155.128C217.981 155.4 218.101 155.776 218.101 156.256C218.101 156.72 217.941 157.136 217.621 157.504C217.301 157.856 216.869 158.032 216.325 158.032C215.813 158.032 215.437 157.888 215.197 157.6C214.957 157.312 214.837 156.952 214.837 156.52C214.837 156.024 214.989 155.6 215.293 155.248C215.613 154.88 216.053 154.696 216.613 154.696ZM214.861 172.12C214.141 172.12 213.589 171.936 213.205 171.568C212.821 171.2 212.629 170.712 212.629 170.104C212.629 169.88 212.653 169.648 212.701 169.408L214.525 160.24H217.165L215.437 169.168C215.421 169.248 215.405 169.32 215.389 169.384C215.389 169.432 215.389 169.488 215.389 169.552C215.389 169.952 215.525 170.152 215.797 170.152C216.069 170.152 216.333 170.128 216.589 170.08C216.845 170.016 216.989 169.976 217.021 169.96V171.688C216.845 171.768 216.645 171.84 216.421 171.904C216.229 171.968 215.997 172.016 215.725 172.048C215.469 172.096 215.181 172.12 214.861 172.12ZM229.896 160.072C230.072 160.424 230.192 160.824 230.256 161.272C230.32 161.704 230.352 162.112 230.352 162.496C230.352 163.264 230.272 164.04 230.112 164.824C229.952 165.608 229.72 166.368 229.416 167.104C229.128 167.824 228.768 168.496 228.336 169.12C227.92 169.744 227.448 170.28 226.92 170.728C226.312 171.24 225.672 171.616 225 171.856C224.344 172.08 223.52 172.192 222.528 172.192C221.52 172.192 220.752 171.976 220.224 171.544C219.696 171.096 219.432 170.4 219.432 169.456C219.432 169.344 219.44 169.2 219.456 169.024C219.472 168.832 219.488 168.64 219.504 168.448C219.536 168.256 219.56 168.072 219.576 167.896C219.608 167.72 219.632 167.576 219.648 167.464L221.04 160.24H223.656L222.288 167.392C222.272 167.472 222.256 167.584 222.24 167.728C222.224 167.856 222.208 167.992 222.192 168.136C222.176 168.28 222.16 168.416 222.144 168.544C222.128 168.672 222.12 168.768 222.12 168.832C222.12 169.28 222.232 169.64 222.456 169.912C222.68 170.184 223.008 170.32 223.44 170.32C223.984 170.32 224.512 170.056 225.024 169.528C225.552 169 226.016 168.344 226.416 167.56C226.816 166.76 227.136 165.896 227.376 164.968C227.616 164.024 227.736 163.144 227.736 162.328C227.736 162.12 227.72 161.832 227.688 161.464C227.672 161.096 227.64 160.824 227.592 160.648L229.896 160.072ZM238.377 159.952C239.145 159.952 239.785 160.064 240.297 160.288C240.809 160.512 241.217 160.816 241.521 161.2C241.841 161.568 242.065 161.992 242.193 162.472C242.321 162.952 242.385 163.448 242.385 163.96C242.385 165.112 242.233 166.192 241.929 167.2C241.641 168.208 241.217 169.088 240.657 169.84C240.097 170.592 239.393 171.184 238.545 171.616C237.713 172.048 236.761 172.264 235.689 172.264C234.937 172.264 234.305 172.152 233.793 171.928C233.281 171.704 232.865 171.408 232.545 171.04C232.241 170.656 232.017 170.224 231.873 169.744C231.745 169.264 231.681 168.768 231.681 168.256C231.681 167.12 231.825 166.048 232.113 165.04C232.417 164.032 232.849 163.152 233.409 162.4C233.985 161.648 234.689 161.056 235.521 160.624C236.353 160.176 237.305 159.952 238.377 159.952ZM237.825 161.8C237.297 161.8 236.825 162.024 236.409 162.472C236.009 162.904 235.665 163.456 235.377 164.128C235.105 164.784 234.897 165.496 234.753 166.264C234.609 167.032 234.537 167.752 234.537 168.424C234.537 169.176 234.689 169.696 234.993 169.984C235.297 170.272 235.713 170.416 236.241 170.416C236.769 170.416 237.233 170.2 237.633 169.768C238.049 169.32 238.393 168.768 238.665 168.112C238.953 167.44 239.169 166.72 239.313 165.952C239.457 165.168 239.529 164.448 239.529 163.792C239.529 163.04 239.377 162.52 239.073 162.232C238.769 161.944 238.353 161.8 237.825 161.8Z" fill="#2542A1"/>
<path d="M83.344 103.768C78.832 103.768 75.024 102.936 71.92 101.272L74.32 93.832C77.616 95.016 80.56 95.608 83.152 95.608C84.56 95.608 85.584 95.448 86.224 95.128C86.896 94.776 87.232 94.264 87.232 93.592C87.232 93.144 87.056 92.76 86.704 92.44C86.352 92.088 85.648 91.704 84.592 91.288C83.536 90.872 81.952 90.36 79.84 89.752C77.248 88.984 75.232 87.736 73.792 86.008C72.352 84.248 71.632 82.232 71.632 79.96C71.632 76.44 72.784 73.784 75.088 71.992C77.424 70.168 80.56 69.256 84.496 69.256C86.544 69.256 88.56 69.48 90.544 69.928C92.528 70.344 94.288 70.968 95.824 71.8L93.232 79.048C91.44 78.44 89.872 78.008 88.528 77.752C87.216 77.464 85.936 77.32 84.688 77.32C82.576 77.32 81.52 77.896 81.52 79.048C81.52 79.624 81.856 80.12 82.528 80.536C83.232 80.92 84.656 81.416 86.8 82.024C90.16 82.92 92.704 84.296 94.432 86.152C96.16 87.976 97.024 90.168 97.024 92.728C97.024 96.28 95.872 99.016 93.568 100.936C91.264 102.824 87.856 103.768 83.344 103.768ZM100.806 79.288H110.454V84.184C111.542 82.296 112.774 80.904 114.15 80.008C115.558 79.08 117.222 78.616 119.142 78.616C121.03 78.616 122.662 79.096 124.038 80.056C125.446 80.984 126.502 82.248 127.206 83.848C129.254 80.36 132.23 78.616 136.134 78.616C137.99 78.616 139.606 79.112 140.982 80.104C142.39 81.096 143.478 82.536 144.246 84.424C145.014 86.28 145.398 88.472 145.398 91V103H135.27V91C135.27 89.368 134.982 88.136 134.406 87.304C133.862 86.472 133.094 86.056 132.102 86.056C131.014 86.056 130.07 86.52 129.27 87.448C128.502 88.376 128.118 89.496 128.118 90.808V103H118.086V91C118.086 89.368 117.798 88.136 117.222 87.304C116.678 86.472 115.894 86.056 114.87 86.056C113.782 86.056 112.854 86.52 112.086 87.448C111.318 88.376 110.934 89.496 110.934 90.808V103H100.806V79.288ZM160.68 103.384C158.6 103.384 156.648 102.84 154.824 101.752C153.032 100.632 151.592 99.128 150.504 97.24C149.416 95.32 148.872 93.192 148.872 90.856C148.872 88.552 149.416 86.472 150.504 84.616C151.592 82.728 153.048 81.256 154.872 80.2C156.696 79.144 158.632 78.616 160.68 78.616C162.344 78.616 163.88 79.08 165.288 80.008C166.728 80.936 167.816 82.328 168.552 84.184V78.616H178.632V103H168.552V98.536C166.952 101.768 164.328 103.384 160.68 103.384ZM163.8 95.8C165.08 95.8 166.168 95.352 167.064 94.456C167.992 93.528 168.488 92.44 168.552 91.192V90.808C168.488 89.528 167.976 88.44 167.016 87.544C166.088 86.648 165.016 86.2 163.8 86.2C162.456 86.2 161.304 86.68 160.344 87.64C159.416 88.568 158.952 89.688 158.952 91C158.952 92.344 159.432 93.48 160.392 94.408C161.352 95.336 162.488 95.8 163.8 95.8ZM183.494 79.288H193.622V84.184C194.358 82.296 195.35 80.904 196.598 80.008C197.878 79.08 199.366 78.616 201.062 78.616L202.454 86.44C199.414 86.44 197.174 86.776 195.734 87.448C194.326 88.088 193.622 89.112 193.622 90.52V103H183.494V79.288ZM215.428 103.384C212.612 103.384 210.42 102.584 208.852 100.984C207.284 99.352 206.5 97.112 206.5 94.264V84.904H203.428V78.952H207.22L211.684 69.88H216.532V78.952H222.1V84.904H216.532V93.064C216.532 93.864 216.788 94.488 217.3 94.936C217.812 95.384 218.532 95.608 219.46 95.608C220.324 95.608 221.108 95.416 221.812 95.032L222.196 101.752C221.396 102.232 220.356 102.632 219.076 102.952C217.828 103.24 216.612 103.384 215.428 103.384Z" fill="#2542A1"/>
<path d="M75.315 109.912H86.331V137.248H98.52V145H75.315V109.912ZM115.201 145.408C112.379 145.408 109.863 144.847 107.653 143.725C105.477 142.569 103.777 141.005 102.553 139.033C101.329 137.027 100.717 134.766 100.717 132.25C100.717 129.666 101.346 127.371 102.604 125.365C103.862 123.359 105.562 121.812 107.704 120.724C109.846 119.636 112.226 119.092 114.844 119.092C117.36 119.092 119.502 119.653 121.27 120.775C123.072 121.863 124.415 123.359 125.299 125.263C126.183 127.133 126.625 129.241 126.625 131.587C126.625 132.199 126.591 132.641 126.523 132.913L111.223 134.902C111.631 136.092 112.294 136.959 113.212 137.503C114.13 138.013 115.337 138.268 116.833 138.268C119.145 138.268 121.644 137.673 124.33 136.483L125.605 143.317C122.443 144.711 118.975 145.408 115.201 145.408ZM118.72 128.476C118.176 126.334 116.884 125.263 114.844 125.263C113.62 125.263 112.651 125.722 111.937 126.64C111.223 127.558 110.849 128.748 110.815 130.21L118.72 128.476ZM141.602 145.408C139.392 145.408 137.318 144.83 135.38 143.674C133.476 142.484 131.946 140.886 130.79 138.88C129.634 136.84 129.056 134.579 129.056 132.097C129.056 129.649 129.634 127.439 130.79 125.467C131.946 123.461 133.493 121.897 135.431 120.775C137.369 119.653 139.426 119.092 141.602 119.092C143.37 119.092 145.002 119.585 146.498 120.571C148.028 121.557 149.184 123.036 149.966 125.008V119.092H160.676V145H149.966V140.257C148.266 143.691 145.478 145.408 141.602 145.408ZM144.917 137.35C146.277 137.35 147.433 136.874 148.385 135.922C149.371 134.936 149.898 133.78 149.966 132.454V132.046C149.898 130.686 149.354 129.53 148.334 128.578C147.348 127.626 146.209 127.15 144.917 127.15C143.489 127.15 142.265 127.66 141.245 128.68C140.259 129.666 139.766 130.856 139.766 132.25C139.766 133.678 140.276 134.885 141.296 135.871C142.316 136.857 143.523 137.35 144.917 137.35ZM165.842 119.806H176.603V125.008C177.385 123.002 178.439 121.523 179.765 120.571C181.125 119.585 182.706 119.092 184.508 119.092L185.987 127.405C182.757 127.405 180.377 127.762 178.847 128.476C177.351 129.156 176.603 130.244 176.603 131.74V145H165.842V119.806ZM188.603 119.806H198.854V125.008C200.826 121.064 203.954 119.092 208.238 119.092C211.502 119.092 214.052 120.265 215.888 122.611C217.758 124.923 218.693 128.136 218.693 132.25V145H207.983V131.179C207.983 129.717 207.66 128.595 207.014 127.813C206.402 127.031 205.535 126.64 204.413 126.64C203.597 126.64 202.798 126.912 202.016 127.456C201.234 127.966 200.588 128.714 200.078 129.7C199.602 130.686 199.364 131.808 199.364 133.066V145H188.603V119.806Z" fill="#2542A1"/>
<defs>
<filter id="filter0_d_55_2616" x="260.616" y="31.148" width="111.904" height="167.442" filterUnits="userSpaceOnUse" color-interpolation-filters="sRGB">
<feFlood flood-opacity="0" result="BackgroundImageFix"/>
<feColorMatrix in="SourceAlpha" type="matrix" values="0 0 0 0 0 0 0 0 0 0 0 0 0 0 0 0 0 0 127 0" result="hardAlpha"/>
<feOffset dy="4.51"/>
<feGaussianBlur stdDeviation="3.01"/>
<feColorMatrix type="matrix" values="0 0 0 0 0 0 0 0 0 0 0 0 0 0 0 0 0 0 0.2 0"/>
<feBlend mode="normal" in2="BackgroundImageFix" result="effect1_dropShadow_55_2616"/>
<feBlend mode="normal" in="SourceGraphic" in2="effect1_dropShadow_55_2616" result="shape"/>
</filter>
<radialGradient id="paint0_radial_55_2616" cx="0" cy="0" r="1" gradientUnits="userSpaceOnUse" gradientTransform="translate(195.519 120.27) rotate(180) scale(172.18 172.18)">
<stop stop-color="white"/>
<stop offset="0.26" stop-color="#F9FAFC"/>
<stop offset="0.6" stop-color="#E9EFF4"/>
<stop offset="0.85" stop-color="#D9E3ED"/>
</radialGradient>
<radialGradient id="paint1_radial_55_2616" cx="0" cy="0" r="1" gradientUnits="userSpaceOnUse" gradientTransform="translate(389.082 211.089) rotate(17.12) scale(21.2238 21.2238)">
<stop stop-color="#79BBED"/>
<stop offset="0.99" stop-color="#7988ED"/>
</radialGradient>
<radialGradient id="paint2_radial_55_2616" cx="0" cy="0" r="1" gradientUnits="userSpaceOnUse" gradientTransform="translate(29.4899 96.1508) rotate(17.12) scale(21.2238)">
<stop stop-color="#EDD366"/>
<stop offset="1" stop-color="#ED9F55"/>
</radialGradient>
<linearGradient id="paint3_linear_55_2616" x1="316.56" y1="182.84" x2="316.56" y2="39.6401" gradientUnits="userSpaceOnUse">
<stop stop-color="#EDD366"/>
<stop offset="1" stop-color="#ED9F55"/>
</linearGradient>
<linearGradient id="paint4_linear_55_2616" x1="332.925" y1="105.11" x2="283.625" y2="37.2596" gradientUnits="userSpaceOnUse">
<stop offset="0.1" stop-color="#EEEEEE" stop-opacity="0"/>
<stop offset="0.2" stop-color="#EEEEEE" stop-opacity="0.02"/>
<stop offset="0.31" stop-color="#EEEEEE" stop-opacity="0.09"/>
<stop offset="0.44" stop-color="#EEEEEE" stop-opacity="0.2"/>
<stop offset="0.58" stop-color="#EEEEEE" stop-opacity="0.35"/>
<stop offset="0.73" stop-color="#EEEEEE" stop-opacity="0.55"/>
<stop offset="0.88" stop-color="#EEEEEE" stop-opacity="0.78"/>
<stop offset="1" stop-color="#EEEEEE"/>
</linearGradient>
<linearGradient id="paint5_linear_55_2616" x1="339.009" y1="87.3399" x2="317.929" y2="58.3199" gradientUnits="userSpaceOnUse">
<stop offset="0.1" stop-color="#EEEEEE" stop-opacity="0"/>
<stop offset="0.2" stop-color="#EEEEEE" stop-opacity="0.02"/>
<stop offset="0.31" stop-color="#EEEEEE" stop-opacity="0.09"/>
<stop offset="0.44" stop-color="#EEEEEE" stop-opacity="0.2"/>
<stop offset="0.58" stop-color="#EEEEEE" stop-opacity="0.35"/>
<stop offset="0.73" stop-color="#EEEEEE" stop-opacity="0.55"/>
<stop offset="0.88" stop-color="#EEEEEE" stop-opacity="0.78"/>
<stop offset="1" stop-color="#EEEEEE"/>
</linearGradient>
<linearGradient id="paint6_linear_55_2616" x1="316.49" y1="143.48" x2="316.49" y2="224.19" gradientUnits="userSpaceOnUse">
<stop stop-color="#EDD366"/>
<stop offset="1" stop-color="#ED9F55"/>
</linearGradient>
<linearGradient id="paint7_linear_55_2616" x1="316.49" y1="175.29" x2="316.49" y2="152.35" gradientUnits="userSpaceOnUse">
<stop stop-color="#F6B146"/>
<stop offset="1" stop-color="#F28436"/>
</linearGradient>
<linearGradient id="paint8_linear_55_2616" x1="-44.5004" y1="187.32" x2="-43.5004" y2="164.39" gradientUnits="userSpaceOnUse">
<stop stop-color="#F6B146"/>
<stop offset="1" stop-color="#F28436"/>
</linearGradient>
<linearGradient id="paint9_linear_55_2616" x1="336.289" y1="185.09" x2="266.929" y2="185.09" gradientUnits="userSpaceOnUse">
<stop stop-color="#F6B146"/>
<stop offset="1" stop-color="#F28436"/>
</linearGradient>
<radialGradient id="paint10_radial_55_2616" cx="0" cy="0" r="1" gradientUnits="userSpaceOnUse" gradientTransform="translate(397.622 70.557) rotate(-16.6) scale(13.94 13.94)">
<stop stop-color="#FFEFE1"/>
<stop offset="1" stop-color="#EFD9A3"/>
</radialGradient>
<radialGradient id="paint11_radial_55_2616" cx="0" cy="0" r="1" gradientUnits="userSpaceOnUse" gradientTransform="translate(55.6167 209.101) rotate(12.3) scale(13.94 13.94)">
<stop stop-color="#79BBED"/>
<stop offset="0.99" stop-color="#7988ED"/>
</radialGradient>
<radialGradient id="paint12_radial_55_2616" cx="0" cy="0" r="1" gradientUnits="userSpaceOnUse" gradientTransform="translate(169.093 221.989) rotate(-33.35) scale(13.94 13.94)">
<stop stop-color="#FFEFE1"/>
<stop offset="1" stop-color="#EFD9A3"/>
</radialGradient>
<radialGradient id="paint13_radial_55_2616" cx="0" cy="0" r="1" gradientUnits="userSpaceOnUse" gradientTransform="translate(61.686 26.2767) rotate(29.41) scale(13.94)">
<stop stop-color="#79BBED"/>
<stop offset="0.99" stop-color="#7988ED"/>
</radialGradient>
<linearGradient id="paint14_linear_55_2616" x1="275.55" y1="218.61" x2="286.69" y2="218.61" gradientUnits="userSpaceOnUse">
<stop stop-color="#F2D664"/>
<stop offset="1" stop-color="#F2A55F"/>
</linearGradient>
<linearGradient id="paint15_linear_55_2616" x1="227.04" y1="22.9199" x2="241.5" y2="22.9199" gradientUnits="userSpaceOnUse">
<stop stop-color="#F2D664"/>
<stop offset="1" stop-color="#F2A55F"/>
</linearGradient>
<linearGradient id="paint16_linear_55_2616" x1="315.828" y1="38.1894" x2="323.234" y2="34.5772" gradientUnits="userSpaceOnUse">
<stop stop-color="#F6B146"/>
<stop offset="1" stop-color="#F28436"/>
</linearGradient>
<linearGradient id="paint17_linear_55_2616" x1="201.371" y1="-83.2228" x2="286.923" y2="-66.0347" gradientUnits="userSpaceOnUse">
<stop stop-color="#79BBED"/>
<stop offset="0.99" stop-color="#7988ED"/>
</linearGradient>
<linearGradient id="paint18_linear_55_2616" x1="238.599" y1="-129.132" x2="259.278" y2="-67.8279" gradientUnits="userSpaceOnUse">
<stop stop-color="#79BBED"/>
<stop offset="0.99" stop-color="#7988ED"/>
</linearGradient>
<linearGradient id="paint19_linear_55_2616" x1="183.065" y1="-99.0179" x2="309.908" y2="-73.534" gradientUnits="userSpaceOnUse">
<stop stop-color="#79BBED"/>
<stop offset="0.99" stop-color="#7988ED"/>
</linearGradient>
<linearGradient id="paint20_linear_55_2616" x1="266.797" y1="-48.1142" x2="270.075" y2="-47.4555" gradientUnits="userSpaceOnUse">
<stop stop-color="#F6B146"/>
<stop offset="1" stop-color="#F28436"/>
</linearGradient>
<linearGradient id="paint21_linear_55_2616" x1="269.106" y1="-51.1153" x2="268.865" y2="-49.9161" gradientUnits="userSpaceOnUse">
<stop stop-color="#F6B146"/>
<stop offset="1" stop-color="#F28436"/>
</linearGradient>
<linearGradient id="paint22_linear_55_2616" x1="243.942" y1="-77.7216" x2="274.078" y2="-71.6669" gradientUnits="userSpaceOnUse">
<stop stop-color="#F6B146"/>
<stop offset="1" stop-color="#F28436"/>
</linearGradient>
<linearGradient id="paint23_linear_55_2616" x1="243.366" y1="-99.604" x2="254.513" y2="-97.3645" gradientUnits="userSpaceOnUse">
<stop stop-color="#79BBED"/>
<stop offset="0.99" stop-color="#7988ED"/>
</linearGradient>
</defs>
</svg>
