<svg width="506" height="366" viewBox="0 0 506 366" fill="none" xmlns="http://www.w3.org/2000/svg">
<path d="M12.3469 234.145L223.425 357.245C232.327 362.441 242.45 365.179 252.758 365.179C263.066 365.179 273.189 362.441 282.091 357.245L493.039 234.145C496.789 231.943 499.899 228.798 502.059 225.024C504.22 221.25 505.356 216.976 505.356 212.627C505.356 208.278 504.22 204.005 502.059 200.231C499.899 196.456 496.789 193.312 493.039 191.11L281.961 67.9666C273.059 62.7704 262.936 60.0322 252.628 60.0322C242.32 60.0322 232.197 62.7704 223.295 67.9666L12.2819 191.088C8.53552 193.299 5.43159 196.45 3.27739 200.229C1.1232 204.009 -0.00654264 208.285 2.85027e-05 212.635C0.00659965 216.985 1.14924 221.258 3.31484 225.031C5.48044 228.804 8.5939 231.945 12.3469 234.145Z" fill="#112B46"/>
<path d="M12.3451 174.091L223.423 297.213C232.326 302.409 242.448 305.147 252.756 305.147C263.064 305.147 273.187 302.409 282.09 297.213L493.103 174.091C496.853 171.889 499.962 168.745 502.123 164.97C504.283 161.196 505.42 156.922 505.42 152.574C505.42 148.225 504.283 143.951 502.123 140.177C499.962 136.402 496.853 133.258 493.103 131.056L281.96 7.93437C273.057 2.73816 262.934 0 252.626 0C242.318 0 232.195 2.73816 223.293 7.93437L12.2801 131.056C8.53871 133.268 5.43945 136.419 3.28867 140.196C1.13789 143.973 0.0100611 148.246 0.0166301 152.592C0.0231991 156.939 1.16396 161.208 3.32615 164.979C5.48834 168.749 8.59708 171.89 12.3451 174.091Z" fill="url(#paint0_linear_79_2)"/>
<mask id="mask0_79_2" style="mask-type:luminance" maskUnits="userSpaceOnUse" x="0" y="0" width="506" height="306">
<path d="M12.3451 174.091L223.423 297.213C232.326 302.409 242.448 305.147 252.756 305.147C263.064 305.147 273.187 302.409 282.09 297.213L493.103 174.091C496.853 171.889 499.962 168.745 502.123 164.97C504.283 161.196 505.42 156.922 505.42 152.574C505.42 148.225 504.283 143.951 502.123 140.177C499.962 136.402 496.853 133.258 493.103 131.056L281.96 7.93437C273.057 2.73816 262.934 0 252.626 0C242.318 0 232.195 2.73816 223.293 7.93437L12.2801 131.056C8.53871 133.268 5.43945 136.419 3.28867 140.196C1.13789 143.973 0.0100611 148.246 0.0166301 152.592C0.0231991 156.939 1.16396 161.208 3.32615 164.979C5.48834 168.749 8.59708 171.89 12.3451 174.091Z" fill="white"/>
</mask>
<g mask="url(#mask0_79_2)">
<path d="M11.9755 181.202C11.3277 181.197 10.6925 181.022 10.1334 180.694C9.57418 180.367 9.1105 179.899 8.7885 179.337C8.30344 178.481 8.1725 177.468 8.42365 176.516C8.67479 175.564 9.2881 174.748 10.1327 174.242L107.693 117.375C108.113 117.132 108.576 116.974 109.057 116.911C109.537 116.848 110.026 116.881 110.494 117.008C110.961 117.135 111.399 117.354 111.782 117.651C112.165 117.949 112.485 118.319 112.723 118.741C113.208 119.598 113.339 120.61 113.088 121.562C112.837 122.514 112.224 123.33 111.379 123.836L13.8183 180.703C13.2566 181.024 12.6222 181.195 11.9755 181.202Z" fill="#F9FBFC"/>
<path d="M53.7982 202.794C53.1883 202.795 52.5895 202.632 52.0635 202.323C51.5376 202.014 51.1036 201.571 50.8064 201.038C50.3471 200.238 50.2215 199.288 50.4569 198.396C50.6922 197.503 51.2695 196.739 52.0638 196.269L208.616 104.93C209.009 104.699 209.445 104.548 209.897 104.488C210.349 104.427 210.808 104.457 211.248 104.576C211.689 104.695 212.101 104.901 212.46 105.181C212.82 105.462 213.12 105.811 213.343 106.209C213.802 107.01 213.927 107.959 213.692 108.852C213.457 109.745 212.879 110.509 212.085 110.979L55.5326 202.318C55.0073 202.628 54.4085 202.793 53.7982 202.794Z" fill="#F9FBFC"/>
<path d="M203.044 300.573C202.279 300.567 201.538 300.31 200.933 299.842C200.329 299.374 199.895 298.72 199.698 297.982C199.501 297.243 199.552 296.46 199.843 295.753C200.134 295.046 200.649 294.454 201.309 294.069L359.575 201.798C359.966 201.566 360.401 201.414 360.852 201.352C361.303 201.289 361.762 201.317 362.202 201.434C362.642 201.552 363.054 201.755 363.415 202.034C363.775 202.312 364.076 202.659 364.301 203.055C364.761 203.859 364.887 204.812 364.652 205.708C364.417 206.604 363.839 207.372 363.043 207.847L204.778 300.117C204.253 300.427 203.653 300.584 203.044 300.573Z" fill="#F9FBFC"/>
<path d="M164.149 277.049C163.539 277.047 162.941 276.884 162.416 276.575C161.89 276.267 161.456 275.824 161.157 275.293C160.698 274.493 160.572 273.543 160.807 272.651C161.043 271.758 161.62 270.994 162.414 270.524L293.731 193.928V149.722C293.728 149.111 293.884 148.509 294.184 147.977C294.485 147.445 294.919 147 295.444 146.687L359.487 109.332C359.881 109.103 360.316 108.955 360.767 108.896C361.219 108.837 361.677 108.867 362.117 108.986C362.556 109.105 362.968 109.31 363.328 109.589C363.687 109.868 363.988 110.215 364.213 110.611C364.673 111.412 364.798 112.361 364.563 113.254C364.327 114.146 363.75 114.91 362.956 115.381L300.647 151.76V195.966C300.647 196.576 300.486 197.175 300.182 197.704C299.877 198.232 299.44 198.672 298.913 198.979L165.883 276.594C165.357 276.899 164.757 277.056 164.149 277.049Z" fill="#F9FBFC"/>
<path d="M85.6684 230.415C85.0585 230.415 84.4597 230.253 83.9337 229.944C83.4077 229.635 82.9737 229.192 82.6765 228.659C82.2115 227.86 82.0827 226.908 82.3185 226.014C82.5542 225.12 83.1352 224.356 83.934 223.889L262.709 119.586V75.7272C262.671 75.2501 262.732 74.7703 262.889 74.318C263.045 73.8658 263.294 73.4508 263.619 73.0992C263.943 72.7477 264.337 72.4672 264.776 72.2753C265.214 72.0834 265.688 71.9844 266.167 71.9844C266.645 71.9844 267.119 72.0834 267.557 72.2753C267.996 72.4672 268.39 72.7477 268.714 73.0992C269.039 73.4508 269.288 73.8658 269.444 74.318C269.601 74.7703 269.662 75.2501 269.624 75.7272V121.602C269.628 122.214 269.472 122.815 269.171 123.347C268.871 123.88 268.437 124.325 267.912 124.638L87.4028 229.938C86.8774 230.249 86.2787 230.414 85.6684 230.415Z" fill="#F9FBFC"/>
<path d="M123.694 254.394C123.083 254.398 122.482 254.239 121.953 253.934C121.423 253.63 120.984 253.19 120.681 252.659C120.451 252.262 120.303 251.824 120.243 251.369C120.183 250.915 120.213 250.453 120.332 250.01C120.451 249.567 120.656 249.151 120.935 248.788C121.214 248.424 121.563 248.119 121.96 247.89L231.77 183.803C232.163 183.572 232.598 183.422 233.05 183.361C233.502 183.3 233.962 183.33 234.402 183.449C234.842 183.568 235.254 183.774 235.614 184.054C235.973 184.335 236.273 184.684 236.496 185.082C236.955 185.883 237.081 186.833 236.846 187.725C236.61 188.618 236.033 189.382 235.239 189.852L125.407 253.939C124.885 254.235 124.295 254.392 123.694 254.394Z" fill="#F9FBFC"/>
<path d="M370.978 210.642C366.969 210.704 363.012 209.733 359.487 207.824C357.797 207.091 356.357 205.879 355.346 204.338C354.335 202.798 353.796 200.995 353.796 199.152C353.796 197.309 354.335 195.506 355.346 193.965C356.357 192.425 357.797 191.213 359.487 190.48C363.018 188.637 366.941 187.675 370.924 187.675C374.906 187.675 378.829 188.637 382.36 190.48C384.001 191.288 385.399 192.516 386.412 194.039C387.425 195.562 388.016 197.326 388.127 199.152C388.034 200.977 387.454 202.743 386.448 204.268C385.441 205.793 384.045 207.021 382.403 207.824C378.907 209.747 374.967 210.719 370.978 210.642ZM370.804 194.621C368.048 194.557 365.322 195.207 362.891 196.507C361.504 197.309 360.723 198.306 360.723 199.109C360.723 199.911 361.612 200.93 363.043 201.775C365.516 203.015 368.244 203.661 371.01 203.661C373.777 203.661 376.505 203.015 378.978 201.775C380.365 200.973 381.146 199.976 381.146 199.174C381.146 198.371 380.257 197.352 378.826 196.507C376.368 195.217 373.623 194.568 370.848 194.621H370.804Z" fill="#F9FBFC"/>
<path d="M243.326 192.692C239.315 192.754 235.356 191.775 231.836 189.852C230.137 189.126 228.689 187.917 227.672 186.375C226.654 184.834 226.111 183.027 226.111 181.18C226.111 179.332 226.654 177.526 227.672 175.984C228.689 174.442 230.137 173.234 231.836 172.508C235.362 170.665 239.282 169.703 243.261 169.703C247.24 169.703 251.16 170.665 254.687 172.508C256.385 173.234 257.833 174.442 258.851 175.984C259.869 177.526 260.411 179.332 260.411 181.18C260.411 183.027 259.869 184.834 258.851 186.375C257.833 187.917 256.385 189.126 254.687 189.852C251.209 191.765 247.295 192.744 243.326 192.692ZM243.153 176.67C240.4 176.613 237.677 177.254 235.24 178.535C233.852 179.359 233.072 180.356 233.072 181.136C233.072 181.917 233.961 182.979 235.391 183.803C237.863 185.048 240.592 185.696 243.359 185.696C246.126 185.696 248.855 185.048 251.326 183.803C252.714 182.979 253.494 181.982 253.494 181.201C253.494 180.421 252.606 179.38 251.175 178.535C248.706 177.232 245.943 176.59 243.153 176.67Z" fill="#F9FBFC"/>
<path d="M119.208 126.459C115.199 126.518 111.243 125.548 107.717 123.641C106.079 122.829 104.683 121.601 103.671 120.078C102.658 118.556 102.065 116.793 101.95 114.969C102.043 113.144 102.623 111.377 103.629 109.852C104.636 108.327 106.032 107.1 107.674 106.297C111.199 104.449 115.119 103.483 119.099 103.483C123.079 103.483 127 104.449 130.525 106.297C132.223 107.023 133.671 108.232 134.689 109.773C135.707 111.315 136.249 113.122 136.249 114.969C136.249 116.816 135.707 118.623 134.689 120.164C133.671 121.706 132.223 122.915 130.525 123.641C127.058 125.54 123.16 126.511 119.208 126.459ZM119.034 110.438C116.278 110.377 113.553 111.027 111.121 112.324C109.733 113.126 108.953 114.123 108.953 114.925C108.953 115.728 109.842 116.747 111.273 117.57C113.744 118.815 116.473 119.464 119.24 119.464C122.007 119.464 124.736 118.815 127.208 117.57C128.617 116.768 129.376 115.771 129.376 114.969C129.376 114.167 128.487 113.148 127.056 112.302C124.584 111.01 121.823 110.368 119.034 110.438Z" fill="#F9FBFC"/>
<path d="M220.106 113.819C216.094 113.884 212.135 112.905 208.615 110.979C206.917 110.253 205.469 109.044 204.451 107.503C203.433 105.961 202.891 104.154 202.891 102.307C202.891 100.46 203.433 98.6532 204.451 97.1116C205.469 95.5699 206.917 94.361 208.615 93.6351C212.142 91.7924 216.062 90.8301 220.041 90.8301C224.02 90.8301 227.94 91.7924 231.466 93.6351C233.165 94.361 234.613 95.5699 235.63 97.1116C236.648 98.6532 237.191 100.46 237.191 102.307C237.191 104.154 236.648 105.961 235.63 107.503C234.613 109.044 233.165 110.253 231.466 110.979C227.99 112.897 224.075 113.875 220.106 113.819ZM219.932 97.7976C217.179 97.7352 214.455 98.377 212.019 99.6621C210.61 100.486 209.743 101.483 209.743 102.264C209.743 103.044 210.653 104.107 212.062 104.93C214.539 106.17 217.271 106.816 220.041 106.816C222.81 106.816 225.542 106.17 228.019 104.93C229.406 104.107 230.187 103.109 230.187 102.329C230.187 101.548 229.298 100.508 227.867 99.6621C225.422 98.3797 222.692 97.7382 219.932 97.7976Z" fill="#F9FBFC"/>
<path d="M370.979 118.221C366.967 118.286 363.008 117.307 359.488 115.381C357.79 114.655 356.342 113.446 355.324 111.905C354.306 110.363 353.764 108.556 353.764 106.709C353.764 104.862 354.306 103.055 355.324 101.514C356.342 99.9718 357.79 98.763 359.488 98.037C363.019 96.1943 366.942 95.2319 370.925 95.2319C374.907 95.2319 378.83 96.1943 382.361 98.037C384.059 98.763 385.508 99.9718 386.525 101.514C387.543 103.055 388.085 104.862 388.085 106.709C388.085 108.556 387.543 110.363 386.525 111.905C385.508 113.446 384.059 114.655 382.361 115.381C378.879 117.302 374.955 118.281 370.979 118.221ZM362.892 104.064C361.504 104.888 360.724 105.885 360.724 106.666C360.724 107.446 361.613 108.509 363.044 109.332C365.515 110.577 368.244 111.225 371.011 111.225C373.779 111.225 376.507 110.577 378.979 109.332C380.366 108.509 381.147 107.533 381.147 106.731C381.147 105.929 380.258 104.91 378.827 104.064C376.355 102.819 373.627 102.171 370.859 102.171C368.092 102.171 365.363 102.819 362.892 104.064Z" fill="#F9FBFC"/>
<path d="M275.933 81.5809C271.923 81.6533 267.964 80.6821 264.443 78.7625C262.804 77.951 261.409 76.7222 260.396 75.1998C259.384 73.6774 258.791 71.9151 258.676 70.0904C258.769 68.2684 259.346 66.5042 260.349 64.9798C261.351 63.4554 262.742 62.226 264.378 61.4184C267.908 59.5756 271.832 58.6133 275.814 58.6133C279.796 58.6133 283.72 59.5756 287.25 61.4184C288.889 62.2299 290.284 63.4587 291.297 64.9811C292.309 66.5035 292.902 68.2657 293.017 70.0904C292.924 71.9153 292.344 73.6819 291.338 75.2069C290.331 76.7319 288.935 77.9596 287.294 78.7625C283.816 80.6723 279.9 81.6437 275.933 81.5809ZM267.846 67.4454C266.437 68.2476 265.678 69.2449 265.678 70.0471C265.678 70.8492 266.567 71.8682 267.998 72.7137C270.471 73.9535 273.199 74.5991 275.966 74.5991C278.732 74.5991 281.46 73.9535 283.933 72.7137C285.321 71.9116 286.101 70.9143 286.101 70.1121C286.101 69.3099 285.212 68.291 283.781 67.4454C281.308 66.2057 278.58 65.5601 275.814 65.5601C273.048 65.5601 270.319 66.2057 267.846 67.4454Z" fill="#F9FBFC"/>
</g>
<defs>
<linearGradient id="paint0_linear_79_2" x1="252.691" y1="6.98044" x2="252.691" y2="274.991" gradientUnits="userSpaceOnUse">
<stop stop-color="#3887FE"/>
<stop offset="1" stop-color="#8338EA"/>
</linearGradient>
</defs>
</svg>
