<svg width="100" height="630" viewBox="0 0 100 630" fill="none" xmlns="http://www.w3.org/2000/svg">
<g clip-path="url(#clip0_89_28)">
<rect width="100" height="630" fill="#4B52D1"/>
<path fill-rule="evenodd" clip-rule="evenodd" d="M0 608.147L4.16667 604.577C8.33333 601.007 16.6667 593.867 25 596.009C33.3333 598.151 43.1667 601.049 51.5 599.621C59.8333 598.193 66.6667 592.439 75 590.297C83.3333 588.154 91.6667 598.151 95.8333 603.149L100 608.147V621H95.8333C91.6667 621 83.3333 621 75 621C66.6667 621 58.3333 621 50 621C41.6667 621 33.3333 621 25 621C16.6667 621 8.33333 621 4.16667 621H0V608.147Z" fill="#525ADE"/>
<path fill-rule="evenodd" clip-rule="evenodd" d="M0 617.977L4.16667 614.637C8.33333 611.297 16.6667 604.617 25 606.621C33.3333 608.625 41.6667 619.313 50 617.977C58.3333 616.641 66.6667 603.281 75 601.277C83.3333 599.274 91.6667 608.625 95.8333 613.301L100 617.977V630H95.8333C91.6667 630 83.3333 630 75 630C66.6667 630 58.3333 630 50 630C41.6667 630 33.3333 630 25 630C16.6667 630 8.33333 630 4.16667 630H0V617.977Z" fill="#4449AB"/>
<g opacity="0.45">
<g style="mix-blend-mode:multiply" opacity="0.5">
<path d="M84.3379 364.531C84.2312 364.531 84.1294 364.551 84.0276 364.575C83.4991 363.436 82.3354 362.122 80.8324 360.808C81.4578 360.352 82.0397 359.896 82.5439 359.44C84.3961 357.772 85.1185 356.362 84.6433 355.358C84.2942 354.626 83.3876 354.257 81.9427 354.257C80.6675 354.257 79.053 354.548 77.2687 355.082C76.8566 352.42 76.1341 350.175 75.1208 349.147C75.1499 349.04 75.1741 348.934 75.1741 348.817C75.1741 348.153 74.6359 347.615 73.9717 347.615C73.3074 347.615 72.7692 348.153 72.7692 348.817C72.7692 348.866 72.7789 348.914 72.7838 348.963C71.7268 349.835 70.9607 351.993 70.5098 354.621C68.648 353.908 66.9801 353.511 65.7291 353.511C64.6479 353.511 63.9255 353.806 63.5764 354.388C62.7715 355.741 64.3425 357.966 66.8686 360.168C66.2431 360.623 65.6613 361.079 65.157 361.535C63.7461 362.81 62.9897 363.935 62.9218 364.842C62.7473 365.05 62.6406 365.317 62.6406 365.608C62.6406 366.272 63.1788 366.81 63.8431 366.81C64.0952 366.81 64.3279 366.733 64.5219 366.597C64.8807 366.674 65.2879 366.718 65.7582 366.718C67.0334 366.718 68.648 366.427 70.4322 365.894C70.9947 369.559 72.1535 372.43 73.8456 372.43C75.5378 372.43 76.5947 369.797 77.1863 366.354C79.0481 367.067 80.716 367.465 81.9669 367.465C82.8688 367.465 83.5185 367.256 83.9112 366.849C84.0421 366.897 84.1827 366.927 84.3282 366.927C84.9924 366.927 85.5306 366.388 85.5306 365.724C85.5306 365.06 84.9924 364.522 84.3282 364.522L84.3379 364.531ZM81.9427 354.975C83.053 354.975 83.7851 355.222 83.9985 355.668C84.3136 356.328 83.5912 357.54 82.0639 358.912C81.5403 359.387 80.9342 359.862 80.2699 360.332C79.4505 359.654 78.5487 358.989 77.6081 358.354C77.5596 357.482 77.482 356.623 77.3705 355.794C79.1208 355.266 80.7063 354.97 81.9427 354.97V354.975ZM75.1838 363.29C74.6844 363.528 74.1899 363.751 73.6953 363.959C73.2202 363.707 72.745 363.436 72.2747 363.154C71.7607 362.849 71.2759 362.539 70.8007 362.228C70.7765 361.666 70.7571 361.089 70.7571 360.488C70.7571 359.823 70.7765 359.183 70.8104 358.563C71.368 358.262 71.9353 357.971 72.5268 357.69C73.0262 357.452 73.5208 357.229 74.0153 357.021C74.4905 357.273 74.9656 357.545 75.4359 357.826C75.9499 358.131 76.4347 358.442 76.9099 358.752C76.9341 359.314 76.9535 359.891 76.9535 360.492C76.9535 361.157 76.9341 361.797 76.9002 362.417C76.3426 362.718 75.7753 363.009 75.1838 363.29ZM76.8469 363.256C76.7935 363.998 76.716 364.701 76.6238 365.36C75.9353 365.074 75.2275 364.745 74.5099 364.386C74.8347 364.24 75.1644 364.095 75.4893 363.94C75.9499 363.722 76.4008 363.489 76.8469 363.261V363.256ZM72.842 364.308C72.2262 364.551 71.6153 364.774 71.0238 364.968C70.951 364.381 70.8929 363.76 70.8444 363.116C71.1935 363.339 71.5474 363.557 71.9013 363.77C72.2117 363.954 72.5268 364.134 72.8371 364.308H72.842ZM70.0589 361.739C69.3268 361.229 68.6528 360.725 68.0419 360.226C68.6722 359.799 69.351 359.382 70.0637 358.975C70.0444 359.479 70.0347 359.988 70.0347 360.492C70.0347 360.905 70.0444 361.322 70.0541 361.739H70.0589ZM70.8541 357.734C70.9074 356.992 70.985 356.289 71.0771 355.629C71.7656 355.915 72.4735 356.245 73.1911 356.604C72.8662 356.749 72.5365 356.895 72.2117 357.05C71.7462 357.268 71.3001 357.501 70.8541 357.734ZM74.859 356.677C75.4747 356.434 76.0856 356.211 76.6772 356.017C76.7499 356.604 76.8081 357.225 76.8566 357.869C76.5075 357.646 76.1535 357.428 75.7996 357.215C75.4893 357.031 75.1741 356.851 74.8638 356.677H74.859ZM77.642 359.246C78.3742 359.756 79.0481 360.26 79.659 360.759C79.0287 361.186 78.3499 361.603 77.6372 362.01C77.6566 361.506 77.6663 360.997 77.6663 360.492C77.6663 360.08 77.6566 359.663 77.6469 359.246H77.642ZM73.1086 349.651C73.3268 349.879 73.6323 350.02 73.9717 350.02C74.248 350.02 74.505 349.923 74.7087 349.763C75.465 350.631 76.1681 352.599 76.5802 355.3C75.7608 355.566 74.9123 355.882 74.0541 356.235C73.0795 355.722 72.1195 355.271 71.1983 354.892C71.6395 352.274 72.3571 350.412 73.1135 349.651H73.1086ZM64.197 354.757C64.4588 354.32 65.1764 354.228 65.734 354.228C66.917 354.228 68.5607 354.635 70.3983 355.353C70.2674 356.245 70.1753 357.181 70.1171 358.131C69.1716 358.655 68.2892 359.198 67.4795 359.751C64.9291 357.549 63.7025 355.6 64.197 354.762V354.757ZM65.7679 366.01C65.4819 366.01 65.2249 365.996 64.9922 365.962C65.0261 365.85 65.0504 365.734 65.0504 365.613C65.0504 364.948 64.5122 364.41 63.8479 364.41C63.8188 364.41 63.7946 364.415 63.7655 364.42C64.0176 363.775 64.6625 362.956 65.6419 362.068C66.1655 361.593 66.7716 361.118 67.4358 360.648C68.2552 361.326 69.1571 361.991 70.0977 362.626C70.1462 363.499 70.2238 364.357 70.3353 365.186C68.5849 365.714 66.9995 366.01 65.7631 366.01H65.7679ZM73.8553 371.722C72.8177 371.722 71.6977 369.394 71.1304 365.685C71.9498 365.419 72.7983 365.103 73.6614 364.75C74.6359 365.263 75.5959 365.714 76.5172 366.093C75.9353 369.569 74.859 371.722 73.8553 371.722ZM77.3075 365.632C77.4384 364.74 77.5305 363.804 77.5887 362.854C78.5342 362.335 79.4166 361.787 80.2263 361.234C81.8845 362.669 82.9803 363.988 83.4069 364.973C83.2373 365.181 83.1306 365.443 83.1306 365.729C83.1306 365.981 83.2082 366.214 83.3439 366.408C83.0142 366.684 82.4372 366.752 81.9718 366.752C80.7887 366.752 79.1451 366.345 77.3075 365.627V365.632Z" fill="#6FAEDC"/>
</g>
<path d="M73.2094 370.82C70.7318 370.82 69.3984 364.667 69.3984 358.873C69.3984 353.079 70.7318 346.926 73.2094 346.926C75.687 346.926 77.0204 353.079 77.0204 358.873C77.0204 364.667 75.687 370.82 73.2094 370.82ZM73.2094 347.644C71.7451 347.644 70.1112 352.255 70.1112 358.873C70.1112 365.491 71.7451 370.102 73.2094 370.102C74.6737 370.102 76.3076 365.491 76.3076 358.873C76.3076 352.255 74.6737 347.644 73.2094 347.644Z" fill="white" fill-opacity="0.6"/>
<path d="M65.1228 365.108C63.678 365.108 62.7713 364.74 62.4222 364.008C61.947 363.004 62.6695 361.593 64.5216 359.925C66.2429 358.374 68.7447 356.778 71.5714 355.435C75.2466 353.69 78.8782 352.643 81.2976 352.643C82.7425 352.643 83.6491 353.011 83.9982 353.743C84.4734 354.747 83.751 356.158 81.8988 357.826C80.1776 359.377 77.6757 360.972 74.849 362.315C71.1738 364.061 67.5423 365.108 65.1228 365.108ZM81.2976 353.36C78.9848 353.36 75.4648 354.378 71.8817 356.08C69.118 357.394 66.6744 358.951 65.0016 360.458C63.4792 361.831 62.7567 363.043 63.0671 363.702C63.2804 364.148 64.0077 364.395 65.1228 364.395C67.4356 364.395 70.9556 363.377 74.5387 361.675C77.3024 360.361 79.7461 358.805 81.4188 357.297C82.9413 355.925 83.6637 354.713 83.3534 354.054C83.14 353.607 82.4128 353.36 81.2976 353.36Z" fill="white" fill-opacity="0.6"/>
<path d="M81.3309 365.855C78.9697 365.855 75.1102 364.434 71.2653 362.156C66.2859 359.198 61.6749 354.907 62.9404 352.778C63.2895 352.197 64.0119 351.901 65.0931 351.901C67.4544 351.901 71.3138 353.322 75.1587 355.6C80.1382 358.558 84.7491 362.849 83.4837 364.977C83.1394 365.564 82.4121 365.86 81.3309 365.86V365.855ZM65.0931 352.614C64.5355 352.614 63.8179 352.706 63.5561 353.142C62.8094 354.403 65.9416 358.16 71.6338 361.54C75.3187 363.726 79.1248 365.142 81.3357 365.142C81.8933 365.142 82.6109 365.05 82.8727 364.614C83.6194 363.353 80.4872 359.596 74.7951 356.216C71.1102 354.029 67.304 352.614 65.0931 352.614Z" fill="white" fill-opacity="0.6"/>
<path d="M74.2906 358.636C74.2906 359.3 73.7524 359.838 73.0882 359.838C72.4239 359.838 71.8857 359.3 71.8857 358.636C71.8857 357.971 72.4239 357.433 73.0882 357.433C73.7524 357.433 74.2906 357.971 74.2906 358.636Z" fill="#F7DB00" fill-opacity="0.6"/>
<path d="M74.5289 347.202C74.5289 347.867 73.9907 348.405 73.3265 348.405C72.6622 348.405 72.124 347.867 72.124 347.202C72.124 346.538 72.6622 346 73.3265 346C73.9907 346 74.5289 346.538 74.5289 347.202Z" fill="#DC3258"/>
<path d="M64.4049 363.993C64.4049 364.657 63.8667 365.195 63.2024 365.195C62.5382 365.195 62 364.657 62 363.993C62 363.329 62.5382 362.791 63.2024 362.791C63.8667 362.791 64.4049 363.329 64.4049 363.993Z" fill="white" fill-opacity="0.6"/>
<path d="M84.8902 364.114C84.8902 364.778 84.352 365.316 83.6878 365.316C83.0235 365.316 82.4854 364.778 82.4854 364.114C82.4854 363.45 83.0235 362.912 83.6878 362.912C84.352 362.912 84.8902 363.45 84.8902 364.114Z" fill="#9FE08B"/>
</g>
<path opacity="0.45" d="M62.2746 409.275C61.3612 410.188 58 411 58 411C58 411 61.3612 411.812 62.2746 412.725C63.1881 413.638 64 418 64 418C64 418 64.8119 413.638 65.7254 412.725C66.6388 411.812 70 411 70 411C70 411 66.6388 410.188 65.7254 409.275C64.8119 408.362 64 404 64 404C64 404 63.1881 408.362 62.2746 409.275Z" fill="#F9FFFF"/>
<path opacity="0.45" d="M81.206 483.768C80.5209 484.42 78 485 78 485C78 485 80.5209 485.58 81.206 486.232C81.891 486.884 82.5 490 82.5 490C82.5 490 83.109 486.884 83.794 486.232C84.4791 485.58 87 485 87 485C87 485 84.4791 484.42 83.794 483.768C83.109 483.116 82.5 480 82.5 480C82.5 480 81.891 483.116 81.206 483.768Z" fill="#F9FFFF"/>
<path opacity="0.45" d="M69.206 438.768C68.5209 439.42 66 440 66 440C66 440 68.5209 440.58 69.206 441.232C69.891 441.884 70.5 445 70.5 445C70.5 445 71.109 441.884 71.794 441.232C72.4791 440.58 75 440 75 440C75 440 72.4791 439.42 71.794 438.768C71.109 438.116 70.5 435 70.5 435C70.5 435 69.891 438.116 69.206 438.768Z" fill="#F9FFFF"/>
<path opacity="0.15" d="M46.206 508.768C45.5209 509.42 43 510 43 510C43 510 45.5209 510.58 46.206 511.232C46.891 511.884 47.5 515 47.5 515C47.5 515 48.109 511.884 48.794 511.232C49.4791 510.58 52 510 52 510C52 510 49.4791 509.42 48.794 508.768C48.109 508.116 47.5 505 47.5 505C47.5 505 46.891 508.116 46.206 508.768Z" fill="#F9FFFF"/>
<path opacity="0.15" d="M87.206 522.768C86.5209 523.42 84 524 84 524C84 524 86.5209 524.58 87.206 525.232C87.891 525.884 88.5 529 88.5 529C88.5 529 89.109 525.884 89.794 525.232C90.4791 524.58 93 524 93 524C93 524 90.4791 523.42 89.794 522.768C89.109 522.116 88.5 519 88.5 519C88.5 519 87.891 522.116 87.206 522.768Z" fill="#F9FFFF"/>
<path opacity="0.15" d="M70.206 550.768C69.5209 551.42 67 552 67 552C67 552 69.5209 552.58 70.206 553.232C70.891 553.884 71.5 557 71.5 557C71.5 557 72.109 553.884 72.794 553.232C73.4791 552.58 76 552 76 552C76 552 73.4791 551.42 72.794 550.768C72.109 550.116 71.5 547 71.5 547C71.5 547 70.891 550.116 70.206 550.768Z" fill="#F9FFFF"/>
<g opacity="0.45">
<path d="M23.6564 405.361L42.648 368L18.7868 396.073L23.6564 405.361Z" fill="white" fill-opacity="0.6"/>
<g style="mix-blend-mode:multiply" opacity="0.4">
<path d="M23.6564 405.361L42.648 368L18.7868 396.073L23.6564 405.361Z" fill="#71A3FF"/>
</g>
<path d="M42.6485 368C42.6024 368.498 32.1123 397.253 32.1123 397.253L28.1447 396.948L20.2837 396.354L23.6569 405.361L16.4265 395.638L5.27907 394.839L42.6485 368Z" fill="white" fill-opacity="0.6"/>
<g style="mix-blend-mode:multiply" opacity="0.4">
<path d="M23.6576 405.361L16.4218 395.641L42.6492 368L20.279 396.357L23.6576 405.361Z" fill="#71A3FF"/>
</g>
<g style="mix-blend-mode:multiply" opacity="0.4">
<path d="M23.6576 405.361L16.4218 395.641L42.6492 368L20.279 396.357L23.6576 405.361Z" fill="#71A3FF"/>
</g>
</g>
<path opacity="0.45" d="M149.352 687.695C149.034 688.093 148.518 688.321 147.976 688.246C147.217 688.138 146.485 688.012 145.773 687.878C144.959 687.726 144.43 686.931 144.582 686.117C144.734 685.303 145.521 684.768 146.343 684.926C146.997 685.053 147.686 685.169 148.387 685.269C149.204 685.385 149.778 686.14 149.67 686.963C149.629 687.238 149.521 687.484 149.352 687.695ZM141.479 685.656C141.073 686.164 140.362 686.363 139.728 686.099C138.706 685.664 137.734 685.181 136.857 684.645C136.148 684.219 135.925 683.297 136.352 682.588C136.779 681.879 137.7 681.656 138.409 682.083C139.165 682.547 140 682.96 140.881 683.332C141.649 683.653 142.009 684.531 141.681 685.293C141.625 685.427 141.553 685.549 141.471 685.65L141.479 685.656ZM134.373 680.324C134.298 680.418 134.209 680.513 134.102 680.582C133.438 681.075 132.5 680.951 131.999 680.281C131.356 679.42 130.775 678.481 130.295 677.482C129.934 676.732 130.241 675.837 130.991 675.477C131.74 675.116 132.635 675.423 132.996 676.173C133.4 676.996 133.871 677.783 134.397 678.486C134.821 679.044 134.791 679.801 134.373 680.324ZM131.067 672.053C130.842 672.334 130.522 672.526 130.146 672.596C129.329 672.737 128.556 672.182 128.416 671.365C128.251 670.387 128.128 669.341 128.05 668.254C127.994 667.428 128.612 666.705 129.438 666.649C130.264 666.593 130.987 667.21 131.043 668.037C131.117 669.031 131.231 669.993 131.379 670.881C131.449 671.321 131.325 671.747 131.069 672.067L131.067 672.053ZM130.658 663.078C130.37 663.437 129.925 663.657 129.425 663.641C128.596 663.605 127.95 662.908 127.986 662.079C128.026 661.085 128.084 660.069 128.161 659.029C128.219 658.204 128.939 657.577 129.772 657.641C130.596 657.699 131.224 658.419 131.159 659.252C131.092 660.248 131.022 661.23 130.988 662.202C130.975 662.538 130.851 662.836 130.658 663.078ZM131.38 654.112C131.074 654.495 130.587 654.719 130.062 654.671C129.234 654.584 128.641 653.853 128.713 653.027L128.776 652.437C128.859 651.645 128.936 650.861 128.997 650.065C129.07 649.239 129.791 648.625 130.618 648.697C131.444 648.77 132.057 649.491 131.985 650.318C131.911 651.13 131.837 651.942 131.749 652.755L131.685 653.332C131.654 653.627 131.535 653.903 131.36 654.122L131.38 654.112ZM132.023 645.134C131.736 645.493 131.291 645.713 130.805 645.696C129.977 645.674 129.331 644.977 129.353 644.149C129.386 643.164 129.406 642.18 129.403 641.191C129.403 640.359 130.077 639.694 130.909 639.694C131.742 639.694 132.407 640.368 132.406 641.2C132.404 642.211 132.382 643.231 132.352 644.244C132.339 644.58 132.217 644.892 132.023 645.134ZM131.945 636.129C131.688 636.449 131.293 636.671 130.847 636.685C130.019 636.726 129.315 636.086 129.273 635.258C129.228 634.274 129.162 633.285 129.089 632.305C129.019 631.48 129.636 630.757 130.468 630.694C131.293 630.624 132.016 631.241 132.079 632.073C132.155 633.082 132.225 634.099 132.273 635.111C132.287 635.494 132.17 635.848 131.951 636.121L131.945 636.129ZM131.11 627.172C130.879 627.461 130.539 627.662 130.146 627.72C129.327 627.832 128.566 627.262 128.454 626.442C128.317 625.461 128.174 624.488 128.01 623.524C127.87 622.707 128.425 621.934 129.242 621.794C130.059 621.654 130.832 622.209 130.972 623.026C131.14 624.032 131.292 625.025 131.433 626.034C131.493 626.454 131.368 626.866 131.118 627.178L131.11 627.172ZM129.484 618.324C129.284 618.574 129 618.769 128.653 618.85C127.849 619.039 127.038 618.531 126.85 617.726C126.63 616.769 126.382 615.815 126.134 614.86C125.917 614.059 126.396 613.238 127.197 613.021C127.998 612.804 128.82 613.283 129.036 614.084C129.301 615.065 129.546 616.055 129.777 617.047C129.886 617.518 129.759 617.981 129.484 618.324ZM127.005 609.677C126.83 609.896 126.599 610.056 126.325 610.158C125.544 610.429 124.687 610.012 124.422 609.223C124.105 608.291 123.769 607.367 123.425 606.452C123.134 605.68 123.521 604.812 124.293 604.521C125.065 604.229 125.933 604.617 126.225 605.388C126.586 606.344 126.934 607.302 127.26 608.255C127.43 608.762 127.325 609.293 127.013 609.683L127.005 609.677ZM123.65 601.341C123.512 601.512 123.329 601.661 123.112 601.756C122.361 602.102 121.465 601.782 121.118 601.03C120.7 600.144 120.268 599.26 119.823 598.392C119.442 597.651 119.741 596.75 120.468 596.371C121.208 595.99 122.115 596.281 122.488 597.016C122.952 597.925 123.401 598.835 123.838 599.762C124.089 600.296 124 600.903 123.65 601.341ZM119.38 593.425C119.274 593.558 119.145 593.672 118.998 593.759C118.292 594.193 117.364 593.976 116.93 593.269C116.418 592.437 115.886 591.614 115.334 590.8C114.873 590.111 115.049 589.188 115.744 588.72C116.433 588.259 117.363 588.441 117.824 589.13C118.401 589.976 118.944 590.834 119.481 591.7C119.82 592.253 119.762 592.949 119.38 593.425ZM114.14 586.115C114.083 586.186 114.021 586.264 113.941 586.315C113.31 586.847 112.364 586.781 111.831 586.15C111.187 585.403 110.531 584.686 109.88 584.011C109.303 583.421 109.311 582.466 109.901 581.889C110.492 581.311 111.446 581.32 112.024 581.91C112.729 582.629 113.433 583.398 114.112 584.198C114.587 584.757 114.583 585.561 114.146 586.108L114.14 586.115ZM107.597 579.967C107.097 580.591 106.193 580.713 105.536 580.238C104.761 579.669 103.962 579.131 103.161 578.644C102.452 578.217 102.229 577.295 102.656 576.587C103.09 575.884 104.004 575.655 104.713 576.081C105.59 576.618 106.466 577.204 107.317 577.821C107.984 578.316 108.13 579.253 107.635 579.92C107.622 579.936 107.61 579.951 107.597 579.967ZM99.7125 575.703C99.3187 576.194 98.6517 576.403 98.0287 576.174C97.1387 575.845 96.2189 575.57 95.3023 575.323C94.5043 575.119 94.0222 574.298 94.2256 573.5C94.4352 572.694 95.2507 572.22 96.0486 572.423C97.059 572.681 98.0614 572.997 99.0467 573.35C99.8321 573.633 100.227 574.5 99.9422 575.272C99.8813 575.428 99.8047 575.572 99.7047 575.696L99.7125 575.703ZM90.9379 573.878C90.6441 574.244 90.1787 574.474 89.6695 574.438C88.7232 574.372 87.7611 574.357 86.796 574.379C85.9651 574.392 85.2814 573.742 85.2677 572.911C85.254 572.08 85.9119 571.403 86.7349 571.383C87.7782 571.36 88.8339 571.386 89.8584 571.45C90.6829 571.508 91.3088 572.215 91.2585 573.045C91.2365 573.361 91.1192 573.651 90.9317 573.885L90.9379 573.878ZM81.9749 574.4C81.7561 574.673 81.4374 574.879 81.0594 574.935C80.1239 575.095 79.1633 575.287 78.2137 575.513C77.4093 575.702 76.6006 575.208 76.4042 574.397C76.2156 573.593 76.7094 572.784 77.5201 572.588C78.5322 572.347 79.5552 572.142 80.5533 571.967C81.3701 571.827 82.1492 572.374 82.2894 573.191C82.3594 573.631 82.2358 574.058 81.9796 574.378L81.9749 574.4ZM73.2874 576.705C73.1186 576.916 72.8952 577.083 72.6141 577.178C71.7034 577.5 70.7881 577.843 69.8477 578.217C69.0776 578.523 68.2095 578.135 67.9038 577.365C67.598 576.595 67.9857 575.727 68.7558 575.421C69.7243 575.044 70.6802 574.682 71.6112 574.351C72.3922 574.08 73.2478 574.483 73.527 575.27C73.7111 575.776 73.5999 576.315 73.2811 576.713L73.2874 576.705ZM64.9196 580.036C64.7696 580.223 64.5665 580.381 64.3291 580.485L61.5549 581.646C60.7863 581.966 59.9135 581.6 59.5937 580.831C59.2739 580.063 59.6398 579.19 60.4083 578.87L63.1762 577.717C63.9448 577.398 64.8238 577.756 65.1436 578.524C65.3651 579.047 65.2587 579.628 64.9274 580.042L64.9196 580.036ZM56.5705 583.407C56.408 583.61 56.1846 583.777 55.9253 583.876C54.9756 584.231 54.0181 584.578 53.0512 584.906C52.2624 585.171 51.4193 584.752 51.1541 583.963C50.889 583.174 51.308 582.331 52.089 582.06C53.0215 581.743 53.9446 581.406 54.8678 581.07C55.6394 580.778 56.5075 581.166 56.8008 581.951C56.9926 582.464 56.883 583.016 56.5643 583.415L56.5705 583.407ZM47.9891 586.092C47.789 586.342 47.5047 586.537 47.1642 586.61C46.124 586.853 45.101 587.059 44.1232 587.224C43.3064 587.364 42.5398 586.802 42.3996 585.985C42.2657 585.16 42.8221 584.401 43.6389 584.261C44.5479 584.118 45.5007 583.92 46.4784 583.691C47.2828 583.502 48.0916 583.996 48.2817 584.815C48.3908 585.286 48.2641 585.749 47.9891 586.092ZM39.0742 587.114C38.7929 587.465 38.3477 587.685 37.8558 587.675C36.7782 587.645 35.7069 587.543 34.6793 587.387C33.861 587.257 33.2992 586.486 33.4292 585.668C33.5592 584.85 34.3294 584.288 35.1477 584.418C36.0456 584.561 36.9873 584.648 37.9431 584.671C38.7708 584.693 39.4233 585.382 39.401 586.21C39.3884 586.546 39.2664 586.858 39.0726 587.1L39.0742 587.114ZM30.3715 585.103C29.9465 585.634 29.2061 585.822 28.5613 585.524C27.6088 585.081 26.6689 584.559 25.7587 583.984C25.0624 583.542 24.8598 582.611 25.3021 581.915C25.7381 581.226 26.6753 581.016 27.3716 581.458C28.1679 581.967 28.9938 582.424 29.826 582.808C30.5755 583.152 30.903 584.055 30.5513 584.798C30.4997 584.911 30.4325 585.011 30.3575 585.104L30.3715 585.103ZM23.1057 579.874C23.0682 579.921 23.0307 579.968 22.9994 580.007C22.4088 580.584 21.4624 580.582 20.8786 579.999C20.1652 579.274 19.4597 578.492 18.7792 577.678C18.2532 577.039 18.3333 576.091 18.9863 575.563C19.6253 575.037 20.567 575.125 21.1008 575.77C21.7173 576.52 22.3651 577.231 23.0223 577.898C23.5593 578.444 23.5979 579.307 23.1291 579.893L23.1057 579.874ZM17.6492 572.737C17.543 572.87 17.407 572.992 17.2539 573.087C16.54 573.514 15.625 573.281 15.1974 572.567C14.6746 571.7 14.1675 570.782 13.6885 569.86C13.3155 569.126 13.5924 568.22 14.3328 567.84C15.0733 567.459 15.9665 567.751 16.3534 568.484C16.7981 569.353 17.2772 570.21 17.7656 571.024C18.0902 571.579 18.0305 572.261 17.6492 572.737ZM13.7503 564.632C13.5878 564.835 13.3706 564.994 13.1113 565.094C12.3397 565.385 11.4715 564.997 11.1798 564.226C10.818 563.27 10.4749 562.291 10.1614 561.322C9.91034 560.532 10.3433 559.687 11.1259 559.43C11.9163 559.179 12.7609 559.612 13.0183 560.394C13.3192 561.314 13.6421 562.239 13.9852 563.154C14.1771 563.667 14.0753 564.226 13.7565 564.624L13.7503 564.632ZM11.2025 556.006C10.9962 556.264 10.6978 556.461 10.3433 556.535C9.53732 556.71 8.73328 556.194 8.55875 555.388C8.34058 554.381 8.14897 553.356 7.98234 552.365C7.85622 551.546 8.41099 550.773 9.22159 550.641C10.0322 550.509 10.805 551.063 10.9452 551.88C11.0993 552.824 11.2847 553.792 11.4904 554.751C11.5917 555.216 11.4634 555.665 11.1947 556L11.2025 556.006ZM10.0166 547.088C9.7541 547.416 9.36515 547.63 8.91223 547.652C8.09074 547.686 7.38668 547.045 7.3449 546.217C7.32179 545.558 7.30648 544.905 7.30053 544.273C7.30071 543.889 7.30871 543.511 7.30889 543.127C7.31709 542.3 8.00457 541.634 8.83073 541.642C9.65689 541.65 10.3234 542.338 10.3152 543.164C10.3057 543.528 10.304 543.898 10.3085 544.26C10.3097 544.851 10.3204 545.461 10.3529 546.077C10.373 546.451 10.2417 546.807 10.0229 547.081L10.0166 547.088ZM10.3317 538.104C10.0254 538.486 9.53802 538.711 9.0133 538.662C8.18562 538.576 7.5925 537.845 7.67253 537.025C7.78077 536.01 7.90933 534.985 8.05349 533.974C8.1835 533.155 8.93963 532.595 9.76417 532.717C10.5825 532.847 11.1428 533.603 11.0206 534.428C10.878 535.39 10.751 536.364 10.6584 537.328C10.6271 537.623 10.5082 537.899 10.3395 538.11L10.3317 538.104ZM47.5312 487.426C47.0624 488.011 46.5577 488.594 46.0233 489.165C45.4577 489.775 44.5081 489.809 43.904 489.236C43.2936 488.67 43.266 487.713 43.8332 487.116C44.4941 486.403 45.0988 485.696 45.6567 484.951C46.1365 484.272 47.0908 484.152 47.7574 484.648C48.424 485.143 48.5563 486.082 48.061 486.748C47.8797 486.975 47.7125 487.199 47.5312 487.426ZM50.9526 481.569C50.5526 482.069 49.8638 482.273 49.2392 482.029C48.4663 481.731 48.0856 480.862 48.3843 480.089C48.7095 479.235 48.9879 478.343 49.1929 477.432C49.3807 476.621 50.179 476.12 50.9895 476.308C51.7999 476.496 52.3009 477.294 52.1131 478.104C51.8736 479.155 51.5608 480.186 51.1792 481.174C51.1245 481.323 51.0464 481.452 50.9526 481.569ZM41.6892 493.137C41.6267 493.216 41.5501 493.295 41.4657 493.369C40.6892 494.002 39.8831 494.625 39.0551 495.243C38.3911 495.736 37.4526 495.612 36.9594 494.948C36.4599 494.292 36.5963 493.338 37.254 492.853C38.0492 492.26 38.8288 491.654 39.5787 491.038C40.2255 490.518 41.1609 490.613 41.6869 491.252C42.1396 491.807 42.1267 492.591 41.6954 493.13L41.6892 493.137ZM11.921 529.256C11.5647 529.701 10.9634 529.924 10.37 529.769C9.56421 529.559 9.08982 528.744 9.29947 527.938C9.56544 526.934 9.85328 525.935 10.1598 524.976C10.4132 524.179 11.2552 523.752 12.0453 524.013C12.8354 524.274 13.2629 525.116 13.008 525.899C12.7171 526.806 12.4371 527.747 12.193 528.692C12.1383 528.904 12.0382 529.093 11.9132 529.25L11.921 529.256ZM34.473 498.517C34.3917 498.619 34.2886 498.716 34.1839 498.798C33.4324 499.337 32.6685 499.891 31.9061 500.459L31.7686 500.567C31.1046 501.06 30.1567 500.916 29.6698 500.244C29.1766 499.58 29.3285 498.638 29.9925 498.145L30.1238 498.045C30.9002 497.476 31.6642 496.922 32.4281 496.367C33.0999 495.881 34.0415 496.032 34.5285 496.704C34.9312 497.257 34.8933 498.008 34.4808 498.524L34.473 498.517ZM14.9329 520.791C14.5141 521.314 13.7675 521.51 13.1367 521.21C12.3872 520.866 12.0535 519.971 12.4036 519.214C12.8398 518.269 13.2994 517.344 13.784 516.45C14.1654 515.718 15.0885 515.445 15.8145 515.834C16.5405 516.224 16.8197 517.139 16.4305 517.865C15.9756 518.705 15.5457 519.578 15.1392 520.469C15.0876 520.582 15.0204 520.682 14.9454 520.775L14.9329 520.791ZM27.405 504.08C27.355 504.143 27.305 504.205 27.2394 504.255C26.5082 504.912 25.7942 505.596 25.1145 506.269C24.5317 506.852 23.579 506.858 22.9874 506.269C22.4036 505.686 22.4056 504.74 22.9868 504.142C23.6978 503.43 24.4446 502.722 25.2211 502.024C25.8352 501.465 26.7878 501.523 27.3388 502.131C27.8414 502.687 27.8473 503.512 27.3972 504.074L27.405 504.08ZM52.4092 472.743C52.1404 473.079 51.7233 473.296 51.2626 473.311C50.4318 473.325 49.7543 472.667 49.7406 471.836C49.73 471.225 49.7037 470.602 49.6541 469.96C49.6323 469.636 49.5966 469.312 49.5608 468.989C49.4628 468.167 50.0566 467.426 50.8859 467.334C51.7075 467.236 52.449 467.83 52.5408 468.659C52.5796 469.011 52.6123 469.37 52.6386 469.737C52.6883 470.443 52.7286 471.128 52.7314 471.797C52.7359 472.159 52.6092 472.493 52.3967 472.759L52.4092 472.743ZM19.4219 513.009C18.9281 513.626 18.0394 513.76 17.3837 513.299C16.7046 512.819 16.5442 511.884 17.0239 511.205C17.6147 510.371 18.2413 509.54 18.8773 508.73C19.3961 508.082 20.3379 507.978 20.9858 508.497C21.6336 509.016 21.7378 509.957 21.219 510.605C20.6127 511.362 20.0298 512.138 19.4703 512.933C19.4516 512.956 19.4328 512.98 19.4141 513.003L19.4219 513.009ZM50.9063 463.917C50.7313 464.136 50.5001 464.296 50.2267 464.398C49.4457 464.669 48.5885 464.252 48.3234 463.463C48.0271 462.585 47.6589 461.701 47.2642 460.834C46.9179 460.083 47.2384 459.186 47.9898 458.84C48.7412 458.494 49.6375 458.814 49.9838 459.566C50.4316 460.526 50.8325 461.513 51.1678 462.487C51.3378 462.994 51.2329 463.525 50.9204 463.915L50.9063 463.917ZM46.7683 455.966C46.6808 456.075 46.5714 456.18 46.4527 456.264C45.7716 456.731 44.8362 456.571 44.3617 455.883C43.8373 455.13 43.2755 454.36 42.6293 453.535C42.1158 452.881 42.2318 451.936 42.8942 451.429C43.5488 450.915 44.4874 451.039 45.0009 451.694C45.6736 452.565 46.2682 453.375 46.8332 454.173C47.2218 454.728 47.1746 455.458 46.7683 455.966ZM41.1066 446.974L40.002 447.985L38.8568 448.951C38.1934 448.164 37.5487 447.417 36.9088 446.649C36.3828 446.01 36.4566 445.069 37.1019 444.536C37.7331 444.003 38.6888 444.09 39.2148 444.729C39.8392 445.485 40.4838 446.232 41.1066 446.974ZM45.0569 435.673C45.0131 435.728 44.9694 435.783 44.9178 435.831C44.1069 436.604 43.1695 437.262 42.1479 437.802C41.4153 438.189 40.508 437.898 40.1211 437.166C39.7341 436.433 40.025 435.526 40.7577 435.139C41.5372 434.725 42.2433 434.227 42.862 433.647C43.4604 433.075 44.41 433.106 44.9813 433.704C45.5042 434.251 45.5194 435.096 45.0631 435.666L45.0569 435.673ZM48.0407 430.555C47.6781 431.008 47.0767 431.231 46.4818 431.062C45.6823 430.845 45.2079 430.029 45.4176 429.224C45.6397 428.402 45.776 427.512 45.828 426.567C45.8721 425.744 46.5846 425.11 47.4076 425.155C48.2306 425.199 48.8643 425.911 48.8202 426.734C48.7619 427.879 48.5849 428.98 48.3064 430C48.2517 430.212 48.1579 430.393 48.0328 430.549L48.0407 430.555ZM35.5305 441.906C35.4492 442.008 35.3461 442.105 35.2273 442.189C34.5556 442.676 33.6202 442.516 33.1332 441.844C32.6447 441.159 32.1703 440.471 31.7068 439.754C31.596 439.589 31.4914 439.415 31.3947 439.248C31.1856 438.901 31.1342 438.501 31.2218 438.136C31.1891 437.969 31.1767 437.792 31.2002 437.619C31.3084 436.796 32.063 436.222 32.8859 436.33C33.8026 436.449 34.7256 436.496 35.6174 436.454C36.4451 436.413 37.1429 437.061 37.1847 437.889C37.2265 438.717 36.578 439.414 35.7503 439.456C35.5457 439.472 35.3395 439.473 35.1334 439.475C35.2848 439.686 35.4299 439.904 35.5875 440.107C35.9839 440.668 35.9524 441.412 35.5461 441.919L35.5305 441.906ZM47.2577 421.806C47.1327 421.962 46.9764 422.093 46.7952 422.192C46.0626 422.579 45.1569 422.302 44.7699 421.569C44.3642 420.796 43.8554 420.119 43.2716 419.537C42.6816 418.962 42.6617 418.011 43.2508 417.419C43.8258 416.829 44.7847 416.815 45.3685 417.398C46.1818 418.19 46.8685 419.124 47.4255 420.173C47.7142 420.724 47.6358 421.366 47.2733 421.819L47.2577 421.806ZM31.7142 433.841C31.508 434.099 31.2159 434.288 30.8691 434.369C30.0632 434.543 29.2607 434.042 29.0846 433.222C28.8539 432.166 28.6936 431.102 28.6254 430.036C28.5695 429.209 29.1868 428.487 30.0129 428.431C30.8391 428.375 31.5619 428.992 31.6178 429.818C31.6829 430.729 31.8215 431.66 32.0147 432.57C32.116 433.036 31.9955 433.49 31.7205 433.834L31.7142 433.841ZM28.1567 436.988C27.7254 437.527 26.9569 437.719 26.309 437.392C25.3222 436.896 24.3901 436.316 23.5283 435.665C22.8679 435.162 22.7356 434.223 23.2388 433.563C23.7405 432.888 24.6807 432.77 25.3411 433.273C26.0483 433.814 26.8274 434.297 27.6549 434.703C28.3934 435.077 28.6928 435.983 28.3192 436.721C28.2723 436.812 28.2114 436.904 28.1489 436.982L28.1567 436.988ZM40.0774 417.222C39.8211 417.542 39.4321 417.756 38.987 417.784C38.2233 417.826 37.4642 418.038 36.7175 418.426C35.9833 418.799 35.0761 418.508 34.6954 417.768C34.3225 417.034 34.6134 416.126 35.3538 415.746C36.4786 415.173 37.6453 414.852 38.8198 414.793C39.6475 414.751 40.3578 415.384 40.3996 416.212C40.4213 416.601 40.2962 416.949 40.0711 417.23L40.0774 417.222ZM31.8372 424.921C31.4684 425.381 30.8514 425.592 30.2564 425.423C29.4632 425.198 29.0013 424.367 29.2266 423.573C29.5379 422.465 29.971 421.428 30.5071 420.486C30.9119 419.773 31.8288 419.508 32.5501 419.919C33.2714 420.33 33.5287 421.241 33.1176 421.962C32.7018 422.705 32.3579 423.519 32.1138 424.399C32.0575 424.598 31.9637 424.779 31.845 424.927L31.8372 424.921ZM21.569 431.008C21.4815 431.118 21.3784 431.214 21.2596 431.299C20.5863 431.772 19.6431 431.606 19.1702 430.932C18.5943 430.1 18.0262 429.209 17.4894 428.28C17.0822 427.556 17.3294 426.64 18.0526 426.232C18.7759 425.825 19.6925 426.072 20.0998 426.796C20.5851 427.645 21.1017 428.456 21.626 429.209C22.0147 429.764 21.9753 430.501 21.569 431.008ZM17.4357 423.035C17.2732 423.238 17.0498 423.405 16.7905 423.505C16.011 423.79 15.1492 423.395 14.8637 422.615C14.5065 421.638 14.1759 420.643 13.8953 419.649C13.6723 418.856 14.135 418.022 14.9285 417.799C15.7219 417.576 16.5557 418.039 16.7786 418.832C17.0374 419.757 17.3384 420.677 17.6722 421.572C17.8641 422.084 17.7545 422.637 17.4357 423.035ZM15.394 414.29C15.1502 414.595 14.7893 414.805 14.3598 414.846C13.5289 414.923 12.7999 414.314 12.73 413.489C12.6259 412.419 12.5858 411.35 12.5941 410.331C12.6023 409.505 13.2898 408.839 14.1159 408.847C14.9421 408.855 15.6086 409.543 15.5926 410.362C15.5797 411.274 15.6214 412.23 15.7068 413.195C15.7441 413.597 15.6159 413.981 15.3846 414.27L15.394 414.29ZM16.1291 405.373C15.7603 405.833 15.1308 406.06 14.5265 405.87C13.7317 405.631 13.2838 404.798 13.5232 404.004C13.8391 402.937 14.2457 401.917 14.724 400.968C15.0976 400.23 16.0036 399.93 16.7421 400.304C17.4806 400.677 17.7801 401.583 17.4064 402.322C17.0031 403.114 16.6701 403.961 16.3995 404.859C16.3416 405.043 16.2541 405.217 16.1353 405.365L16.1291 405.373Z" fill="white" fill-opacity="0.6"/>
<g opacity="0.45">
<g style="mix-blend-mode:multiply" opacity="0.4">
<path d="M79.0179 332.37L75.425 328.379L71.6048 324.136L37.2898 311.234L36.664 310.998L36.5042 310.937L35.6608 310.619L35.4833 310.554C35.1322 310.352 34.7725 310.181 34.4127 309.997C34.0573 309.813 33.6888 309.66 33.3247 309.494C32.6008 309.157 31.8638 308.852 31.1181 308.564L31.0249 308.524L30.9236 308.627C30.6374 308.916 30.3822 309.206 30.1272 309.526C29.8765 309.842 29.6349 310.18 29.4022 310.531C29.2836 310.705 29.1784 310.887 29.0643 311.069C28.9502 311.247 28.8539 311.442 28.7531 311.629C28.6479 311.816 28.556 312.011 28.4642 312.211C28.3679 312.406 28.276 312.602 28.1975 312.806C28.1189 313.01 28.0315 313.21 27.9663 313.418L27.7661 314.04C27.7053 314.248 27.6623 314.456 27.6103 314.665C27.554 314.873 27.5153 315.077 27.4855 315.286C27.4557 315.49 27.417 315.698 27.4005 315.897L27.3685 316.496C27.3398 316.894 27.3862 317.257 27.3972 317.629L67.6061 332.645L79.0847 332.45L79.0134 332.37L79.0179 332.37Z" fill="#6FAEDC"/>
</g>
<path d="M71.2941 320.891L30.6941 305.625C30.6941 305.625 26.9348 309.602 27.091 314.38L67.2998 329.396L78.7785 329.201L71.2941 320.891Z" fill="#AB00C9"/>
<path d="M71.2941 320.891L70.5396 320.607C70.1315 321.265 69.7599 322.1 69.4958 323.151C69.4958 323.151 67.2913 324.099 67.7403 327.449C67.7403 327.449 67.0801 328.166 66.5453 329.112L67.2998 329.396L78.7785 329.2L71.2941 320.891Z" fill="#F9A56A"/>
<path d="M78.7785 329.205L75.1143 325.134C74.6207 325.558 74.0438 326.11 73.847 326.541C73.4796 327.349 73.1078 328.157 73.1078 328.157L72.9195 329.288L78.7785 329.201L78.7785 329.205Z" fill="#F7DB00" fill-opacity="0.6"/>
<path d="M78.7785 329.205L75.1143 325.134C74.6207 325.558 74.0438 326.11 73.847 326.541C73.4796 327.349 73.1078 328.157 73.1078 328.157L72.9195 329.288L78.7785 329.201L78.7785 329.205Z" fill="#5B2914"/>
<g style="mix-blend-mode:screen" opacity="0.3">
<path d="M28.7085 308.427L69.4915 323.151L78.6413 329.206L78.7742 329.205L71.2898 320.895L30.6898 305.63C30.6898 305.63 29.6641 306.716 28.7086 308.431L28.7085 308.427Z" fill="#F7DB00" fill-opacity="0.6"/>
</g>
<g style="mix-blend-mode:multiply">
<g style="mix-blend-mode:multiply" opacity="0.4">
<path d="M67.7401 327.448L27.3121 312.066C27.1569 312.807 27.064 313.578 27.0908 314.38L67.2996 329.395L78.7783 329.2L78.707 329.121C76.0963 328.769 67.7401 327.448 67.7401 327.448Z" fill="#6FAEDC"/>
</g>
</g>
<path d="M36.9787 307.989L30.6892 305.625C30.6892 305.625 26.9299 309.602 27.0861 314.38L33.5486 316.792C33.7542 313.296 35.8683 309.732 36.9742 307.985L36.9787 307.989Z" fill="#E27975"/>
<g style="mix-blend-mode:multiply" opacity="0.5">
<path d="M36.4439 308.851C36.428 308.408 36.346 308.019 36.1936 307.692L34.4891 307.051C33.881 308.348 31.8591 312.518 30.7458 313.012C29.8314 313.416 28.4101 311.958 27.729 310.589C27.3193 311.743 27.0478 313.029 27.0866 314.38L33.5491 316.791C33.7266 313.796 35.2946 310.758 36.4394 308.851L36.4439 308.851Z" fill="#FFBDC0"/>
</g>
<path d="M31.7914 316.138L33.5534 316.792C33.759 313.296 35.8731 309.732 36.9791 307.985L35.177 307.305C33.8115 309.354 31.7421 312.994 31.7958 316.134L31.7914 316.138Z" fill="white" fill-opacity="0.6"/>
<g style="mix-blend-mode:multiply" opacity="0.3">
<path d="M31.7914 316.138L33.5534 316.792C33.759 313.296 35.8731 309.732 36.9791 307.985L35.177 307.305C33.8115 309.354 31.7421 312.994 31.7958 316.134L31.7914 316.138Z" fill="#8F83FF"/>
</g>
<g style="mix-blend-mode:multiply" opacity="0.3">
<path d="M36.9788 307.99L36.3529 307.754C35.3628 308.854 34.3551 312.27 33.1462 313.836C32.034 315.277 32.9679 312.114 33.8211 309.545C32.7518 311.513 31.7562 313.946 31.791 316.138L33.5531 316.792C33.7587 313.296 35.8728 309.732 36.9787 307.985L36.9788 307.99Z" fill="#8F83FF"/>
</g>
<path d="M35.1769 307.309C34.7778 307.231 34.3963 307.123 34.0015 307.023C33.6112 306.924 33.234 306.798 32.848 306.685C32.0805 306.459 31.3217 306.206 30.5716 305.932L30.7661 305.868C30.5284 306.113 30.2776 306.403 30.0446 306.701C29.8072 306.995 29.5787 307.31 29.3591 307.63C29.2493 307.791 29.1484 307.964 29.0387 308.128C28.9289 308.293 28.8369 308.471 28.7361 308.644C28.6307 308.813 28.5432 308.995 28.4512 309.173C28.3593 309.35 28.2673 309.532 28.1887 309.719C28.11 309.901 28.0137 310.088 27.9439 310.274L27.7302 310.846C27.6649 311.037 27.6128 311.232 27.552 311.432C27.4867 311.627 27.4435 311.823 27.4048 312.022C27.3661 312.217 27.3097 312.417 27.2754 312.616L27.1858 313.21C27.1516 313.41 27.1438 313.6 27.1317 313.795L27.0864 314.385C27.0709 314.013 27.029 313.65 27.0576 313.251L27.0896 312.653C27.1062 312.453 27.1448 312.245 27.1746 312.041C27.2044 311.833 27.2431 311.629 27.2995 311.42C27.3514 311.212 27.3945 311.003 27.4553 310.795L27.6554 310.174C27.7206 309.965 27.8125 309.765 27.8866 309.561C27.9651 309.357 28.057 309.157 28.1533 308.966C28.2452 308.766 28.337 308.571 28.4422 308.384C28.5475 308.198 28.6437 307.998 28.7535 307.824C28.8676 307.647 28.9728 307.46 29.0914 307.287C29.3241 306.935 29.5613 306.602 29.8163 306.281C30.0713 305.961 30.3265 305.672 30.6127 305.382L30.714 305.28L30.8072 305.319C31.553 305.607 32.2899 305.913 33.0138 306.25C33.378 306.42 33.7465 306.573 34.1018 306.753C34.4572 306.937 34.8214 307.107 35.1724 307.309L35.1769 307.309Z" fill="#DC3258"/>
</g>
<g opacity="0.45">
<g style="mix-blend-mode:multiply" opacity="0.4">
<path d="M25.5951 345.186L22.8575 340.52C23.2702 340.093 23.4618 339.687 23.3162 339.439C23.0694 339.015 21.9382 339.214 20.7905 339.882C19.6428 340.551 18.9114 341.437 19.1583 341.859C19.3075 342.115 19.7773 342.143 20.3778 341.979L23.1081 346.633C21.3985 348.362 20.9913 351.087 22.2809 353.285C23.821 355.905 27.1924 356.78 29.812 355.241C32.4317 353.701 33.3068 350.33 31.7685 347.71C30.4845 345.525 27.9274 344.556 25.5951 345.185V345.186Z" fill="#6FAEDC"/>
</g>
<path d="M31.6592 346.492C33.1974 349.112 32.3224 352.483 29.7027 354.023C27.083 355.564 23.7117 354.687 22.1715 352.067C20.6314 349.447 21.5083 346.076 24.128 344.536C26.7477 342.996 30.119 343.873 31.6592 346.492Z" fill="white" fill-opacity="0.6"/>
<g style="mix-blend-mode:multiply" opacity="0.4">
<path d="M31.0143 346.872C32.3445 349.134 31.5873 352.049 29.325 353.377C27.0627 354.707 24.1501 353.95 22.82 351.688C21.4899 349.425 22.247 346.511 24.5093 345.183C26.7716 343.853 29.6861 344.61 31.0143 346.872Z" fill="#7B6FE1"/>
</g>
<path d="M31.0148 346.872C32.3449 349.134 31.5878 352.049 29.3255 353.377C27.0632 354.707 24.1506 353.95 22.8205 351.688C21.4904 349.425 24.3385 349.56 26.6008 348.23C28.8649 346.9 29.6847 344.61 31.0148 346.872Z" fill="#F7DB00" fill-opacity="0.6"/>
<g style="mix-blend-mode:multiply">
<path d="M29.1015 346.244C30.2824 348.477 29.5068 351.266 27.3053 352.559C26.3216 353.137 25.2144 353.32 24.168 353.158C25.6473 354.204 27.6609 354.355 29.3245 353.379C31.5886 352.049 32.3439 349.136 31.0138 346.874C30.3303 345.711 29.7813 345.752 29.1015 346.246V346.244Z" fill="#F7DB00" fill-opacity="0.6"/>
</g>
<g style="mix-blend-mode:screen">
<path d="M27.1257 349.525C28.6585 348.624 29.9002 347.528 30.7218 346.441C29.552 344.95 28.6916 346.999 26.5988 348.23C24.5208 349.451 21.9527 349.438 22.5754 351.179C23.9478 351.006 25.5524 350.448 27.1257 349.523V349.525Z" fill="#F7DB00" fill-opacity="0.6"/>
</g>
<g style="mix-blend-mode:screen">
<path d="M31.0278 349.429C31.1771 349.475 31.2065 349.803 31.0942 350.159C30.9818 350.514 30.7699 350.767 30.6207 350.719C30.4715 350.671 30.442 350.345 30.5544 349.989C30.6668 349.634 30.8786 349.381 31.0297 349.429H31.0278ZM30.092 351.509C29.9593 351.736 29.928 351.964 30.022 352.019C30.1178 352.075 30.302 351.936 30.4346 351.71C30.5673 351.483 30.5986 351.255 30.5046 351.198C30.4088 351.142 30.2246 351.281 30.0901 351.507L30.092 351.509Z" fill="#F7A800"/>
</g>
<path d="M22.908 348.961C22.7661 348.893 22.7827 348.565 22.9448 348.228C23.1051 347.891 23.352 347.672 23.4938 347.74C23.6357 347.808 23.6172 348.136 23.457 348.473C23.2948 348.81 23.0498 349.028 22.908 348.959V348.961ZM24.1294 347.034C24.2933 346.83 24.356 346.607 24.2712 346.539C24.1847 346.471 23.982 346.581 23.818 346.786C23.6541 346.992 23.5914 347.213 23.6762 347.283C23.7628 347.351 23.9654 347.241 24.1294 347.034Z" fill="white" fill-opacity="0.6"/>
<path d="M25.9231 344.719L22.4854 338.856L20.0039 340.312L23.4066 346.113C23.9132 345.29 24.9356 344.849 25.9231 344.719Z" fill="white" fill-opacity="0.6"/>
<g style="mix-blend-mode:multiply" opacity="0.4">
<path d="M25.4265 344.809L22.1786 339.269L20.4561 340.279L23.6726 345.763C24.1166 345.28 24.7559 344.967 25.4265 344.807V344.809Z" fill="#7B6FE1"/>
</g>
<path opacity="0.3" d="M24.0216 345.448L20.7718 339.911L22.3525 338.982L22.3396 338.96L20.3721 340.113L23.6808 345.752C23.7839 345.642 23.8982 345.541 24.0216 345.447V345.448Z" fill="white" fill-opacity="0.6"/>
<path d="M23.2059 338.221C23.4528 338.645 22.7214 339.529 21.5737 340.199C20.4259 340.868 19.2948 341.067 19.0479 340.643C18.8011 340.22 19.5324 339.334 20.6802 338.667C21.8279 337.998 22.959 337.799 23.2059 338.223V338.221Z" fill="white" fill-opacity="0.6"/>
<g style="mix-blend-mode:multiply" opacity="0.4">
<path d="M22.2356 338.44C22.3387 338.617 21.8579 339.089 21.1634 339.494C20.4689 339.899 19.8222 340.084 19.7191 339.907C19.6159 339.73 20.0949 339.258 20.7912 338.855C21.4858 338.45 22.1324 338.265 22.2356 338.442V338.44Z" fill="#7B6FE1"/>
</g>
<g style="mix-blend-mode:multiply" opacity="0.4">
<path d="M19.9178 340.216C20.172 340.129 20.406 340.144 20.4428 340.251C20.4797 340.358 20.3028 340.514 20.0504 340.601C19.7981 340.688 19.5622 340.673 19.5254 340.566C19.4886 340.459 19.6636 340.303 19.9178 340.216ZM20.7855 340.159C20.8279 340.225 20.99 340.199 21.1503 340.1C21.3106 340 21.4064 339.866 21.364 339.798C21.3216 339.73 21.1576 339.757 20.9992 339.857C20.8389 339.956 20.7431 340.093 20.7855 340.159Z" fill="#7B6FE1"/>
</g>
</g>
<g opacity="0.45">
<g style="mix-blend-mode:multiply" opacity="0.4">
<path d="M92.4753 391.618C92.4589 391.566 92.4393 391.514 92.4164 391.462C92.4033 391.409 92.3804 391.357 92.3543 391.305C92.3412 391.256 92.3183 391.203 92.2954 391.151C92.2823 391.099 92.2595 391.046 92.2366 390.991C92.2235 390.942 92.2006 390.889 92.1777 390.837C92.1613 390.785 92.1417 390.736 92.1188 390.683C92.1025 390.631 92.0829 390.579 92.06 390.523C92.06 390.52 92.06 390.517 92.0567 390.513C92.0469 390.481 92.0338 390.448 92.0207 390.412C92.0175 390.402 92.0109 390.389 92.0077 390.379C91.9913 390.346 91.975 390.314 91.9553 390.281C91.9553 390.278 91.9488 390.271 91.9488 390.268C91.9423 390.255 91.9357 390.242 91.9259 390.229C91.9096 390.203 91.8932 390.176 91.8736 390.154C91.8736 390.154 91.8703 390.147 91.8671 390.144C91.8507 390.118 91.8311 390.091 91.8115 390.065C91.8049 390.055 91.7951 390.042 91.7853 390.033C91.7461 389.98 91.7036 389.928 91.6578 389.876C91.6578 389.876 91.6545 389.869 91.6512 389.866C91.6022 389.81 91.5499 389.755 91.4975 389.699C91.4845 389.686 91.4747 389.673 91.4616 389.663C91.4125 389.614 91.3602 389.562 91.3079 389.513C91.3013 389.506 91.2948 389.5 91.2883 389.496C91.2785 389.486 91.2686 389.477 91.2588 389.47C91.2556 389.47 91.2523 389.464 91.249 389.46C91.2065 389.421 91.164 389.382 91.1182 389.343C91.1117 389.336 91.1084 389.333 91.1019 389.326C91.0888 389.313 91.0757 389.303 91.0626 389.29C91.0332 389.264 91.0038 389.241 90.9743 389.215C90.9515 389.195 90.9318 389.179 90.9089 389.159C90.8959 389.15 90.8828 389.14 90.8697 389.127C90.8566 389.114 90.8403 389.104 90.8272 389.091C90.801 389.071 90.7749 389.048 90.7487 389.029C90.7291 389.012 90.7062 388.996 90.6866 388.98C90.6735 388.97 90.6604 388.96 90.6474 388.95C90.6277 388.934 90.6081 388.921 90.5918 388.904C90.5689 388.888 90.5493 388.872 90.5264 388.855C90.5035 388.836 90.4806 388.819 90.4544 388.8C90.4446 388.793 90.4348 388.783 90.425 388.777C90.4086 388.764 90.389 388.751 90.3727 388.738C90.3432 388.715 90.3138 388.695 90.2844 388.672C90.2746 388.666 90.268 388.659 90.2582 388.653C90.2288 388.633 90.2026 388.613 90.1732 388.59C90.1634 388.584 90.1503 388.574 90.1405 388.568C90.1209 388.555 90.1013 388.541 90.0849 388.528C90.0555 388.505 90.0228 388.486 89.9934 388.463C90.1274 388.12 90.2778 387.701 90.4054 387.279C90.4054 387.276 90.4054 387.273 90.4086 387.266C90.4512 387.126 90.4871 386.988 90.5198 386.848C90.5198 386.848 90.5198 386.848 90.5198 386.844C90.6702 386.223 90.7324 385.638 90.5623 385.314C90.546 385.258 90.5296 385.206 90.5035 385.16C90.4871 385.101 90.4675 385.049 90.4413 385.003C90.4283 384.948 90.4054 384.895 90.3825 384.846C90.3661 384.791 90.3498 384.735 90.3236 384.689C90.3105 384.634 90.2909 384.581 90.2648 384.536C90.2484 384.477 90.2288 384.425 90.2026 384.379C90.1863 384.323 90.1667 384.271 90.1438 384.222C90.1274 384.166 90.1078 384.114 90.0849 384.068C90.0653 383.999 90.0424 383.937 90.0097 383.885C90.0097 383.882 90.0064 383.878 90.0032 383.875C89.9705 383.826 89.9345 383.78 89.8887 383.744C89.8429 383.708 89.7841 383.686 89.7252 383.669C89.7089 383.666 89.6892 383.663 89.6729 383.659C89.6271 383.65 89.5748 383.646 89.5225 383.646C89.5029 383.646 89.4832 383.646 89.4603 383.646C89.3884 383.653 89.3165 383.663 89.238 383.682C89.2184 383.686 89.1987 383.695 89.1791 383.699C89.117 383.715 89.0549 383.735 88.9895 383.757C88.9535 383.771 88.9175 383.784 88.8816 383.8C88.8292 383.823 88.7736 383.846 88.7181 383.869C88.6821 383.885 88.6461 383.901 88.6069 383.921C88.5251 383.96 88.4401 384.003 88.3584 384.048C87.2924 384.634 86.1348 385.634 86.1348 385.634C86.1348 385.634 85.8993 385.419 85.5462 385.121C85.4023 385 85.2355 384.866 85.059 384.729C85.059 384.729 85.0524 384.725 85.0491 384.722C84.9707 384.66 84.8889 384.601 84.8072 384.539C84.7908 384.526 84.7745 384.516 84.7581 384.503C84.7221 384.477 84.6894 384.451 84.6535 384.428C84.6175 384.402 84.5815 384.375 84.5456 384.353C84.5161 384.333 84.49 384.313 84.4606 384.294C84.3984 384.251 84.3396 384.212 84.2774 384.173C84.2513 384.156 84.2251 384.14 84.199 384.12C84.1499 384.088 84.0976 384.058 84.0485 384.026C84.0256 384.013 84.006 383.999 83.9831 383.986C83.9243 383.95 83.8621 383.914 83.8033 383.882C83.7902 383.875 83.7771 383.865 83.764 383.859C83.2245 383.568 82.7307 383.417 82.4462 383.614C82.407 383.643 82.3743 383.679 82.3416 383.718C82.3351 383.725 82.3285 383.735 82.3253 383.741C82.2991 383.78 82.2762 383.826 82.2566 383.875C82.2533 383.885 82.25 383.898 82.2435 383.911C82.2272 383.957 82.2141 384.009 82.2043 384.062C82.2043 384.071 82.201 384.078 82.1977 384.088C82.1879 384.147 82.1846 384.209 82.1814 384.274C82.1814 384.294 82.1814 384.317 82.1814 384.336C82.1814 384.398 82.1814 384.464 82.1814 384.529C82.1814 384.555 82.1846 384.581 82.1879 384.608C82.1912 384.66 82.1977 384.709 82.201 384.765C82.2043 384.801 82.2108 384.84 82.2141 384.876C82.2206 384.935 82.2304 384.99 82.2402 385.049C82.2468 385.088 82.2533 385.128 82.2599 385.167C82.2697 385.219 82.2795 385.268 82.2893 385.321C82.3024 385.379 82.3154 385.441 82.3285 385.5C82.3351 385.533 82.3449 385.569 82.3547 385.605C82.3743 385.69 82.3972 385.772 82.4201 385.857C82.4266 385.88 82.4332 385.903 82.4397 385.929C82.4561 385.981 82.4691 386.037 82.4855 386.089C82.4888 386.105 82.4953 386.122 82.4986 386.138C82.528 386.236 82.5574 386.331 82.5868 386.422C82.5901 386.439 82.5967 386.452 82.5999 386.468C82.6523 386.632 82.7046 386.782 82.7536 386.926C82.7536 386.929 82.7536 386.933 82.7569 386.936C82.7896 387.027 82.8223 387.116 82.8517 387.197C82.8517 387.204 82.855 387.207 82.8583 387.214C82.8779 387.269 82.8975 387.318 82.9138 387.368C82.9237 387.394 82.9335 387.417 82.94 387.439C82.9433 387.449 82.9498 387.462 82.9531 387.472C82.976 387.531 82.9956 387.583 83.0152 387.632C83.0348 387.685 83.0512 387.73 83.0708 387.773C83.0446 387.786 82.7602 387.946 82.3776 388.188C82.3612 388.198 82.3449 388.208 82.3253 388.221C82.2827 388.25 82.237 388.28 82.1912 388.309C82.1912 388.309 82.1846 388.313 82.1814 388.316C82.1258 388.352 82.0669 388.391 82.0081 388.43C82.0081 388.43 82.0081 388.43 82.0048 388.43C81.9427 388.47 81.8805 388.512 81.8184 388.558C81.8119 388.564 81.8021 388.568 81.7955 388.574C81.7432 388.61 81.6909 388.649 81.6353 388.685C81.6222 388.695 81.6091 388.705 81.5928 388.715C81.5372 388.754 81.4783 388.796 81.4227 388.839C81.4195 388.842 81.4129 388.846 81.4097 388.849C81.3475 388.895 81.2854 388.94 81.2265 388.989C81.2167 388.999 81.2036 389.006 81.1938 389.016C81.1448 389.055 81.099 389.091 81.05 389.13L81.0042 389.166C81.0042 389.166 81.0042 389.166 81.0009 389.166C80.9976 389.169 80.9911 389.173 80.9878 389.179C80.9519 389.209 80.9159 389.241 80.8799 389.271C80.8701 389.28 80.857 389.29 80.8472 389.297C80.844 389.297 80.8407 389.303 80.8374 389.307C80.8113 389.33 80.7851 389.352 80.7622 389.375C80.7459 389.392 80.7295 389.405 80.7132 389.421C80.7033 389.431 80.6935 389.441 80.6805 389.45C80.6674 389.464 80.6576 389.473 80.6445 389.483C80.6249 389.503 80.6052 389.522 80.5856 389.542C80.5693 389.558 80.5529 389.575 80.5366 389.591L80.53 389.598C80.5202 389.607 80.5104 389.617 80.4973 389.63C80.4875 389.64 80.4777 389.653 80.4679 389.663C80.4548 389.676 80.445 389.689 80.4352 389.702C80.409 389.728 80.3862 389.758 80.3633 389.784C80.3567 389.794 80.3469 389.804 80.3404 389.813C80.3142 389.843 80.2913 389.872 80.2684 389.902C80.2619 389.908 80.2586 389.915 80.2521 389.921C80.2455 389.931 80.239 389.941 80.2292 389.951C80.2128 389.97 80.1998 389.993 80.1834 390.013C80.1834 390.019 80.1769 390.023 80.1736 390.029C80.1638 390.042 80.1573 390.055 80.1507 390.069C80.1442 390.078 80.1376 390.088 80.1344 390.095C80.1278 390.104 80.1213 390.118 80.1147 390.127C80.1147 390.127 80.1147 390.134 80.1115 390.137C80.0919 390.17 80.0755 390.206 80.0624 390.239C80.0624 390.239 80.0624 390.242 80.0624 390.245C80.0461 390.288 80.033 390.327 80.0232 390.366C80.0232 390.376 80.0199 390.389 80.0166 390.399C80.0134 390.415 80.0101 390.435 80.0068 390.451C80.0068 390.464 80.0068 390.481 80.0068 390.494C80.0068 390.503 80.0068 390.517 80.0068 390.526C80.0068 390.566 80.0134 390.605 80.0232 390.644C80.0363 390.683 80.0526 390.716 80.0755 390.752C80.0755 390.768 80.082 390.785 80.0853 390.801C80.0984 390.84 80.1147 390.876 80.1344 390.909C80.1344 390.925 80.1376 390.942 80.1442 390.958C80.1573 390.997 80.1736 391.03 80.1965 391.066C80.1965 391.082 80.1998 391.099 80.2063 391.115C80.2194 391.151 80.2357 391.187 80.2554 391.223C80.2554 391.239 80.2586 391.256 80.2652 391.272C80.2782 391.311 80.2946 391.344 80.3142 391.38C80.3142 391.396 80.3175 391.412 80.324 391.429C80.3371 391.468 80.3535 391.504 80.3763 391.537C80.3763 391.553 80.3796 391.569 80.3862 391.586C80.3992 391.625 80.4156 391.658 80.4385 391.694C80.4385 391.71 80.445 391.726 80.4483 391.743C80.4581 391.779 80.4777 391.818 80.4973 391.851C80.4973 391.867 80.5006 391.883 80.5071 391.9C80.5202 391.936 80.5366 391.972 80.5595 392.008C80.5595 392.024 80.5627 392.04 80.5693 392.057C80.8341 392.93 83.764 392.796 84.5358 392.747C84.5358 392.747 84.5358 392.753 84.5358 392.756C84.5783 392.9 84.624 393.044 84.6731 393.191C84.6829 393.218 84.6894 393.244 84.6993 393.27C84.7516 393.427 84.8104 393.584 84.8693 393.737C84.8856 393.783 84.902 393.826 84.9216 393.872C84.9445 393.927 84.9641 393.979 84.9837 394.035C85.0034 394.084 85.0197 394.133 85.0393 394.179C85.059 394.238 85.0818 394.293 85.1047 394.346C85.1244 394.395 85.1407 394.447 85.1603 394.496C85.1799 394.548 85.1996 394.604 85.2225 394.656C85.2421 394.709 85.2617 394.761 85.2813 394.81C85.3009 394.862 85.3238 394.918 85.3434 394.97C85.6508 395.791 86.053 396.527 86.5141 396.533C87.5638 396.55 88.4401 392.796 88.4401 392.796C88.4401 392.796 88.4597 392.796 88.4957 392.802C88.4957 392.802 88.5022 392.802 88.5055 392.802C88.5219 392.802 88.5415 392.805 88.5644 392.809C88.5644 392.809 88.5709 392.809 88.5742 392.809C89.2478 392.877 92.3052 393.146 92.6093 392.259C92.6584 392.116 92.629 391.945 92.5439 391.766C92.5309 391.717 92.508 391.664 92.4851 391.609L92.4753 391.618Z" fill="#6FAEDC"/>
</g>
<path d="M92.6024 390.742C92.6514 390.598 92.622 390.428 92.537 390.248C92.5239 390.199 92.501 390.147 92.4781 390.091C92.4618 390.039 92.4422 389.986 92.4193 389.934C92.4062 389.882 92.3833 389.829 92.3572 389.777C92.3441 389.728 92.3212 389.676 92.2983 389.623C92.2852 389.571 92.2623 389.519 92.2394 389.463C92.2264 389.414 92.2035 389.362 92.1806 389.31C92.1642 389.257 92.1446 389.208 92.1217 389.156C92.1054 389.104 92.0857 389.051 92.0629 388.996C91.8732 388.351 90.7974 387.495 89.9962 386.936C90.3755 385.964 90.8955 384.405 90.5652 383.79C90.5489 383.734 90.5325 383.682 90.5063 383.636C90.49 383.577 90.4704 383.525 90.4442 383.479C90.4311 383.424 90.4082 383.371 90.3854 383.322C90.369 383.267 90.3527 383.211 90.3265 383.165C90.3134 383.11 90.2938 383.057 90.2676 383.012C90.2513 382.953 90.2317 382.9 90.2055 382.855C90.1892 382.799 90.1695 382.747 90.1466 382.698C90.1303 382.639 90.1107 382.586 90.0845 382.541C90.0485 382.403 89.9864 382.292 89.8883 382.22C89.0479 381.586 86.1344 384.114 86.1344 384.114C86.1344 384.114 83.3091 381.491 82.4491 382.096C81.7395 382.593 82.6322 385.088 82.969 385.951C82.9919 386.01 83.0115 386.062 83.0312 386.112C83.0508 386.164 83.0671 386.21 83.0868 386.252C82.9952 386.304 79.7285 388.142 80.0293 389.133C80.0424 389.169 80.0588 389.208 80.0817 389.241C80.0817 389.257 80.0882 389.274 80.0915 389.29C80.1045 389.329 80.1209 389.365 80.1405 389.398C80.1405 389.414 80.1438 389.431 80.1503 389.447C80.1634 389.486 80.1797 389.519 80.2026 389.555C80.2026 389.571 80.2059 389.587 80.2124 389.604C80.2255 389.64 80.2419 389.676 80.2615 389.712C80.2615 389.728 80.2648 389.744 80.2713 389.761C80.2844 389.8 80.3007 389.833 80.3204 389.869C80.3204 389.885 80.3236 389.901 80.3302 389.918C80.3432 389.957 80.3596 389.993 80.3825 390.026C80.3825 390.042 80.3858 390.058 80.3923 390.075C80.4054 390.114 80.4217 390.147 80.4446 390.183C80.4446 390.199 80.4512 390.215 80.4544 390.232C80.4642 390.268 80.4839 390.307 80.5035 390.34C80.5035 390.356 80.5067 390.372 80.5133 390.389C80.5264 390.425 80.5427 390.461 80.5656 390.497C80.5656 390.513 80.5689 390.529 80.5754 390.546C80.8403 391.419 83.7702 391.285 84.5419 391.236C84.6335 391.553 84.7446 391.89 84.8722 392.207C84.8885 392.259 84.9081 392.308 84.931 392.357C84.9539 392.413 84.9735 392.465 84.9932 392.521C85.0128 392.57 85.0291 392.619 85.0488 392.665C85.0684 392.723 85.0913 392.779 85.1141 392.831C85.1338 392.88 85.1501 392.933 85.1697 392.982C85.1894 393.034 85.209 393.09 85.2319 393.142C85.2515 393.194 85.2711 393.247 85.2907 393.296C85.3103 393.348 85.3332 393.404 85.3529 393.456C85.6602 394.277 86.0624 395.012 86.5235 395.019C87.5732 395.035 88.4495 391.281 88.4495 391.281C88.4495 391.281 92.2787 391.742 92.6187 390.748L92.6024 390.742Z" fill="#F6B400" fill-opacity="0.6"/>
<g style="mix-blend-mode:multiply">
<path d="M92.6024 390.742C92.6514 390.598 92.622 390.428 92.537 390.248C92.5239 390.199 92.501 390.147 92.4781 390.091C92.4618 390.039 92.4422 389.986 92.4193 389.934C92.4062 389.882 92.3833 389.829 92.3572 389.777C92.3441 389.728 92.3212 389.676 92.2983 389.623C92.2852 389.571 92.2623 389.519 92.2394 389.463C92.2264 389.414 92.2035 389.362 92.1806 389.31C92.1642 389.257 92.1446 389.208 92.1217 389.156C92.1054 389.104 92.0857 389.051 92.0629 388.996C91.8732 388.351 90.7974 387.495 89.9962 386.936C90.3755 385.964 90.8955 384.405 90.5652 383.79C90.5489 383.734 90.5325 383.682 90.5063 383.636C90.49 383.577 90.4704 383.525 90.4442 383.479C90.4311 383.424 90.4082 383.371 90.3854 383.322C90.369 383.267 90.3527 383.211 90.3265 383.165C90.3134 383.11 90.2938 383.057 90.2676 383.012C90.2513 382.953 90.2317 382.9 90.2055 382.855C90.1892 382.799 90.1695 382.747 90.1466 382.698C90.1303 382.639 90.1107 382.586 90.0845 382.541C90.0485 382.403 89.9864 382.292 89.8883 382.22C89.0479 381.586 86.1344 384.114 86.1344 384.114C86.1344 384.114 83.3091 381.491 82.4491 382.096C81.7395 382.593 82.6322 385.088 82.969 385.951C82.9919 386.01 83.0115 386.062 83.0312 386.112C83.0508 386.164 83.0671 386.21 83.0868 386.252C82.9952 386.304 79.7285 388.142 80.0293 389.133C80.0424 389.169 80.0588 389.208 80.0817 389.241C80.0817 389.257 80.0882 389.274 80.0915 389.29C80.1045 389.329 80.1209 389.365 80.1405 389.398C80.1405 389.414 80.1438 389.431 80.1503 389.447C80.1634 389.486 80.1797 389.519 80.2026 389.555C80.2026 389.571 80.2059 389.587 80.2124 389.604C80.2255 389.64 80.2419 389.676 80.2615 389.712C80.2615 389.728 80.2648 389.744 80.2713 389.761C80.2844 389.8 80.3007 389.833 80.3204 389.869C80.3204 389.885 80.3236 389.901 80.3302 389.918C80.3432 389.957 80.3596 389.993 80.3825 390.026C80.3825 390.042 80.3858 390.058 80.3923 390.075C80.4054 390.114 80.4217 390.147 80.4446 390.183C80.4446 390.199 80.4512 390.215 80.4544 390.232C80.4642 390.268 80.4839 390.307 80.5035 390.34C80.5035 390.356 80.5067 390.372 80.5133 390.389C80.5264 390.425 80.5427 390.461 80.5656 390.497C80.5656 390.513 80.5689 390.529 80.5754 390.546C80.8403 391.419 83.7702 391.285 84.5419 391.236C84.6335 391.553 84.7446 391.89 84.8722 392.207C84.8885 392.259 84.9081 392.308 84.931 392.357C84.9539 392.413 84.9735 392.465 84.9932 392.521C85.0128 392.57 85.0291 392.619 85.0488 392.665C85.0684 392.723 85.0913 392.779 85.1141 392.831C85.1338 392.88 85.1501 392.933 85.1697 392.982C85.1894 393.034 85.209 393.09 85.2319 393.142C85.2515 393.194 85.2711 393.247 85.2907 393.296C85.3103 393.348 85.3332 393.404 85.3529 393.456C85.6602 394.277 86.0624 395.012 86.5235 395.019C87.5732 395.035 88.4495 391.281 88.4495 391.281C88.4495 391.281 92.2787 391.742 92.6187 390.748L92.6024 390.742Z" fill="#F6B400" fill-opacity="0.6"/>
</g>
<g style="mix-blend-mode:screen">
<path d="M89.8817 382.217C90.7221 382.848 89.1002 386.347 89.1002 386.347C89.1002 386.347 92.4029 388.339 92.0628 389.333C91.7195 390.327 87.8936 389.866 87.8936 389.866C87.8936 389.866 87.0205 393.623 85.9709 393.607C84.9179 393.587 84.1724 389.804 84.1724 389.804C84.1724 389.804 80.3301 390.134 80.0228 389.127C79.7154 388.123 83.0835 386.246 83.0835 386.246C83.0835 386.246 81.5825 382.691 82.4425 382.09C83.3025 381.488 86.1278 384.107 86.1278 384.107C86.1278 384.107 89.0414 381.583 89.8817 382.214V382.217Z" fill="#F6B400" fill-opacity="0.6"/>
</g>
<g style="mix-blend-mode:multiply" opacity="0.5">
<path d="M90.4773 387.289C90.4773 387.289 90.4577 387.276 90.4512 387.269C90.461 387.276 90.4708 387.282 90.4773 387.289Z" fill="#F6B400" fill-opacity="0.6"/>
</g>
<g style="mix-blend-mode:multiply" opacity="0.5">
<path d="M89.1006 386.35C89.1006 386.35 89.493 386.586 89.99 386.935C90.1699 386.474 90.3824 385.883 90.5198 385.32C90.232 385.124 89.9704 384.911 89.7578 384.679C89.4636 385.569 89.1039 386.35 89.1039 386.35H89.1006Z" fill="#F6B400" fill-opacity="0.6"/>
</g>
<g style="mix-blend-mode:multiply" opacity="0.5">
<path d="M90.9491 387.665C90.9491 387.665 90.942 387.662 90.9385 387.658C90.9385 387.658 90.9455 387.665 90.9491 387.665Z" fill="#F6B400" fill-opacity="0.6"/>
</g>
<g style="mix-blend-mode:multiply" opacity="0.5">
<path d="M90.1992 387.086C90.1992 387.086 90.2221 387.102 90.2352 387.112C90.2221 387.102 90.2123 387.096 90.1992 387.086Z" fill="#F6B400" fill-opacity="0.6"/>
</g>
<g style="mix-blend-mode:multiply" opacity="0.5">
<path d="M90.9122 391.363C90.2517 390.974 89.6794 390.5 89.4963 389.973C88.6363 389.96 87.8908 389.869 87.8908 389.869C87.8908 389.869 87.5932 391.144 87.1387 392.207C87.3937 392.537 87.6259 392.913 87.8025 393.312C88.1883 392.324 88.4336 391.275 88.4336 391.275C88.4336 391.275 89.7547 391.432 90.9122 391.363Z" fill="#F6B400" fill-opacity="0.6"/>
</g>
<g style="mix-blend-mode:multiply" opacity="0.5">
<path d="M84.1694 389.806C84.1694 389.806 83.002 389.908 81.9033 389.826C82.2107 390.281 82.4396 390.778 82.4102 391.229C83.2571 391.294 84.1498 391.249 84.5291 391.226C84.3035 390.46 84.1727 389.803 84.1727 389.803L84.1694 389.806Z" fill="#F6B400" fill-opacity="0.6"/>
</g>
<g style="mix-blend-mode:screen">
<g style="mix-blend-mode:screen">
<path d="M81.3304 389.764C82.0694 389.872 82.9523 389.862 83.5377 389.84L85.5389 383.597C85.068 383.205 84.3846 382.675 83.7567 382.335L82.7561 385.399C82.9327 385.899 83.0799 386.249 83.0799 386.249C83.0799 386.249 82.7627 386.426 82.331 386.697L81.3271 389.764H81.3304Z" fill="#F6B400" fill-opacity="0.6"/>
</g>
<g style="mix-blend-mode:screen">
<path d="M87.8898 389.869C87.8898 389.869 88.377 389.928 89.0147 389.957L89.9826 386.929C89.4856 386.582 89.0964 386.347 89.0964 386.347C89.0964 386.347 90.7183 382.848 89.878 382.217C89.5673 381.982 88.9754 382.181 88.3476 382.524L85.0449 392.638C85.3065 393.188 85.6204 393.597 85.9671 393.606C87.0167 393.623 87.8898 389.866 87.8898 389.866V389.869Z" fill="#F6B400" fill-opacity="0.6"/>
</g>
</g>
<g style="mix-blend-mode:screen">
<path d="M84.5331 383.747C84.7162 383.633 85.0268 383.803 85.2263 384.126C85.4258 384.45 85.4388 384.803 85.2524 384.918C85.0693 385.032 84.7554 384.862 84.5592 384.538C84.3597 384.215 84.3499 383.862 84.5331 383.747Z" fill="#F6B400" fill-opacity="0.6"/>
<path d="M83.2348 382.884C83.3132 382.76 83.5552 382.773 83.7743 382.91C83.9934 383.051 84.1046 383.263 84.0261 383.387C83.9476 383.512 83.7056 383.502 83.4898 383.361C83.2707 383.224 83.1595 383.011 83.238 382.887L83.2348 382.884Z" fill="#F6B400" fill-opacity="0.6"/>
</g>
<g style="mix-blend-mode:screen">
<path d="M82.0017 387.714C81.9428 387.505 82.1946 387.253 82.5609 387.155C82.9271 387.053 83.2705 387.142 83.326 387.351C83.3816 387.56 83.1331 387.812 82.7669 387.91C82.4006 388.012 82.0573 387.923 81.9984 387.714H82.0017Z" fill="#F6B400" fill-opacity="0.6"/>
<path d="M80.8043 388.718C80.7062 388.607 80.788 388.381 80.9809 388.211C81.1739 388.041 81.4093 387.992 81.5074 388.103C81.6055 388.214 81.527 388.44 81.3308 388.613C81.1379 388.783 80.8992 388.832 80.8043 388.721V388.718Z" fill="#F6B400" fill-opacity="0.6"/>
</g>
<g style="mix-blend-mode:multiply" opacity="0.5">
<path d="M87.8905 389.869C87.8905 389.869 87.0175 393.626 85.9678 393.61C84.9149 393.59 84.1693 389.807 84.1693 389.807C84.1693 389.807 80.3271 390.137 80.0197 389.13C79.817 388.466 81.2231 387.417 82.1975 386.785C82.4199 387.047 82.6749 387.289 82.9627 387.505C85.0522 389.081 87.9985 388.705 89.6367 386.694C90.5556 387.305 92.3181 388.597 92.063 389.339C91.7197 390.333 87.8938 389.872 87.8938 389.872L87.8905 389.869Z" fill="#F6B400" fill-opacity="0.6"/>
</g>
</g>
</g>
<defs>
<clipPath id="clip0_89_28">
<rect width="100" height="630" fill="white"/>
</clipPath>
</defs>
</svg>
